<svg width="45" height="45" viewBox="0 0 45 45" fill="none" xmlns="http://www.w3.org/2000/svg">
<path d="M35.5242 11.4498L23.4848 6.2901C22.8559 6.02059 22.1441 6.02059 21.5152 6.2901L9.47582 11.4498L10.0565 12.8047L9.47582 11.4498C8.45178 11.8887 7.84173 12.9523 7.97993 14.0578L9.46791 25.9617C9.70379 27.8487 10.6477 29.5756 12.1086 30.7931L20.8995 38.1188C21.8267 38.8914 23.1734 38.8914 24.1005 38.1188L32.8914 30.7931C34.3523 29.5756 35.2962 27.8487 35.5321 25.9617L37.0201 14.0578C37.1583 12.9523 36.5482 11.8887 35.5242 11.4498Z" stroke="white" stroke-opacity="0.8" stroke-width="3" stroke-linecap="round"/>
<path d="M16.875 22.5L22.0687 27.6937C22.2918 27.9168 22.6633 27.8801 22.8383 27.6175L30 16.875" stroke="white" stroke-opacity="0.8" stroke-width="3" stroke-linecap="round"/>
</svg>
