<svg width="24" height="24" viewBox="0 0 24 24" fill="none" xmlns="http://www.w3.org/2000/svg">
<circle cx="12.4631" cy="11.537" r="11.037" stroke="#3F3F46"/>
<path d="M12.4637 6.96098C13.9542 6.96098 14.1307 6.96656 14.7195 6.99341C15.0735 6.99774 15.4242 7.06275 15.7562 7.18561C15.997 7.27847 16.2157 7.42073 16.3982 7.60323C16.5807 7.78572 16.723 8.00441 16.8158 8.24521C16.9387 8.57726 17.0037 8.92792 17.008 9.28194C17.0346 9.87076 17.0405 10.0473 17.0405 11.5378C17.0405 13.0283 17.0349 13.2048 17.008 13.7936C17.0037 14.1476 16.9387 14.4983 16.8158 14.8304C16.723 15.0712 16.5807 15.2898 16.3982 15.4723C16.2157 15.6548 15.997 15.7971 15.7562 15.89C15.4242 16.0128 15.0735 16.0778 14.7195 16.0821C14.131 16.1087 13.9544 16.1146 12.4637 16.1146C10.9729 16.1146 10.7964 16.109 10.2078 16.0821C9.8538 16.0778 9.50314 16.0128 9.17109 15.89C8.93029 15.7971 8.7116 15.6548 8.52911 15.4723C8.34661 15.2898 8.20435 15.0712 8.11149 14.8304C7.98863 14.4983 7.92363 14.1476 7.91929 13.7936C7.89271 13.2048 7.88686 13.0283 7.88686 11.5378C7.88686 10.0473 7.89244 9.87076 7.91929 9.28194C7.92363 8.92792 7.98863 8.57726 8.11149 8.24521C8.20435 8.00441 8.34661 7.78572 8.52911 7.60323C8.7116 7.42073 8.93029 7.27847 9.17109 7.18561C9.50314 7.06275 9.8538 6.99774 10.2078 6.99341C10.7966 6.96683 10.9732 6.96098 12.4637 6.96098ZM12.4637 5.95508C10.9484 5.95508 10.7576 5.96146 10.1621 5.98857C9.69877 5.99779 9.24036 6.08552 8.80637 6.24802C8.43407 6.38829 8.09687 6.60811 7.81828 6.89213C7.534 7.17082 7.314 7.50822 7.17364 7.88075C7.01113 8.31475 6.9234 8.77316 6.91419 9.23649C6.88761 9.83142 6.88123 10.0223 6.88123 11.5375C6.88123 13.0527 6.88761 13.2436 6.91472 13.8391C6.92394 14.3024 7.01166 14.7608 7.17417 15.1948C7.31437 15.5673 7.53419 15.9047 7.81828 16.1834C8.09702 16.4675 8.43441 16.6873 8.8069 16.8275C9.24089 16.99 9.69931 17.0778 10.1626 17.087C10.7581 17.1136 10.9482 17.1205 12.4642 17.1205C13.9802 17.1205 14.1703 17.1141 14.7658 17.087C15.2291 17.0778 15.6875 16.99 16.1215 16.8275C16.4922 16.6838 16.8289 16.4644 17.1099 16.1831C17.391 15.9019 17.6102 15.5651 17.7537 15.1943C17.9162 14.7603 18.0039 14.3019 18.0131 13.8385C18.0397 13.2436 18.0461 13.0527 18.0461 11.5375C18.0461 10.0223 18.0397 9.83142 18.0126 9.23596C18.0034 8.77263 17.9157 8.31421 17.7532 7.88022C17.613 7.50773 17.3931 7.17034 17.109 6.8916C16.8303 6.60751 16.4929 6.38769 16.1204 6.24749C15.6864 6.08498 15.228 5.99726 14.7647 5.98804C14.1698 5.96146 13.9789 5.95508 12.4637 5.95508Z" fill="black"/>
<path d="M12.4647 8.67041C11.8978 8.67041 11.3435 8.83854 10.8721 9.15354C10.4006 9.46854 10.0332 9.91626 9.81624 10.4401C9.59926 10.9639 9.54249 11.5403 9.65311 12.0964C9.76372 12.6525 10.0367 13.1633 10.4377 13.5642C10.8386 13.9651 11.3494 14.2381 11.9055 14.3488C12.4616 14.4594 13.038 14.4026 13.5618 14.1856C14.0856 13.9686 14.5333 13.6012 14.8483 13.1298C15.1633 12.6584 15.3315 12.1041 15.3315 11.5371C15.3315 10.7768 15.0294 10.0477 14.4918 9.51005C13.9542 8.97244 13.225 8.67041 12.4647 8.67041ZM12.4647 13.3979C12.0967 13.3979 11.7369 13.2888 11.4309 13.0843C11.1249 12.8799 10.8864 12.5892 10.7456 12.2492C10.6047 11.9092 10.5679 11.5351 10.6397 11.1741C10.7115 10.8131 10.8887 10.4816 11.1489 10.2213C11.4092 9.96109 11.7407 9.78387 12.1017 9.71207C12.4627 9.64027 12.8368 9.67712 13.1768 9.81796C13.5169 9.9588 13.8075 10.1973 14.0119 10.5033C14.2164 10.8093 14.3256 11.1691 14.3256 11.5371C14.3256 12.0306 14.1295 12.5039 13.7805 12.8529C13.4316 13.2019 12.9583 13.3979 12.4647 13.3979Z" fill="black"/>
<path d="M15.4442 9.22797C15.8142 9.22797 16.1141 8.92805 16.1141 8.55808C16.1141 8.1881 15.8142 7.88818 15.4442 7.88818C15.0742 7.88818 14.7743 8.1881 14.7743 8.55808C14.7743 8.92805 15.0742 9.22797 15.4442 9.22797Z" fill="black"/>
</svg>
