<svg width="82" height="71" viewBox="0 0 82 71" fill="none" xmlns="http://www.w3.org/2000/svg">
<path d="M51.3015 7.54092C39.7915 20.1333 26.0445 30.3082 11.2874 37.0555C13.1997 23.5249 21.8231 11.7985 34.3073 7.7935C40.044 5.95335 45.8893 5.98942 51.3015 7.54092Z" fill="#19011F"/>
<path d="M75.801 32.6175L77.3885 38.8955C66.095 45.4622 53.7913 49.0342 41.4515 51.6322C53.8275 47.2665 65.4095 40.7717 75.801 32.6175Z" fill="#19011F"/>
<path d="M78.5068 44.9212L81.0325 54.8435C60.1053 63.7555 37.1577 65.307 15.6172 61.9875C37.735 62.4927 59.5643 56.2867 78.5068 44.9212Z" fill="#19011F"/>
<path d="M64.5433 15.5149C49.0283 29.9475 19.0449 41.782 0.0300293 47.1942C4.03505 45.9315 7.9679 44.452 11.7925 42.7562C28.6063 35.3957 43.7965 24.0301 56.2445 9.99447C57.4713 10.5357 58.626 11.1851 59.7805 11.8707C61.4403 12.917 63.028 14.1077 64.5433 15.5149Z" fill="#19011F"/>
<path d="M73.708 27.3135C58.157 38.4625 40.5855 44.7768 22.7614 47.8798C40.2248 42.3955 56.317 32.6895 69.9195 19.9889C71.435 22.226 72.6977 24.6795 73.708 27.3135Z" fill="#19011F"/>
<path d="M71.651 11.7625C74.8992 11.7625 77.5323 9.12935 77.5323 5.88125C77.5323 2.63312 74.8992 0 71.651 0C68.403 0 65.7698 2.63312 65.7698 5.88125C65.7698 9.12935 68.403 11.7625 71.651 11.7625Z" fill="#19011F"/>
<path d="M70.8927 2.20113L72.5525 6.96385C72.5887 7.036 72.5525 7.0721 72.5525 7.14425L71.2897 9.59778C71.2535 9.70603 71.1455 9.7421 71.0372 9.70603C71.0372 9.70603 71.0372 9.66995 71.0732 9.66995L72.336 7.21643C72.4082 7.10818 72.4082 6.99993 72.3722 6.8556L70.7125 2.09288V2.05681C70.7485 2.05681 70.8567 2.09289 70.8927 2.20113Z" fill="white"/>
<path d="M70.424 9.56145L68.8003 4.90698C68.7643 4.8348 68.8003 4.79873 68.8003 4.72658L70.027 2.1648C70.0993 1.98439 70.3518 2.02047 70.424 2.20088L72.0838 6.9636C72.1198 7.03575 72.0838 7.07185 72.0838 7.144L70.821 9.59753C70.7488 9.74185 70.4963 9.74185 70.424 9.56145Z" fill="white"/>
<path d="M71.7225 9.2373L72.7328 7.1446C72.769 7.1085 72.769 7.03635 72.7328 6.96417L71.903 4.54675C71.8668 4.4385 71.939 4.29417 72.0473 4.2581L73.6348 3.71687C73.743 3.6808 73.8875 3.75295 73.9235 3.8612L75.4028 8.11877C75.439 8.22702 75.3668 8.37135 75.2585 8.40742L72.0113 9.52595C71.7948 9.59812 71.6143 9.41772 71.7225 9.2373Z" fill="white"/>
<path d="M59.2395 64.6215C59.2395 65.9565 58.7342 67.3275 57.724 68.3738C55.6672 70.5388 52.2395 70.5748 50.0747 68.5183C49.4612 67.941 49.0285 67.2193 48.7397 66.4615C52.2757 65.9925 55.7395 65.379 59.2395 64.6215Z" fill="#19011F"/>
</svg>
