<svg width="108" height="29" viewBox="0 0 108 29" fill="none" xmlns="http://www.w3.org/2000/svg">
<path d="M39.0415 22.6014V7.41838H42.8084V22.6014H39.0415ZM42.0868 22.6014V19.7582H45.2763C45.8536 19.7582 46.3155 19.585 46.6619 19.2386C47.0227 18.8922 47.1959 18.4592 47.1959 17.9252C47.1959 17.55 47.1093 17.2325 46.9505 16.9727C46.7918 16.7129 46.5608 16.4964 46.2722 16.3377C45.9835 16.1789 45.6372 16.1067 45.2186 16.1067H42.0723V13.3646H44.9877C45.5073 13.3646 45.9258 13.2347 46.2433 12.9749C46.5608 12.7151 46.7196 12.3254 46.7196 11.8203C46.7196 11.2863 46.5608 10.8966 46.2433 10.6368C45.9258 10.377 45.5073 10.2471 45.0166 10.2471H42.0868V7.40395H45.9402C46.8928 7.40395 47.7154 7.57714 48.4082 7.93795C49.0865 8.29876 49.6205 8.77503 49.9958 9.36677C50.371 9.97293 50.5586 10.6513 50.5586 11.4017C50.5586 12.3976 50.2123 13.2347 49.5195 13.913C48.8267 14.5913 47.8165 15.0099 46.5031 15.1831V13.8697C47.9464 14.0429 49.0577 14.5047 49.8514 15.2697C50.6308 16.0346 51.0349 16.9871 51.0349 18.1562C51.0349 18.9932 50.8184 19.7582 50.3854 20.4365C49.9525 21.1148 49.3463 21.6488 48.5814 22.0241C47.802 22.3993 46.8784 22.5869 45.8248 22.5869H42.0868V22.6014Z" fill="#19011F"/>
<path d="M57.1543 22.8611C55.9709 22.8611 54.9317 22.6301 54.0225 22.1539C53.1276 21.6776 52.4204 21.0281 51.9153 20.2055C51.4102 19.3828 51.1504 18.4303 51.1504 17.3767C51.1504 16.3087 51.3957 15.3562 51.8865 14.5335C52.3772 13.7109 53.0555 13.0614 53.9359 12.5851C54.8018 12.1088 55.7832 11.8635 56.8657 11.8635C57.9192 11.8635 58.8574 12.0944 59.68 12.5418C60.5027 12.9892 61.1377 13.6098 61.614 14.4036C62.0758 15.1974 62.3067 16.1066 62.3067 17.1314C62.3067 17.3334 62.2923 17.5355 62.2634 17.7664C62.2346 17.9829 62.1913 18.2427 62.1335 18.5313L52.8967 18.5746V16.1788L60.647 16.1355L58.9728 17.1602C58.9584 16.5829 58.8718 16.1066 58.713 15.7314C58.5543 15.3417 58.3233 15.0531 58.0347 14.8655C57.7316 14.6778 57.3564 14.5768 56.8945 14.5768C56.4327 14.5768 56.0286 14.6923 55.6822 14.9087C55.3358 15.1252 55.0616 15.4572 54.874 15.8757C54.6864 16.2943 54.5998 16.7994 54.5998 17.3623C54.5998 17.9829 54.7008 18.488 54.9028 18.9066C55.1049 19.3251 55.3935 19.6282 55.7544 19.8447C56.1296 20.0467 56.577 20.1622 57.1254 20.1622C57.6306 20.1622 58.078 20.0756 58.4677 19.9168C58.8718 19.7581 59.2182 19.4983 59.5357 19.1375L61.5129 21.0714C60.9645 21.6776 60.3295 22.125 59.5934 22.4281C58.8862 22.7023 58.0636 22.8611 57.1543 22.8611Z" fill="#19011F"/>
<path d="M62.8408 22.6013V6.98534H66.5933V22.6013H62.8408Z" fill="#19011F"/>
<path d="M67.9065 22.6013V6.98534H71.6589V22.6013H67.9065Z" fill="#19011F"/>
<path d="M73.2322 22.6013V7.41833H77.0712V22.6013H73.2322ZM76.2774 17.1747V14.3026H79.2794C79.6546 14.3026 79.9866 14.2305 80.2897 14.0717C80.5928 13.9274 80.8381 13.6965 81.0257 13.3934C81.2133 13.0903 81.2999 12.7151 81.2999 12.2965C81.2999 11.8491 81.2133 11.4883 81.0257 11.1852C80.8381 10.8821 80.5928 10.6512 80.2897 10.5069C79.9866 10.3481 79.6402 10.276 79.2794 10.276H76.2774V7.43277H79.9144C80.8958 7.43277 81.7762 7.62039 82.5556 8.01007C83.3349 8.39975 83.9555 8.94818 84.4029 9.68424C84.8648 10.4059 85.0813 11.2862 85.0813 12.3254C85.0813 13.3357 84.8503 14.216 84.4029 14.9377C83.9411 15.6593 83.3349 16.2222 82.5556 16.6263C81.7762 17.0159 80.8958 17.218 79.9144 17.218H76.2774V17.1747Z" fill="#19011F"/>
<path d="M89.815 22.8178C88.8336 22.8178 87.9676 22.5869 87.2171 22.1106C86.4666 21.6343 85.8749 20.9993 85.4419 20.1766C85.009 19.354 84.7925 18.4159 84.7925 17.3623C84.7925 16.3231 85.009 15.385 85.4419 14.5624C85.8749 13.7397 86.4666 13.0903 87.2316 12.6284C87.9821 12.1522 88.848 11.9212 89.8006 11.9212C90.4644 11.9212 91.085 12.0367 91.6191 12.2676C92.1675 12.4985 92.6149 12.8305 92.9613 13.249C93.3077 13.6676 93.5241 14.1583 93.5963 14.7211V19.989C93.5097 20.5519 93.2932 21.0426 92.9468 21.4611C92.6005 21.8941 92.153 22.226 91.6046 22.457C91.0417 22.7023 90.45 22.8178 89.815 22.8178ZM90.6088 19.4983C91.2294 19.4983 91.7201 19.2962 92.0809 18.8921C92.4561 18.488 92.6438 17.9829 92.6438 17.3479C92.6438 16.9437 92.5572 16.5829 92.384 16.2654C92.2108 15.9479 91.9799 15.6881 91.6768 15.5005C91.3737 15.3129 91.0273 15.2263 90.6232 15.2263C90.2191 15.2263 89.8727 15.3129 89.5696 15.5005C89.2666 15.6881 89.0212 15.9335 88.848 16.2654C88.6748 16.5829 88.5738 16.9437 88.5738 17.3479C88.5738 17.7664 88.6604 18.1272 88.8336 18.4447C89.0068 18.7622 89.2521 19.022 89.5552 19.2096C89.8727 19.3973 90.2191 19.4983 90.6088 19.4983ZM92.5139 22.6013V19.7725L93.0479 17.2468L92.5139 14.6923V12.1233H96.1942V22.6013H92.5139Z" fill="#19011F"/>
<path d="M100.625 22.6157L96.425 12.1232H100.408L103.006 20.7539H101.419L104.017 12.1232H108L103.699 22.6012L100.625 22.6157ZM98.1425 27.0609L101.231 20.2343L103.699 22.6157L101.895 27.0753H98.1425V27.0609Z" fill="#19011F"/>
<path d="M21.1885 3.01637C16.5845 8.05331 11.0858 12.1233 5.18286 14.8222C5.94778 9.40997 9.39715 4.7194 14.3908 3.1174C16.6856 2.38134 19.0236 2.39577 21.1885 3.01637Z" fill="#19011F"/>
<path d="M30.9883 13.047L31.6233 15.5582C27.1059 18.1849 22.1844 19.6137 17.2485 20.6529C22.1989 18.9066 26.8317 16.3087 30.9883 13.047Z" fill="#19011F"/>
<path d="M32.0706 17.9685L33.0809 21.9374C24.7101 25.5022 15.531 26.1228 6.91479 24.795C15.7619 24.9971 24.4936 22.5147 32.0706 17.9685Z" fill="#19011F"/>
<path d="M26.4852 6.20596C20.2793 11.979 8.28586 16.7128 0.679931 18.8777C2.28194 18.3726 3.85508 17.7808 5.38492 17.1025C12.1105 14.1583 18.1866 9.61203 23.1658 3.99779C23.6565 4.21427 24.1183 4.47406 24.5801 4.74827C25.244 5.16682 25.8791 5.64309 26.4852 6.20596Z" fill="#19011F"/>
<path d="M30.1511 10.9254C23.9307 15.385 16.9021 17.9107 9.77246 19.1519C16.7578 16.9582 23.1947 13.0758 28.6357 7.99557C29.2419 8.89039 29.747 9.8718 30.1511 10.9254Z" fill="#19011F"/>
<path d="M29.3283 4.705C30.6276 4.705 31.6808 3.65174 31.6808 2.3525C31.6808 1.05325 30.6276 0 29.3283 0C28.0291 0 26.9758 1.05325 26.9758 2.3525C26.9758 3.65174 28.0291 4.705 29.3283 4.705Z" fill="#19011F"/>
<path d="M29.025 0.880453L29.6889 2.78554C29.7034 2.8144 29.6889 2.82884 29.6889 2.8577L29.1838 3.83911C29.1694 3.88241 29.1261 3.89684 29.0828 3.88241C29.0828 3.88241 29.0828 3.86798 29.0972 3.86798L29.6023 2.88657C29.6312 2.84327 29.6312 2.79997 29.6168 2.74224L28.9529 0.837152V0.822723C28.9673 0.822723 29.0106 0.837155 29.025 0.880453Z" fill="white"/>
<path d="M28.8375 3.82457L28.1881 1.96278C28.1736 1.93392 28.1881 1.91948 28.1881 1.89062L28.6788 0.865909C28.7076 0.793747 28.8087 0.80818 28.8375 0.880342L29.5014 2.78543C29.5158 2.81429 29.5014 2.82873 29.5014 2.85759L28.9963 3.839C28.9674 3.89673 28.8664 3.89673 28.8375 3.82457Z" fill="white"/>
<path d="M29.3569 3.69492L29.761 2.85783C29.7755 2.8434 29.7755 2.81453 29.761 2.78567L29.4291 1.81869C29.4147 1.77539 29.4435 1.71766 29.4868 1.70323L30.1219 1.48674C30.1652 1.47231 30.2229 1.50118 30.2373 1.54447L30.8291 3.24751C30.8435 3.2908 30.8146 3.34853 30.7713 3.36297L29.4724 3.81037C29.3858 3.83924 29.3136 3.76708 29.3569 3.69492Z" fill="white"/>
<path d="M24.3637 25.8486C24.3637 26.3826 24.1616 26.931 23.7575 27.3495C22.9349 28.2155 21.5638 28.2299 20.6978 27.4073C20.4525 27.1764 20.2793 26.8877 20.1638 26.5846C21.5782 26.397 22.9637 26.1516 24.3637 25.8486Z" fill="#19011F"/>
</svg>
