<svg width="109" height="12" viewBox="0 0 109 12" fill="none" xmlns="http://www.w3.org/2000/svg">
<g clip-path="url(#clip0_557_487)">
<path d="M36.8953 10.4523V5.86592C36.8953 4.1342 35.7883 2.97973 34.0065 2.95874C33.0682 2.94824 32.0982 3.23161 31.4235 4.26015C30.9174 3.45201 30.1162 2.95874 28.9986 2.95874C28.2184 2.95874 27.4488 3.18963 26.8478 4.03975V3.14765H25.2559V10.4523H26.8689V6.40117C26.8689 5.13125 27.5753 4.45956 28.6612 4.45956C29.7155 4.45956 30.2532 5.15224 30.2532 6.39068V10.4523H31.8663V6.40117C31.8663 5.13125 32.6043 4.45956 33.6586 4.45956C34.7445 4.45956 35.2717 5.15224 35.2717 6.39068V10.4523H36.8953ZM60.7646 3.14765H58.1499V0.922661H56.5368V3.14765H55.0503V4.59599H56.5368V7.93348C56.5368 9.63371 57.201 10.6413 59.0882 10.6413C59.7841 10.6413 60.5748 10.4313 61.0808 10.0745L60.617 8.71013C60.1425 8.983 59.6154 9.11944 59.2042 9.11944C58.4029 9.11944 58.1499 8.62616 58.1499 7.8915V4.59599H60.7646V3.14765ZM74.3755 2.95874C73.4583 2.95874 72.8573 3.38904 72.4356 4.02925V3.14765H70.8542V10.4523H72.4462V6.35919C72.4462 5.15224 72.9733 4.48055 74.0171 4.48055C74.3439 4.48055 74.6813 4.52253 75.0186 4.65897L75.5142 3.15815C75.1662 3.02171 74.7024 2.95874 74.3755 2.95874ZM53.7851 3.72489C53.0155 3.22112 51.9612 2.95874 50.7909 2.95874C48.9354 2.95874 47.7335 3.84034 47.7335 5.29917C47.7335 6.49563 48.6191 7.2303 50.2638 7.4507L51.0123 7.55565C51.8874 7.68159 52.2986 7.90199 52.2986 8.3218C52.2986 8.88855 51.7187 9.2034 50.6222 9.2034C49.5152 9.2034 48.714 8.84657 48.1763 8.43725L47.4277 9.67569C48.3028 10.3159 49.4098 10.6203 50.6117 10.6203C52.7308 10.6203 53.9643 9.62321 53.9643 8.23784C53.9643 6.95742 52.9944 6.28573 51.4024 6.05483L50.6539 5.94988C49.958 5.85542 49.4098 5.71898 49.4098 5.2362C49.4098 4.70095 49.9369 4.37559 50.812 4.37559C51.7503 4.37559 52.657 4.73243 53.0998 5.00531L53.7851 3.72489ZM96.5685 2.95874C95.6512 2.95874 95.0503 3.38904 94.6286 4.02925V3.14765H93.0471V10.4523H94.6391V6.35919C94.6391 5.15224 95.1662 4.48055 96.21 4.48055C96.5368 4.48055 96.8742 4.52253 97.2116 4.65897L97.7071 3.15815C97.3486 3.02171 96.8953 2.95874 96.5685 2.95874ZM75.9886 6.79999C75.9886 9.01449 77.5384 10.6413 79.9 10.6413C81.007 10.6413 81.7451 10.3999 82.5463 9.77015L81.7767 8.48973C81.1757 8.92003 80.5432 9.15093 79.8579 9.15093C78.5822 9.14043 77.6438 8.21685 77.6438 6.81049C77.6438 5.40413 78.5822 4.49104 79.8579 4.47005C80.5537 4.47005 81.1757 4.70095 81.7767 5.13125L82.5463 3.85083C81.7451 3.22112 81.007 2.97973 79.9 2.97973C77.549 2.95874 75.9886 4.5855 75.9886 6.79999ZM90.9491 6.79999V3.14765H89.3571V4.02925C88.851 3.36805 88.0814 2.95874 87.0376 2.95874C84.9817 2.95874 83.3687 4.56451 83.3687 6.79999C83.3687 9.03548 84.9817 10.6413 87.0376 10.6413C88.0814 10.6413 88.851 10.2319 89.3571 9.57074V10.4523H90.9491V6.79999ZM85.0028 6.79999C85.0028 5.51957 85.8463 4.45956 87.2274 4.45956C88.5453 4.45956 89.4414 5.4671 89.4414 6.79999C89.4414 8.13289 88.5558 9.14043 87.2274 9.14043C85.8463 9.14043 85.0028 8.08041 85.0028 6.79999ZM65.7303 2.95874C63.5795 2.95874 62.0719 4.52253 62.0719 6.79999C62.0719 9.11944 63.6428 10.6413 65.8357 10.6413C66.9427 10.6413 67.9549 10.3684 68.8405 9.61272L68.0603 8.43725C67.4488 8.93053 66.6581 9.2034 65.9306 9.2034C64.8974 9.2034 63.9696 8.73112 63.7377 7.41921H69.1884C69.1989 7.2198 69.22 7.02039 69.22 6.81049C69.2095 4.52253 67.7967 2.95874 65.7303 2.95874ZM65.7092 4.38609C66.7424 4.38609 67.3961 5.0263 67.5648 6.15978H63.7588C63.9274 5.09976 64.5706 4.38609 65.7092 4.38609ZM105.772 6.79999V0.208984H104.18V4.02925C103.674 3.36805 102.905 2.95874 101.861 2.95874C99.8051 2.95874 98.1921 4.56451 98.1921 6.79999C98.1921 9.03548 99.8051 10.6413 101.861 10.6413C102.905 10.6413 103.674 10.2319 104.18 9.57074V10.4523H105.772V6.79999ZM107.639 9.78064C107.702 9.78064 107.765 9.79114 107.818 9.81213C107.871 9.83312 107.923 9.8646 107.965 9.90658C108.008 9.94856 108.039 10.001 108.071 10.0535C108.092 10.106 108.113 10.169 108.113 10.2319C108.113 10.2949 108.102 10.3579 108.071 10.4104C108.05 10.4628 108.008 10.5153 107.965 10.5573C107.923 10.5993 107.871 10.6308 107.818 10.6622C107.765 10.6832 107.702 10.7042 107.639 10.7042C107.575 10.7042 107.512 10.6937 107.449 10.6622C107.386 10.6412 107.343 10.5993 107.301 10.5573C107.259 10.5153 107.227 10.4628 107.196 10.4104C107.175 10.3579 107.154 10.2949 107.154 10.2319C107.154 10.169 107.164 10.106 107.196 10.0535C107.217 10.001 107.259 9.94856 107.301 9.90658C107.343 9.8646 107.396 9.83312 107.449 9.81213C107.502 9.79114 107.565 9.78064 107.639 9.78064ZM107.639 10.5993C107.691 10.5993 107.733 10.5888 107.776 10.5678C107.818 10.5468 107.86 10.5258 107.892 10.4943C107.923 10.4628 107.955 10.4209 107.965 10.3789C107.986 10.3369 107.997 10.2844 107.997 10.2424C107.997 10.19 107.986 10.148 107.965 10.106C107.944 10.064 107.923 10.022 107.892 9.99055C107.86 9.95906 107.818 9.92757 107.776 9.91708C107.733 9.89609 107.681 9.88559 107.639 9.88559C107.586 9.88559 107.544 9.89609 107.491 9.91708C107.449 9.93807 107.407 9.95906 107.375 9.99055C107.343 10.022 107.312 10.064 107.301 10.106C107.28 10.148 107.27 10.2004 107.27 10.2424C107.27 10.2949 107.28 10.3369 107.301 10.3789C107.322 10.4209 107.343 10.4628 107.375 10.4943C107.407 10.5258 107.449 10.5573 107.491 10.5678C107.533 10.5888 107.586 10.5993 107.639 10.5993ZM107.66 10.022C107.712 10.022 107.755 10.0325 107.786 10.064C107.818 10.085 107.828 10.127 107.828 10.169C107.828 10.2004 107.818 10.2319 107.797 10.2529C107.776 10.2739 107.733 10.2949 107.691 10.2949L107.828 10.4523H107.712L107.586 10.2949H107.544V10.4523H107.449V10.022H107.66ZM107.554 10.106V10.2214H107.66C107.681 10.2214 107.702 10.2214 107.723 10.2109C107.733 10.2005 107.744 10.19 107.744 10.169C107.744 10.148 107.733 10.1375 107.723 10.127C107.712 10.1165 107.691 10.1165 107.66 10.1165H107.554V10.106ZM99.8262 6.79999C99.8262 5.51957 100.67 4.45956 102.051 4.45956C103.369 4.45956 104.265 5.4671 104.265 6.79999C104.265 8.13289 103.379 9.14043 102.051 9.14043C100.67 9.14043 99.8262 8.08041 99.8262 6.79999ZM45.899 6.79999V3.14765H44.307V4.02925C43.8009 3.36805 43.0313 2.95874 41.9875 2.95874C39.9317 2.95874 38.3186 4.56451 38.3186 6.79999C38.3186 9.03548 39.9317 10.6413 41.9875 10.6413C43.0313 10.6413 43.8009 10.2319 44.307 9.57074V10.4523H45.899V6.79999ZM39.9527 6.79999C39.9527 5.51957 40.7962 4.45956 42.1773 4.45956C43.4952 4.45956 44.3913 5.4671 44.3913 6.79999C44.3913 8.13289 43.5057 9.14043 42.1773 9.14043C40.7962 9.14043 39.9527 8.08041 39.9527 6.79999Z" fill="white"/>
</g>
<g clip-path="url(#clip1_557_487)">
<path d="M11.7688 1.39014H6.92969V10.0748H11.7688V1.39014Z" fill="#FF5F00"/>
<path d="M7.23596 5.73261C7.23596 4.04478 8.01944 2.43366 9.34061 1.39028C6.94408 -0.497023 3.47219 -0.0827376 1.58262 2.32626C-0.306952 4.71991 0.107832 8.18763 2.51972 10.0749C4.53219 11.6554 7.3435 11.6554 9.35597 10.0749C8.01944 9.03155 7.23596 7.42044 7.23596 5.73261Z" fill="#EB001B"/>
<path d="M18.2964 5.73261C18.2964 8.78605 15.823 11.2564 12.7659 11.2564C11.5216 11.2564 10.3233 10.8421 9.35547 10.0749C11.752 8.18763 12.1668 4.71991 10.2772 2.31091C10.0007 1.97335 9.69344 1.65112 9.35547 1.39028C11.752 -0.497023 15.2393 -0.0827376 17.1135 2.32626C17.8816 3.29292 18.2964 4.48975 18.2964 5.73261Z" fill="#F79E1B"/>
<path d="M17.7755 9.15427V8.97014H17.8523V8.93945H17.668V8.97014H17.7448V9.15427H17.7755ZM18.1288 9.15427V8.93945H18.0674L18.0059 9.09289L17.9445 8.93945H17.883V9.15427H17.9291V8.98548L17.9906 9.12358H18.0367L18.0981 8.98548V9.15427H18.1288Z" fill="#F79E1B"/>
</g>
<defs>
<clipPath id="clip0_557_487">
<rect width="82.8571" height="10.4952" fill="white" transform="translate(25.2559 0.208984)"/>
</clipPath>
<clipPath id="clip1_557_487">
<rect width="17.8971" height="11.0476" fill="white" transform="translate(0.400391 0.208984)"/>
</clipPath>
</defs>
</svg>
