<svg width="63" height="64" viewBox="0 0 63 64" fill="none" xmlns="http://www.w3.org/2000/svg">
<rect y="0.901733" width="62.8033" height="62.8033" rx="20" fill="#CE2A2A"/>
<path d="M48.9023 40.5983V19.4758C48.9023 17.3758 47.1873 15.8183 45.1048 15.9933H44.9998C41.3248 16.3083 35.7423 18.1808 32.6273 20.1408L32.3298 20.3333C31.8223 20.6483 30.9823 20.6483 30.4748 20.3333L30.0373 20.0708C26.9223 18.1283 21.3573 16.2733 17.6823 15.9758C15.5998 15.8008 13.9023 17.3758 13.9023 19.4583V40.5983C13.9023 42.2783 15.2673 43.8533 16.9473 44.0633L17.4548 44.1333C21.2523 44.6408 27.1148 46.5658 30.4748 48.4033L30.5448 48.4383C31.0173 48.7008 31.7698 48.7008 32.2248 48.4383C35.5848 46.5833 41.4648 44.6408 45.2798 44.1333L45.8573 44.0633C47.5373 43.8533 48.9023 42.2783 48.9023 40.5983Z" stroke="white" stroke-width="2.625" stroke-linecap="round" stroke-linejoin="round"/>
<path d="M31.4023 20.9109V47.1609" stroke="white" stroke-width="2.625" stroke-linecap="round" stroke-linejoin="round"/>
<path d="M23.9648 26.1609H20.0273" stroke="white" stroke-width="2.625" stroke-linecap="round" stroke-linejoin="round"/>
<path d="M25.2773 31.4109H20.0273" stroke="white" stroke-width="2.625" stroke-linecap="round" stroke-linejoin="round"/>
</svg>
