<svg width="562" height="425" viewBox="0 0 562 425" fill="none" xmlns="http://www.w3.org/2000/svg">
<g filter="url(#filter0_d_486_1874)">
<rect x="22" y="19" width="497.867" height="361" rx="8" fill="white"/>
<rect x="56.4336" y="41.6968" width="62.8033" height="62.8033" rx="20" fill="#328CE0"/>
<path d="M70.3359 66.9821H105.336" stroke="white" stroke-width="2.625" stroke-miterlimit="10" stroke-linecap="round" stroke-linejoin="round"/>
<path d="M77.3359 80.9821H80.8359" stroke="white" stroke-width="2.625" stroke-miterlimit="10" stroke-linecap="round" stroke-linejoin="round"/>
<path d="M85.2109 80.9821H92.2109" stroke="white" stroke-width="2.625" stroke-miterlimit="10" stroke-linecap="round" stroke-linejoin="round"/>
<path d="M78.1059 58.2321H97.5484C103.778 58.2321 105.336 59.7721 105.336 65.9146V80.2821C105.336 86.4246 103.778 87.9646 97.5659 87.9646H78.1059C71.8934 87.9821 70.3359 86.4421 70.3359 80.2996V65.9146C70.3359 59.7721 71.8934 58.2321 78.1059 58.2321Z" stroke="white" stroke-width="2.625" stroke-linecap="round" stroke-linejoin="round"/>
<path d="M155.228 65.5984H145.124V49.5184H154.772C158.06 49.5184 159.836 50.9104 159.836 53.4304C159.836 55.4224 158.78 56.8624 156.092 57.0544V57.2704C159.068 57.4864 160.508 58.9744 160.508 61.1344C160.508 63.8704 158.828 65.5984 155.228 65.5984ZM148.724 52.7584V55.9024H154.364C155.684 55.9024 156.236 55.4464 156.236 54.3424C156.236 53.2384 155.66 52.7584 154.316 52.7584H148.724ZM148.724 58.8784V62.3584H154.796C156.26 62.3584 156.86 61.9024 156.86 60.6064C156.86 59.3344 156.26 58.8784 154.796 58.8784H148.724ZM166.805 65.8384C163.421 65.8384 161.813 63.7504 161.813 61.0624V53.5744H165.413V59.8624C165.413 61.8064 166.229 62.6224 168.509 62.6224C170.861 62.6224 171.701 61.7104 171.701 59.6704V53.5744H175.301V65.5984H171.941V61.9264H171.749C171.437 63.9424 169.973 65.8384 166.805 65.8384ZM180.742 65.5984H177.142V49.5184H180.742V65.5984ZM186.226 65.5984H182.626V49.5184H186.226V58.0384H188.962L192.034 53.5744H196.306L191.914 59.3824L196.234 65.5984H191.986L188.986 61.2544H186.226V65.5984ZM204.484 65.5984H200.884V49.5184H209.284C213.004 49.5184 215.404 51.6304 215.404 55.3264C215.404 59.0224 213.004 61.1584 209.284 61.1584H204.484V65.5984ZM208.9 52.7584H204.484V57.9184H208.9C210.892 57.9184 211.828 57.3424 211.828 55.3264C211.828 53.3584 210.892 52.7584 208.9 52.7584ZM220.377 65.8384C217.785 65.8384 216.225 64.6384 216.225 62.6224C216.225 60.8464 217.545 59.7424 220.113 59.4784L225.273 58.9504V58.4944C225.273 56.9344 224.577 56.5024 222.657 56.5024C220.833 56.5024 220.089 56.9824 220.089 58.3504V58.4464H216.465V58.3744C216.465 55.3984 218.961 53.3344 222.921 53.3344C226.929 53.3344 228.825 55.3984 228.825 58.5424V65.5984H225.465V62.8384H225.273C224.721 64.7104 223.041 65.8384 220.377 65.8384ZM219.849 62.3824C219.849 63.0304 220.353 63.2944 221.409 63.2944C223.857 63.2944 225.177 62.7184 225.273 61.0144L221.097 61.4944C220.233 61.5664 219.849 61.8064 219.849 62.3824ZM232.953 69.6784H230.985V66.4144H233.937C234.825 66.4144 235.209 66.1744 235.449 65.6464L229.569 53.5744H233.649L236.193 59.0704L237.201 61.9024H237.441L238.401 59.0464L240.681 53.5744H244.689L238.737 66.4624C237.585 68.9824 235.977 69.6784 232.953 69.6784ZM249.156 65.5984H245.556V53.5744H248.892V57.2224H249.084C249.372 55.2064 250.572 53.3344 253.596 53.3344C256.38 53.3344 257.796 55.0384 258.06 57.2704H258.276C258.564 55.2304 259.788 53.3344 262.884 53.3344C265.98 53.3344 267.492 55.3744 267.492 58.1104V65.5984H263.892V59.3104C263.892 57.3184 263.196 56.5744 261.132 56.5744C258.948 56.5744 258.324 57.4384 258.324 59.5264V65.5984H254.724V59.3104C254.724 57.3184 254.028 56.5744 251.964 56.5744C249.78 56.5744 249.156 57.4384 249.156 59.5264V65.5984ZM275.705 65.8384C271.697 65.8384 268.961 63.8704 268.961 59.5984C268.961 55.7584 271.673 53.3344 275.633 53.3344C279.569 53.3344 282.185 55.3984 282.185 59.1664C282.185 59.5984 282.137 59.9104 282.089 60.3184H272.297C272.393 62.1664 273.257 62.9584 275.585 62.9584C277.721 62.9584 278.465 62.4064 278.465 61.3744V61.1344H282.065V61.3984C282.065 64.0144 279.521 65.8384 275.705 65.8384ZM275.561 56.1424C273.425 56.1424 272.513 56.8624 272.345 58.4224H278.729C278.633 56.8384 277.673 56.1424 275.561 56.1424ZM287.312 65.5984H283.712V53.5744H287.048V57.2704H287.264C287.576 55.2544 289.016 53.3344 292.16 53.3344C295.448 53.3344 297.008 55.4464 297.008 58.1104V65.5984H293.408V59.3104C293.408 57.3904 292.616 56.5744 290.408 56.5744C288.128 56.5744 287.312 57.4864 287.312 59.5264V65.5984ZM307.301 65.5984H304.325C301.517 65.5984 299.813 64.2784 299.813 61.2544V56.5504H297.917V53.5744H299.813V51.2464H303.413V53.5744H307.301V56.5504H303.413V60.8464C303.413 62.0464 303.869 62.3584 305.141 62.3584H307.301V65.5984Z" fill="black"/>
<path d="M157.65 99.5984H155.807V92.3484C155.807 91.7546 155.843 91.0281 155.916 90.1687H155.885C155.77 90.6583 155.669 91.0098 155.58 91.2234L152.236 99.5984H150.955L147.604 91.2859C147.51 91.0411 147.411 90.6687 147.307 90.1687H147.275C147.317 90.6166 147.338 91.3484 147.338 92.364V99.5984H145.619V88.3953H148.236L151.182 95.8562C151.406 96.4291 151.551 96.8562 151.619 97.1375H151.658C151.851 96.5489 152.007 96.1114 152.127 95.825L155.127 88.3953H157.65V99.5984ZM166.354 99.5984H164.596V98.3484H164.564C164.012 99.3067 163.202 99.7859 162.135 99.7859C161.348 99.7859 160.731 99.5723 160.283 99.1453C159.84 98.7182 159.619 98.1531 159.619 97.45C159.619 95.9395 160.489 95.0593 162.229 94.8093L164.604 94.4734C164.604 93.3328 164.062 92.7625 162.979 92.7625C162.025 92.7625 161.166 93.0906 160.4 93.7468V92.1609C161.244 91.6609 162.218 91.4109 163.322 91.4109C165.343 91.4109 166.354 92.4057 166.354 94.3953V99.5984ZM164.604 95.6687L162.924 95.9031C162.403 95.9708 162.01 96.0984 161.744 96.2859C161.484 96.4682 161.354 96.7911 161.354 97.2546C161.354 97.5932 161.473 97.8718 161.713 98.0906C161.958 98.3041 162.283 98.4109 162.689 98.4109C163.242 98.4109 163.697 98.2182 164.057 97.8328C164.421 97.4421 164.604 96.9526 164.604 96.364V95.6687ZM175.83 99.5984H173.533L170.424 95.7546H170.393V99.5984H168.572V87.7546H170.393V95.2625H170.424L173.361 91.5984H175.541L172.236 95.4578L175.83 99.5984ZM183.471 96.0906H178.018C178.038 96.8302 178.265 97.4005 178.697 97.8015C179.135 98.2026 179.734 98.4031 180.494 98.4031C181.348 98.4031 182.132 98.1479 182.846 97.6375V99.0984C182.117 99.5567 181.153 99.7859 179.955 99.7859C178.778 99.7859 177.854 99.4239 177.182 98.7C176.515 97.9708 176.182 96.9473 176.182 95.6296C176.182 94.3848 176.549 93.3718 177.283 92.5906C178.023 91.8041 178.939 91.4109 180.033 91.4109C181.127 91.4109 181.973 91.7625 182.572 92.4656C183.171 93.1687 183.471 94.1453 183.471 95.3953V96.0906ZM181.721 94.8093C181.715 94.1583 181.562 93.6531 181.26 93.2937C180.958 92.9291 180.541 92.7468 180.01 92.7468C179.489 92.7468 179.046 92.9369 178.682 93.3171C178.322 93.6973 178.101 94.1947 178.018 94.8093H181.721ZM191.447 98.4421H191.416V99.5984H189.604V87.7546H191.416V93.0046H191.447C192.067 91.9421 192.973 91.4109 194.166 91.4109C195.176 91.4109 195.965 91.7703 196.533 92.489C197.106 93.2026 197.393 94.1609 197.393 95.364C197.393 96.7026 197.072 97.7755 196.432 98.5828C195.791 99.3848 194.916 99.7859 193.807 99.7859C192.765 99.7859 191.979 99.338 191.447 98.4421ZM191.4 95.2625V96.2546C191.4 96.838 191.585 97.3328 191.955 97.739C192.33 98.1453 192.804 98.3484 193.377 98.3484C194.049 98.3484 194.575 98.088 194.955 97.5671C195.34 97.0411 195.533 96.3093 195.533 95.3718C195.533 94.5854 195.354 93.9708 194.994 93.5281C194.64 93.0802 194.158 92.8562 193.549 92.8562C192.903 92.8562 192.382 93.0854 191.986 93.5437C191.596 94.002 191.4 94.575 191.4 95.2625ZM206.221 99.5984H204.408V98.3328H204.377C203.851 99.3015 203.033 99.7859 201.924 99.7859C200.033 99.7859 199.088 98.6505 199.088 96.3796V91.5984H200.9V96.1921C200.9 97.6296 201.455 98.3484 202.564 98.3484C203.101 98.3484 203.541 98.1505 203.885 97.7546C204.234 97.3588 204.408 96.8406 204.408 96.2V91.5984H206.221V99.5984ZM210.408 99.5984H208.588V87.7546H210.408V99.5984ZM220.033 99.5984H217.736L214.627 95.7546H214.596V99.5984H212.775V87.7546H214.596V95.2625H214.627L217.564 91.5984H219.744L216.439 95.4578L220.033 99.5984ZM227.432 98.4187H227.4V103.278H225.588V91.5984H227.4V93.0046H227.432C228.051 91.9421 228.958 91.4109 230.15 91.4109C231.166 91.4109 231.958 91.7677 232.525 92.4812C233.093 93.1947 233.377 94.1531 233.377 95.3562C233.377 96.6895 233.057 97.7572 232.416 98.5593C231.775 99.3614 230.9 99.7625 229.791 99.7625C228.77 99.7625 227.984 99.3145 227.432 98.4187ZM227.385 95.2625V96.2546C227.385 96.838 227.57 97.3328 227.939 97.739C228.314 98.1453 228.788 98.3484 229.361 98.3484C230.033 98.3484 230.559 98.088 230.939 97.5671C231.325 97.0411 231.518 96.3093 231.518 95.3718C231.518 94.5854 231.338 93.9708 230.979 93.5281C230.624 93.0802 230.143 92.8562 229.533 92.8562C228.887 92.8562 228.367 93.0854 227.971 93.5437C227.58 94.002 227.385 94.575 227.385 95.2625ZM241.182 99.5984H239.424V98.3484H239.393C238.84 99.3067 238.031 99.7859 236.963 99.7859C236.176 99.7859 235.559 99.5723 235.111 99.1453C234.669 98.7182 234.447 98.1531 234.447 97.45C234.447 95.9395 235.317 95.0593 237.057 94.8093L239.432 94.4734C239.432 93.3328 238.89 92.7625 237.807 92.7625C236.854 92.7625 235.994 93.0906 235.229 93.7468V92.1609C236.072 91.6609 237.046 91.4109 238.15 91.4109C240.171 91.4109 241.182 92.4057 241.182 94.3953V99.5984ZM239.432 95.6687L237.752 95.9031C237.231 95.9708 236.838 96.0984 236.572 96.2859C236.312 96.4682 236.182 96.7911 236.182 97.2546C236.182 97.5932 236.301 97.8718 236.541 98.0906C236.786 98.3041 237.111 98.4109 237.518 98.4109C238.07 98.4109 238.525 98.2182 238.885 97.8328C239.249 97.4421 239.432 96.9526 239.432 96.364V95.6687ZM250.33 91.5984L246.721 100.88C245.971 102.536 244.919 103.364 243.564 103.364C243.184 103.364 242.867 103.33 242.611 103.262V101.755C242.898 101.848 243.158 101.895 243.393 101.895C244.07 101.895 244.575 101.562 244.908 100.895L245.447 99.5828L242.268 91.5984H244.275L246.182 97.4109C246.202 97.4838 246.249 97.6765 246.322 97.989H246.361C246.387 97.8692 246.434 97.6817 246.502 97.4265L248.502 91.5984H250.33ZM263.502 99.5984H261.689V95.239C261.689 94.4005 261.57 93.7937 261.33 93.4187C261.096 93.0437 260.697 92.8562 260.135 92.8562C259.661 92.8562 259.257 93.0932 258.924 93.5671C258.596 94.0411 258.432 94.6088 258.432 95.2703V99.5984H256.611V95.0906C256.611 93.601 256.085 92.8562 255.033 92.8562C254.544 92.8562 254.14 93.0802 253.822 93.5281C253.51 93.976 253.354 94.5567 253.354 95.2703V99.5984H251.541V91.5984H253.354V92.864H253.385C253.963 91.8953 254.804 91.4109 255.908 91.4109C256.46 91.4109 256.942 91.5645 257.354 91.8718C257.77 92.1739 258.054 92.5723 258.205 93.0671C258.799 91.963 259.684 91.4109 260.861 91.4109C262.622 91.4109 263.502 92.4968 263.502 94.6687V99.5984ZM272.486 96.0906H267.033C267.054 96.8302 267.281 97.4005 267.713 97.8015C268.15 98.2026 268.749 98.4031 269.51 98.4031C270.364 98.4031 271.148 98.1479 271.861 97.6375V99.0984C271.132 99.5567 270.169 99.7859 268.971 99.7859C267.794 99.7859 266.869 99.4239 266.197 98.7C265.531 97.9708 265.197 96.9473 265.197 95.6296C265.197 94.3848 265.564 93.3718 266.299 92.5906C267.038 91.8041 267.955 91.4109 269.049 91.4109C270.143 91.4109 270.989 91.7625 271.588 92.4656C272.187 93.1687 272.486 94.1453 272.486 95.3953V96.0906ZM270.736 94.8093C270.731 94.1583 270.577 93.6531 270.275 93.2937C269.973 92.9291 269.557 92.7468 269.025 92.7468C268.505 92.7468 268.062 92.9369 267.697 93.3171C267.338 93.6973 267.117 94.1947 267.033 94.8093H270.736ZM281.338 99.5984H279.525V95.0906C279.525 93.5958 278.997 92.8484 277.939 92.8484C277.387 92.8484 276.932 93.0567 276.572 93.4734C276.213 93.8848 276.033 94.4057 276.033 95.0359V99.5984H274.213V91.5984H276.033V92.9265H276.064C276.663 91.9161 277.528 91.4109 278.658 91.4109C279.528 91.4109 280.192 91.6947 280.65 92.2625C281.109 92.825 281.338 93.6401 281.338 94.7078V99.5984ZM287.775 99.5125C287.421 99.6895 286.955 99.7781 286.377 99.7781C284.825 99.7781 284.049 99.0333 284.049 97.5437V93.0203H282.713V91.5984H284.049V89.7468L285.861 89.2312V91.5984H287.775V93.0203H285.861V97.0203C285.861 97.4942 285.947 97.8328 286.119 98.0359C286.291 98.239 286.577 98.3406 286.979 98.3406C287.286 98.3406 287.551 98.252 287.775 98.075V99.5125ZM288.838 99.3484V97.6687C289.515 98.1843 290.262 98.4421 291.08 98.4421C292.174 98.4421 292.721 98.1192 292.721 97.4734C292.721 97.2911 292.674 97.1375 292.58 97.0125C292.486 96.8822 292.359 96.7677 292.197 96.6687C292.041 96.5697 291.854 96.4812 291.635 96.4031C291.421 96.325 291.182 96.2364 290.916 96.1375C290.588 96.0072 290.291 95.8692 290.025 95.7234C289.765 95.5776 289.546 95.4135 289.369 95.2312C289.197 95.0437 289.067 94.8328 288.979 94.5984C288.89 94.364 288.846 94.0906 288.846 93.7781C288.846 93.3927 288.937 93.0541 289.119 92.7625C289.301 92.4656 289.546 92.2182 289.854 92.0203C290.161 91.8171 290.51 91.6661 290.9 91.5671C291.291 91.463 291.695 91.4109 292.111 91.4109C292.851 91.4109 293.512 91.5229 294.096 91.7468V93.3328C293.533 92.9473 292.887 92.7546 292.158 92.7546C291.929 92.7546 291.721 92.7781 291.533 92.825C291.351 92.8718 291.195 92.9369 291.064 93.0203C290.934 93.1036 290.833 93.2052 290.76 93.325C290.687 93.4395 290.65 93.5671 290.65 93.7078C290.65 93.8796 290.687 94.0255 290.76 94.1453C290.833 94.2651 290.939 94.3718 291.08 94.4656C291.226 94.5541 291.398 94.6375 291.596 94.7156C291.799 94.7885 292.031 94.8692 292.291 94.9578C292.635 95.0984 292.942 95.2416 293.213 95.3875C293.489 95.5333 293.723 95.7 293.916 95.8875C294.109 96.0697 294.257 96.2833 294.361 96.5281C294.465 96.7677 294.518 97.0541 294.518 97.3875C294.518 97.7937 294.424 98.1479 294.236 98.45C294.049 98.752 293.799 99.002 293.486 99.2C293.174 99.3979 292.812 99.5437 292.4 99.6375C291.994 99.7364 291.564 99.7859 291.111 99.7859C290.236 99.7859 289.479 99.6401 288.838 99.3484ZM311.408 91.5984L309.049 99.5984H307.15L305.697 94.1765C305.64 93.9682 305.604 93.7338 305.588 93.4734H305.557C305.546 93.6505 305.499 93.8796 305.416 94.1609L303.838 99.5984H301.979L299.627 91.5984H301.502L302.955 97.364C303.002 97.5359 303.033 97.7651 303.049 98.0515H303.104C303.119 97.8328 303.161 97.5984 303.229 97.3484L304.846 91.5984H306.549L307.986 97.3875C308.033 97.5697 308.067 97.7989 308.088 98.075H308.143C308.153 97.8822 308.192 97.6531 308.26 97.3875L309.682 91.5984H311.408ZM313.674 89.9187C313.377 89.9187 313.122 89.8223 312.908 89.6296C312.7 89.4369 312.596 89.1921 312.596 88.8953C312.596 88.5984 312.7 88.351 312.908 88.1531C313.122 87.9552 313.377 87.8562 313.674 87.8562C313.981 87.8562 314.242 87.9552 314.455 88.1531C314.669 88.351 314.775 88.5984 314.775 88.8953C314.775 89.1765 314.669 89.4187 314.455 89.6218C314.242 89.8197 313.981 89.9187 313.674 89.9187ZM314.572 99.5984H312.76V91.5984H314.572V99.5984ZM321.166 99.5125C320.812 99.6895 320.346 99.7781 319.768 99.7781C318.215 99.7781 317.439 99.0333 317.439 97.5437V93.0203H316.104V91.5984H317.439V89.7468L319.252 89.2312V91.5984H321.166V93.0203H319.252V97.0203C319.252 97.4942 319.338 97.8328 319.51 98.0359C319.682 98.239 319.968 98.3406 320.369 98.3406C320.676 98.3406 320.942 98.252 321.166 98.075V99.5125ZM329.838 99.5984H328.025V95.2234C328.025 93.6401 327.497 92.8484 326.439 92.8484C325.908 92.8484 325.46 93.0776 325.096 93.5359C324.731 93.9942 324.549 94.5802 324.549 95.2937V99.5984H322.729V87.7546H324.549V92.9265H324.58C325.184 91.9161 326.049 91.4109 327.174 91.4109C328.95 91.4109 329.838 92.4968 329.838 94.6687V99.5984ZM343.221 96.0906H337.768C337.788 96.8302 338.015 97.4005 338.447 97.8015C338.885 98.2026 339.484 98.4031 340.244 98.4031C341.098 98.4031 341.882 98.1479 342.596 97.6375V99.0984C341.867 99.5567 340.903 99.7859 339.705 99.7859C338.528 99.7859 337.604 99.4239 336.932 98.7C336.265 97.9708 335.932 96.9473 335.932 95.6296C335.932 94.3848 336.299 93.3718 337.033 92.5906C337.773 91.8041 338.689 91.4109 339.783 91.4109C340.877 91.4109 341.723 91.7625 342.322 92.4656C342.921 93.1687 343.221 94.1453 343.221 95.3953V96.0906ZM341.471 94.8093C341.465 94.1583 341.312 93.6531 341.01 93.2937C340.708 92.9291 340.291 92.7468 339.76 92.7468C339.239 92.7468 338.796 92.9369 338.432 93.3171C338.072 93.6973 337.851 94.1947 337.768 94.8093H341.471ZM351.088 99.5984H349.33V98.3484H349.299C348.747 99.3067 347.937 99.7859 346.869 99.7859C346.083 99.7859 345.465 99.5723 345.018 99.1453C344.575 98.7182 344.354 98.1531 344.354 97.45C344.354 95.9395 345.223 95.0593 346.963 94.8093L349.338 94.4734C349.338 93.3328 348.796 92.7625 347.713 92.7625C346.76 92.7625 345.9 93.0906 345.135 93.7468V92.1609C345.979 91.6609 346.952 91.4109 348.057 91.4109C350.077 91.4109 351.088 92.4057 351.088 94.3953V99.5984ZM349.338 95.6687L347.658 95.9031C347.137 95.9708 346.744 96.0984 346.479 96.2859C346.218 96.4682 346.088 96.7911 346.088 97.2546C346.088 97.5932 346.208 97.8718 346.447 98.0906C346.692 98.3041 347.018 98.4109 347.424 98.4109C347.976 98.4109 348.432 98.2182 348.791 97.8328C349.156 97.4421 349.338 96.9526 349.338 96.364V95.6687ZM352.807 99.3484V97.6687C353.484 98.1843 354.231 98.4421 355.049 98.4421C356.143 98.4421 356.689 98.1192 356.689 97.4734C356.689 97.2911 356.643 97.1375 356.549 97.0125C356.455 96.8822 356.327 96.7677 356.166 96.6687C356.01 96.5697 355.822 96.4812 355.604 96.4031C355.39 96.325 355.15 96.2364 354.885 96.1375C354.557 96.0072 354.26 95.8692 353.994 95.7234C353.734 95.5776 353.515 95.4135 353.338 95.2312C353.166 95.0437 353.036 94.8328 352.947 94.5984C352.859 94.364 352.814 94.0906 352.814 93.7781C352.814 93.3927 352.906 93.0541 353.088 92.7625C353.27 92.4656 353.515 92.2182 353.822 92.0203C354.13 91.8171 354.479 91.6661 354.869 91.5671C355.26 91.463 355.663 91.4109 356.08 91.4109C356.82 91.4109 357.481 91.5229 358.064 91.7468V93.3328C357.502 92.9473 356.856 92.7546 356.127 92.7546C355.898 92.7546 355.689 92.7781 355.502 92.825C355.32 92.8718 355.163 92.9369 355.033 93.0203C354.903 93.1036 354.801 93.2052 354.729 93.325C354.656 93.4395 354.619 93.5671 354.619 93.7078C354.619 93.8796 354.656 94.0255 354.729 94.1453C354.801 94.2651 354.908 94.3718 355.049 94.4656C355.195 94.5541 355.367 94.6375 355.564 94.7156C355.768 94.7885 355.999 94.8692 356.26 94.9578C356.604 95.0984 356.911 95.2416 357.182 95.3875C357.458 95.5333 357.692 95.7 357.885 95.8875C358.077 96.0697 358.226 96.2833 358.33 96.5281C358.434 96.7677 358.486 97.0541 358.486 97.3875C358.486 97.7937 358.393 98.1479 358.205 98.45C358.018 98.752 357.768 99.002 357.455 99.2C357.143 99.3979 356.781 99.5437 356.369 99.6375C355.963 99.7364 355.533 99.7859 355.08 99.7859C354.205 99.7859 353.447 99.6401 352.807 99.3484ZM366.986 96.0906H361.533C361.554 96.8302 361.781 97.4005 362.213 97.8015C362.65 98.2026 363.249 98.4031 364.01 98.4031C364.864 98.4031 365.648 98.1479 366.361 97.6375V99.0984C365.632 99.5567 364.669 99.7859 363.471 99.7859C362.294 99.7859 361.369 99.4239 360.697 98.7C360.031 97.9708 359.697 96.9473 359.697 95.6296C359.697 94.3848 360.064 93.3718 360.799 92.5906C361.538 91.8041 362.455 91.4109 363.549 91.4109C364.643 91.4109 365.489 91.7625 366.088 92.4656C366.687 93.1687 366.986 94.1453 366.986 95.3953V96.0906ZM365.236 94.8093C365.231 94.1583 365.077 93.6531 364.775 93.2937C364.473 92.9291 364.057 92.7468 363.525 92.7468C363.005 92.7468 362.562 92.9369 362.197 93.3171C361.838 93.6973 361.617 94.1947 361.533 94.8093H365.236Z" fill="black"/>
<circle cx="503.736" cy="73.0984" r="13" stroke="#7C7C7C"/>
<rect x="56.4336" y="153.5" width="62.8033" height="62.8033" rx="20" fill="#E0C432"/>
<path d="M82.5859 178.568H90.784C92.6013 178.568 94.0754 180.204 94.0754 181.859C94.0754 183.677 92.6013 185.151 90.784 185.151H82.5859V178.568Z" stroke="#F9F9F9" stroke-width="2.625" stroke-miterlimit="10" stroke-linecap="round" stroke-linejoin="round"/>
<path d="M82.5859 185.13H91.9552C94.035 185.13 95.711 186.605 95.711 188.422C95.711 190.239 94.035 191.713 91.9552 191.713H82.5859V185.13Z" stroke="#F9F9F9" stroke-width="2.625" stroke-miterlimit="10" stroke-linecap="round" stroke-linejoin="round"/>
<path d="M88.3203 191.693V194.984" stroke="#F9F9F9" stroke-width="2.625" stroke-miterlimit="10" stroke-linecap="round" stroke-linejoin="round"/>
<path d="M84.2207 191.693V194.984" stroke="#F9F9F9" stroke-width="2.625" stroke-miterlimit="10" stroke-linecap="round" stroke-linejoin="round"/>
<path d="M88.3203 175.277V178.568" stroke="#F9F9F9" stroke-width="2.625" stroke-miterlimit="10" stroke-linecap="round" stroke-linejoin="round"/>
<path d="M84.2207 175.277V178.568" stroke="#F9F9F9" stroke-width="2.625" stroke-miterlimit="10" stroke-linecap="round" stroke-linejoin="round"/>
<path d="M85.6956 178.568H79.9609" stroke="#F9F9F9" stroke-width="2.625" stroke-miterlimit="10" stroke-linecap="round" stroke-linejoin="round"/>
<path d="M85.6956 191.693H79.9609" stroke="#F9F9F9" stroke-width="2.625" stroke-miterlimit="10" stroke-linecap="round" stroke-linejoin="round"/>
<path d="M87.8359 202.402C97.5009 202.402 105.336 194.567 105.336 184.902C105.336 175.237 97.5009 167.402 87.8359 167.402C78.171 167.402 70.3359 175.237 70.3359 184.902C70.3359 194.567 78.171 202.402 87.8359 202.402Z" stroke="#F9F9F9" stroke-width="2.625" stroke-miterlimit="10"/>
<path d="M148.796 177.402H145.196V161.322H153.596C157.316 161.322 159.716 163.434 159.716 167.13C159.716 170.826 157.316 172.962 153.596 172.962H148.796V177.402ZM153.212 164.562H148.796V169.722H153.212C155.204 169.722 156.14 169.146 156.14 167.13C156.14 165.162 155.204 164.562 153.212 164.562ZM164.689 177.642C162.097 177.642 160.537 176.442 160.537 174.426C160.537 172.65 161.857 171.546 164.425 171.282L169.585 170.754V170.298C169.585 168.738 168.889 168.306 166.969 168.306C165.145 168.306 164.401 168.786 164.401 170.154V170.25H160.777V170.178C160.777 167.202 163.273 165.138 167.233 165.138C171.241 165.138 173.137 167.202 173.137 170.346V177.402H169.777V174.642H169.585C169.033 176.514 167.353 177.642 164.689 177.642ZM164.161 174.186C164.161 174.834 164.665 175.098 165.721 175.098C168.169 175.098 169.489 174.522 169.585 172.818L165.409 173.298C164.545 173.37 164.161 173.61 164.161 174.186ZM177.266 181.482H175.298V178.218H178.25C179.138 178.218 179.522 177.978 179.762 177.45L173.882 165.378H177.962L180.506 170.874L181.514 173.706H181.754L182.714 170.85L184.994 165.378H189.002L183.05 178.266C181.898 180.786 180.29 181.482 177.266 181.482ZM193.468 177.402H189.868V165.378H193.204V169.026H193.396C193.684 167.01 194.884 165.138 197.908 165.138C200.692 165.138 202.108 166.842 202.372 169.074H202.588C202.876 167.034 204.1 165.138 207.196 165.138C210.292 165.138 211.804 167.178 211.804 169.914V177.402H208.204V171.114C208.204 169.122 207.508 168.378 205.444 168.378C203.26 168.378 202.636 169.242 202.636 171.33V177.402H199.036V171.114C199.036 169.122 198.34 168.378 196.276 168.378C194.092 168.378 193.468 169.242 193.468 171.33V177.402ZM220.018 177.642C216.01 177.642 213.274 175.674 213.274 171.402C213.274 167.562 215.986 165.138 219.946 165.138C223.882 165.138 226.498 167.202 226.498 170.97C226.498 171.402 226.45 171.714 226.402 172.122H216.61C216.706 173.97 217.57 174.762 219.898 174.762C222.034 174.762 222.778 174.21 222.778 173.178V172.938H226.378V173.202C226.378 175.818 223.834 177.642 220.018 177.642ZM219.874 167.946C217.738 167.946 216.826 168.666 216.658 170.226H223.042C222.946 168.642 221.986 167.946 219.874 167.946ZM231.624 177.402H228.024V165.378H231.36V169.074H231.576C231.888 167.058 233.328 165.138 236.472 165.138C239.76 165.138 241.32 167.25 241.32 169.914V177.402H237.72V171.114C237.72 169.194 236.928 168.378 234.72 168.378C232.44 168.378 231.624 169.29 231.624 171.33V177.402ZM251.614 177.402H248.638C245.83 177.402 244.126 176.082 244.126 173.058V168.354H242.23V165.378H244.126V163.05H247.726V165.378H251.614V168.354H247.726V172.65C247.726 173.85 248.182 174.162 249.454 174.162H251.614V177.402ZM265.617 177.402H261.177L255.705 165.378H259.713L263.313 173.898H263.553L267.177 165.378H271.113L265.617 177.402ZM275.664 164.154H272.064V161.322H275.664V164.154ZM275.664 177.402H272.064V165.378H275.664V177.402ZM281.244 177.642C278.652 177.642 277.092 176.442 277.092 174.426C277.092 172.65 278.412 171.546 280.98 171.282L286.14 170.754V170.298C286.14 168.738 285.444 168.306 283.524 168.306C281.7 168.306 280.956 168.786 280.956 170.154V170.25H277.332V170.178C277.332 167.202 279.828 165.138 283.788 165.138C287.796 165.138 289.692 167.202 289.692 170.346V177.402H286.332V174.642H286.14C285.588 176.514 283.908 177.642 281.244 177.642ZM280.716 174.186C280.716 174.834 281.22 175.098 282.276 175.098C284.724 175.098 286.044 174.522 286.14 172.818L281.964 173.298C281.1 173.37 280.716 173.61 280.716 174.186ZM298.82 177.402H295.22V161.322H298.82V177.402ZM304.304 164.154H300.704V161.322H304.304V164.154ZM304.304 177.402H300.704V165.378H304.304V177.402ZM309.789 177.402H306.189V165.378H309.525V169.074H309.741C310.053 167.058 311.493 165.138 314.637 165.138C317.925 165.138 319.485 167.25 319.485 169.914V177.402H315.885V171.114C315.885 169.194 315.093 168.378 312.885 168.378C310.605 168.378 309.789 169.29 309.789 171.33V177.402ZM324.906 177.402H321.306V161.322H324.906V169.842H327.642L330.714 165.378H334.986L330.594 171.186L334.914 177.402H330.666L327.666 173.058H324.906V177.402ZM341.932 177.642C337.876 177.642 335.644 176.058 335.644 173.274V173.202H339.244V173.418C339.244 174.498 339.916 174.786 341.956 174.786C343.876 174.786 344.332 174.474 344.332 173.754C344.332 173.082 343.972 172.89 342.556 172.698L339.172 172.29C336.772 172.026 335.428 170.946 335.428 168.93C335.428 166.818 337.228 165.138 341.356 165.138C345.292 165.138 347.524 166.626 347.524 169.554V169.626H343.924V169.482C343.924 168.498 343.444 167.994 341.236 167.994C339.436 167.994 338.98 168.306 338.98 169.074C338.98 169.698 339.316 169.962 340.9 170.154L343.468 170.466C346.684 170.826 347.884 171.906 347.884 173.898C347.884 176.154 345.652 177.642 341.932 177.642Z" fill="black"/>
<path d="M154.275 211.402H152.104L150.314 208.402C150.153 208.126 149.994 207.891 149.838 207.698C149.687 207.501 149.531 207.339 149.369 207.214C149.213 207.089 149.041 206.998 148.854 206.941C148.666 206.883 148.455 206.855 148.221 206.855H147.471V211.402H145.619V200.198H149.307C149.833 200.198 150.317 200.261 150.76 200.386C151.202 200.511 151.588 200.701 151.916 200.956C152.244 201.206 152.499 201.521 152.682 201.902C152.869 202.277 152.963 202.717 152.963 203.222C152.963 203.618 152.903 203.982 152.783 204.316C152.669 204.644 152.502 204.938 152.283 205.198C152.07 205.454 151.809 205.672 151.502 205.855C151.2 206.037 150.859 206.178 150.479 206.277V206.308C150.682 206.422 150.859 206.55 151.01 206.691C151.161 206.826 151.304 206.967 151.439 207.113C151.575 207.258 151.708 207.425 151.838 207.613C151.973 207.795 152.122 208.008 152.283 208.253L154.275 211.402ZM147.471 201.706V205.347H149.018C149.304 205.347 149.567 205.303 149.807 205.214C150.051 205.126 150.262 204.998 150.439 204.831C150.617 204.665 150.755 204.462 150.854 204.222C150.952 203.982 151.002 203.714 151.002 203.417C151.002 202.881 150.833 202.462 150.494 202.159C150.156 201.857 149.669 201.706 149.033 201.706H147.471ZM161.736 207.894H156.283C156.304 208.633 156.531 209.204 156.963 209.605C157.4 210.006 157.999 210.206 158.76 210.206C159.614 210.206 160.398 209.951 161.111 209.441V210.902C160.382 211.36 159.419 211.589 158.221 211.589C157.044 211.589 156.119 211.227 155.447 210.503C154.781 209.774 154.447 208.751 154.447 207.433C154.447 206.188 154.814 205.175 155.549 204.394C156.288 203.607 157.205 203.214 158.299 203.214C159.393 203.214 160.239 203.566 160.838 204.269C161.437 204.972 161.736 205.948 161.736 207.198V207.894ZM159.986 206.613C159.981 205.962 159.827 205.456 159.525 205.097C159.223 204.732 158.807 204.55 158.275 204.55C157.755 204.55 157.312 204.74 156.947 205.12C156.588 205.501 156.367 205.998 156.283 206.613H159.986ZM169.189 211.034C168.549 211.404 167.791 211.589 166.916 211.589C165.729 211.589 164.77 211.219 164.041 210.48C163.312 209.735 162.947 208.771 162.947 207.589C162.947 206.271 163.338 205.214 164.119 204.417C164.906 203.615 165.955 203.214 167.268 203.214C167.997 203.214 168.64 203.342 169.197 203.597V205.284C168.64 204.868 168.046 204.659 167.416 204.659C166.65 204.659 166.023 204.92 165.533 205.441C165.044 205.956 164.799 206.633 164.799 207.472C164.799 208.3 165.028 208.954 165.486 209.433C165.95 209.912 166.57 210.152 167.346 210.152C167.997 210.152 168.611 209.92 169.189 209.456V211.034ZM177.768 207.894H172.314C172.335 208.633 172.562 209.204 172.994 209.605C173.432 210.006 174.031 210.206 174.791 210.206C175.645 210.206 176.429 209.951 177.143 209.441V210.902C176.413 211.36 175.45 211.589 174.252 211.589C173.075 211.589 172.15 211.227 171.479 210.503C170.812 209.774 170.479 208.751 170.479 207.433C170.479 206.188 170.846 205.175 171.58 204.394C172.32 203.607 173.236 203.214 174.33 203.214C175.424 203.214 176.27 203.566 176.869 204.269C177.468 204.972 177.768 205.948 177.768 207.198V207.894ZM176.018 206.613C176.012 205.962 175.859 205.456 175.557 205.097C175.255 204.732 174.838 204.55 174.307 204.55C173.786 204.55 173.343 204.74 172.979 205.12C172.619 205.501 172.398 205.998 172.314 206.613H176.018ZM180.408 201.722C180.111 201.722 179.856 201.626 179.643 201.433C179.434 201.24 179.33 200.995 179.33 200.698C179.33 200.402 179.434 200.154 179.643 199.956C179.856 199.758 180.111 199.659 180.408 199.659C180.715 199.659 180.976 199.758 181.189 199.956C181.403 200.154 181.51 200.402 181.51 200.698C181.51 200.98 181.403 201.222 181.189 201.425C180.976 201.623 180.715 201.722 180.408 201.722ZM181.307 211.402H179.494V203.402H181.307V211.402ZM190.572 203.402L187.479 211.402H185.518L182.572 203.402H184.541L186.314 208.995C186.45 209.407 186.533 209.766 186.564 210.073H186.588C186.635 209.688 186.708 209.339 186.807 209.027L188.666 203.402H190.572ZM198.455 207.894H193.002C193.023 208.633 193.249 209.204 193.682 209.605C194.119 210.006 194.718 210.206 195.479 210.206C196.333 210.206 197.117 209.951 197.83 209.441V210.902C197.101 211.36 196.137 211.589 194.939 211.589C193.762 211.589 192.838 211.227 192.166 210.503C191.499 209.774 191.166 208.751 191.166 207.433C191.166 206.188 191.533 205.175 192.268 204.394C193.007 203.607 193.924 203.214 195.018 203.214C196.111 203.214 196.958 203.566 197.557 204.269C198.156 204.972 198.455 205.948 198.455 207.198V207.894ZM196.705 206.613C196.7 205.962 196.546 205.456 196.244 205.097C195.942 204.732 195.525 204.55 194.994 204.55C194.473 204.55 194.031 204.74 193.666 205.12C193.307 205.501 193.085 205.998 193.002 206.613H196.705ZM206.432 210.222H206.4V215.081H204.588V203.402H206.4V204.808H206.432C207.051 203.745 207.958 203.214 209.15 203.214C210.166 203.214 210.958 203.571 211.525 204.284C212.093 204.998 212.377 205.956 212.377 207.159C212.377 208.493 212.057 209.56 211.416 210.363C210.775 211.165 209.9 211.566 208.791 211.566C207.77 211.566 206.984 211.118 206.432 210.222ZM206.385 207.066V208.058C206.385 208.641 206.57 209.136 206.939 209.542C207.314 209.948 207.788 210.152 208.361 210.152C209.033 210.152 209.559 209.891 209.939 209.37C210.325 208.844 210.518 208.113 210.518 207.175C210.518 206.389 210.338 205.774 209.979 205.331C209.624 204.883 209.143 204.659 208.533 204.659C207.887 204.659 207.367 204.889 206.971 205.347C206.58 205.805 206.385 206.378 206.385 207.066ZM220.182 211.402H218.424V210.152H218.393C217.84 211.11 217.031 211.589 215.963 211.589C215.176 211.589 214.559 211.376 214.111 210.948C213.669 210.521 213.447 209.956 213.447 209.253C213.447 207.743 214.317 206.863 216.057 206.613L218.432 206.277C218.432 205.136 217.89 204.566 216.807 204.566C215.854 204.566 214.994 204.894 214.229 205.55V203.964C215.072 203.464 216.046 203.214 217.15 203.214C219.171 203.214 220.182 204.209 220.182 206.198V211.402ZM218.432 207.472L216.752 207.706C216.231 207.774 215.838 207.902 215.572 208.089C215.312 208.271 215.182 208.594 215.182 209.058C215.182 209.396 215.301 209.675 215.541 209.894C215.786 210.107 216.111 210.214 216.518 210.214C217.07 210.214 217.525 210.021 217.885 209.636C218.249 209.245 218.432 208.756 218.432 208.167V207.472ZM229.33 203.402L225.721 212.683C224.971 214.339 223.919 215.167 222.564 215.167C222.184 215.167 221.867 215.133 221.611 215.066V213.558C221.898 213.652 222.158 213.698 222.393 213.698C223.07 213.698 223.575 213.365 223.908 212.698L224.447 211.386L221.268 203.402H223.275L225.182 209.214C225.202 209.287 225.249 209.48 225.322 209.792H225.361C225.387 209.672 225.434 209.485 225.502 209.23L227.502 203.402H229.33ZM242.502 211.402H240.689V207.042C240.689 206.204 240.57 205.597 240.33 205.222C240.096 204.847 239.697 204.659 239.135 204.659C238.661 204.659 238.257 204.896 237.924 205.37C237.596 205.844 237.432 206.412 237.432 207.073V211.402H235.611V206.894C235.611 205.404 235.085 204.659 234.033 204.659C233.544 204.659 233.14 204.883 232.822 205.331C232.51 205.779 232.354 206.36 232.354 207.073V211.402H230.541V203.402H232.354V204.667H232.385C232.963 203.698 233.804 203.214 234.908 203.214C235.46 203.214 235.942 203.368 236.354 203.675C236.77 203.977 237.054 204.376 237.205 204.87C237.799 203.766 238.684 203.214 239.861 203.214C241.622 203.214 242.502 204.3 242.502 206.472V211.402ZM251.486 207.894H246.033C246.054 208.633 246.281 209.204 246.713 209.605C247.15 210.006 247.749 210.206 248.51 210.206C249.364 210.206 250.148 209.951 250.861 209.441V210.902C250.132 211.36 249.169 211.589 247.971 211.589C246.794 211.589 245.869 211.227 245.197 210.503C244.531 209.774 244.197 208.751 244.197 207.433C244.197 206.188 244.564 205.175 245.299 204.394C246.038 203.607 246.955 203.214 248.049 203.214C249.143 203.214 249.989 203.566 250.588 204.269C251.187 204.972 251.486 205.948 251.486 207.198V207.894ZM249.736 206.613C249.731 205.962 249.577 205.456 249.275 205.097C248.973 204.732 248.557 204.55 248.025 204.55C247.505 204.55 247.062 204.74 246.697 205.12C246.338 205.501 246.117 205.998 246.033 206.613H249.736ZM260.338 211.402H258.525V206.894C258.525 205.399 257.997 204.652 256.939 204.652C256.387 204.652 255.932 204.86 255.572 205.277C255.213 205.688 255.033 206.209 255.033 206.839V211.402H253.213V203.402H255.033V204.73H255.064C255.663 203.719 256.528 203.214 257.658 203.214C258.528 203.214 259.192 203.498 259.65 204.066C260.109 204.628 260.338 205.443 260.338 206.511V211.402ZM266.775 211.316C266.421 211.493 265.955 211.581 265.377 211.581C263.825 211.581 263.049 210.837 263.049 209.347V204.823H261.713V203.402H263.049V201.55L264.861 201.034V203.402H266.775V204.823H264.861V208.823C264.861 209.297 264.947 209.636 265.119 209.839C265.291 210.042 265.577 210.144 265.979 210.144C266.286 210.144 266.551 210.055 266.775 209.878V211.316ZM267.838 211.152V209.472C268.515 209.988 269.262 210.245 270.08 210.245C271.174 210.245 271.721 209.922 271.721 209.277C271.721 209.094 271.674 208.941 271.58 208.816C271.486 208.685 271.359 208.571 271.197 208.472C271.041 208.373 270.854 208.284 270.635 208.206C270.421 208.128 270.182 208.04 269.916 207.941C269.588 207.81 269.291 207.672 269.025 207.527C268.765 207.381 268.546 207.217 268.369 207.034C268.197 206.847 268.067 206.636 267.979 206.402C267.89 206.167 267.846 205.894 267.846 205.581C267.846 205.196 267.937 204.857 268.119 204.566C268.301 204.269 268.546 204.021 268.854 203.823C269.161 203.62 269.51 203.469 269.9 203.37C270.291 203.266 270.695 203.214 271.111 203.214C271.851 203.214 272.512 203.326 273.096 203.55V205.136C272.533 204.751 271.887 204.558 271.158 204.558C270.929 204.558 270.721 204.581 270.533 204.628C270.351 204.675 270.195 204.74 270.064 204.823C269.934 204.907 269.833 205.008 269.76 205.128C269.687 205.243 269.65 205.37 269.65 205.511C269.65 205.683 269.687 205.829 269.76 205.948C269.833 206.068 269.939 206.175 270.08 206.269C270.226 206.357 270.398 206.441 270.596 206.519C270.799 206.592 271.031 206.672 271.291 206.761C271.635 206.902 271.942 207.045 272.213 207.191C272.489 207.337 272.723 207.503 272.916 207.691C273.109 207.873 273.257 208.087 273.361 208.331C273.465 208.571 273.518 208.857 273.518 209.191C273.518 209.597 273.424 209.951 273.236 210.253C273.049 210.555 272.799 210.805 272.486 211.003C272.174 211.201 271.812 211.347 271.4 211.441C270.994 211.54 270.564 211.589 270.111 211.589C269.236 211.589 268.479 211.443 267.838 211.152ZM283.869 211.316C283.515 211.493 283.049 211.581 282.471 211.581C280.919 211.581 280.143 210.837 280.143 209.347V204.823H278.807V203.402H280.143V201.55L281.955 201.034V203.402H283.869V204.823H281.955V208.823C281.955 209.297 282.041 209.636 282.213 209.839C282.385 210.042 282.671 210.144 283.072 210.144C283.38 210.144 283.645 210.055 283.869 209.878V211.316ZM292.541 211.402H290.729V207.027C290.729 205.443 290.2 204.652 289.143 204.652C288.611 204.652 288.163 204.881 287.799 205.339C287.434 205.797 287.252 206.383 287.252 207.097V211.402H285.432V199.558H287.252V204.73H287.283C287.887 203.719 288.752 203.214 289.877 203.214C291.653 203.214 292.541 204.3 292.541 206.472V211.402ZM299.385 205.128C299.166 204.956 298.851 204.87 298.439 204.87C297.903 204.87 297.455 205.113 297.096 205.597C296.736 206.081 296.557 206.74 296.557 207.573V211.402H294.744V203.402H296.557V205.05H296.588C296.765 204.488 297.036 204.05 297.4 203.738C297.77 203.42 298.182 203.261 298.635 203.261C298.963 203.261 299.213 203.31 299.385 203.409V205.128ZM304.072 211.589C302.838 211.589 301.851 211.217 301.111 210.472C300.377 209.722 300.01 208.73 300.01 207.495C300.01 206.152 300.393 205.102 301.158 204.347C301.929 203.592 302.965 203.214 304.268 203.214C305.518 203.214 306.492 203.581 307.189 204.316C307.887 205.05 308.236 206.068 308.236 207.37C308.236 208.646 307.859 209.67 307.104 210.441C306.354 211.206 305.343 211.589 304.072 211.589ZM304.158 204.659C303.45 204.659 302.89 204.907 302.479 205.402C302.067 205.896 301.861 206.579 301.861 207.448C301.861 208.287 302.07 208.948 302.486 209.433C302.903 209.912 303.46 210.152 304.158 210.152C304.872 210.152 305.419 209.915 305.799 209.441C306.184 208.967 306.377 208.292 306.377 207.417C306.377 206.537 306.184 205.857 305.799 205.378C305.419 204.899 304.872 204.659 304.158 204.659ZM317.064 211.402H315.252V210.136H315.221C314.695 211.105 313.877 211.589 312.768 211.589C310.877 211.589 309.932 210.454 309.932 208.183V203.402H311.744V207.995C311.744 209.433 312.299 210.152 313.408 210.152C313.945 210.152 314.385 209.954 314.729 209.558C315.077 209.162 315.252 208.644 315.252 208.003V203.402H317.064V211.402ZM326.713 210.761C326.713 213.698 325.236 215.167 322.283 215.167C321.242 215.167 320.333 214.993 319.557 214.644V212.988C320.432 213.488 321.262 213.738 322.049 213.738C323.95 213.738 324.9 212.803 324.9 210.933V210.058H324.869C324.27 211.079 323.369 211.589 322.166 211.589C321.192 211.589 320.406 211.235 319.807 210.527C319.213 209.813 318.916 208.857 318.916 207.659C318.916 206.3 319.236 205.219 319.877 204.417C320.518 203.615 321.398 203.214 322.518 203.214C323.575 203.214 324.359 203.646 324.869 204.511H324.9V203.402H326.713V210.761ZM324.916 207.738V206.698C324.916 206.136 324.729 205.657 324.354 205.261C323.984 204.86 323.52 204.659 322.963 204.659C322.275 204.659 321.736 204.915 321.346 205.425C320.96 205.93 320.768 206.639 320.768 207.55C320.768 208.337 320.952 208.967 321.322 209.441C321.697 209.909 322.192 210.144 322.807 210.144C323.432 210.144 323.939 209.92 324.33 209.472C324.721 209.019 324.916 208.441 324.916 207.738ZM336.182 211.402H334.369V207.027C334.369 205.443 333.84 204.652 332.783 204.652C332.252 204.652 331.804 204.881 331.439 205.339C331.075 205.797 330.893 206.383 330.893 207.097V211.402H329.072V199.558H330.893V204.73H330.924C331.528 203.719 332.393 203.214 333.518 203.214C335.294 203.214 336.182 204.3 336.182 206.472V211.402ZM344.611 211.402H342.791V199.558H344.611V211.402ZM347.893 201.722C347.596 201.722 347.34 201.626 347.127 201.433C346.919 201.24 346.814 200.995 346.814 200.698C346.814 200.402 346.919 200.154 347.127 199.956C347.34 199.758 347.596 199.659 347.893 199.659C348.2 199.659 348.46 199.758 348.674 199.956C348.887 200.154 348.994 200.402 348.994 200.698C348.994 200.98 348.887 201.222 348.674 201.425C348.46 201.623 348.2 201.722 347.893 201.722ZM348.791 211.402H346.979V203.402H348.791V211.402ZM358.291 211.402H356.479V206.894C356.479 205.399 355.95 204.652 354.893 204.652C354.34 204.652 353.885 204.86 353.525 205.277C353.166 205.688 352.986 206.209 352.986 206.839V211.402H351.166V203.402H352.986V204.73H353.018C353.617 203.719 354.481 203.214 355.611 203.214C356.481 203.214 357.145 203.498 357.604 204.066C358.062 204.628 358.291 205.443 358.291 206.511V211.402ZM367.768 211.402H365.471L362.361 207.558H362.33V211.402H360.51V199.558H362.33V207.066H362.361L365.299 203.402H367.479L364.174 207.261L367.768 211.402ZM368.416 211.152V209.472C369.093 209.988 369.84 210.245 370.658 210.245C371.752 210.245 372.299 209.922 372.299 209.277C372.299 209.094 372.252 208.941 372.158 208.816C372.064 208.685 371.937 208.571 371.775 208.472C371.619 208.373 371.432 208.284 371.213 208.206C370.999 208.128 370.76 208.04 370.494 207.941C370.166 207.81 369.869 207.672 369.604 207.527C369.343 207.381 369.124 207.217 368.947 207.034C368.775 206.847 368.645 206.636 368.557 206.402C368.468 206.167 368.424 205.894 368.424 205.581C368.424 205.196 368.515 204.857 368.697 204.566C368.88 204.269 369.124 204.021 369.432 203.823C369.739 203.62 370.088 203.469 370.479 203.37C370.869 203.266 371.273 203.214 371.689 203.214C372.429 203.214 373.09 203.326 373.674 203.55V205.136C373.111 204.751 372.465 204.558 371.736 204.558C371.507 204.558 371.299 204.581 371.111 204.628C370.929 204.675 370.773 204.74 370.643 204.823C370.512 204.907 370.411 205.008 370.338 205.128C370.265 205.243 370.229 205.37 370.229 205.511C370.229 205.683 370.265 205.829 370.338 205.948C370.411 206.068 370.518 206.175 370.658 206.269C370.804 206.357 370.976 206.441 371.174 206.519C371.377 206.592 371.609 206.672 371.869 206.761C372.213 206.902 372.52 207.045 372.791 207.191C373.067 207.337 373.301 207.503 373.494 207.691C373.687 207.873 373.835 208.087 373.939 208.331C374.044 208.571 374.096 208.857 374.096 209.191C374.096 209.597 374.002 209.951 373.814 210.253C373.627 210.555 373.377 210.805 373.064 211.003C372.752 211.201 372.39 211.347 371.979 211.441C371.572 211.54 371.143 211.589 370.689 211.589C369.814 211.589 369.057 211.443 368.416 211.152Z" fill="black"/>
<circle cx="477.736" cy="184.902" r="13" stroke="#7C7C7C"/>
<rect x="56.4336" y="279.902" width="62.8033" height="62.8033" rx="20" fill="#CE2A2A"/>
<path d="M105.336 319.598V298.476C105.336 296.376 103.621 294.818 101.538 294.993H101.433C97.7584 295.308 92.1759 297.181 89.0609 299.141L88.7634 299.333C88.2559 299.648 87.4159 299.648 86.9084 299.333L86.4709 299.071C83.3559 297.128 77.7909 295.273 74.1159 294.976C72.0334 294.801 70.3359 296.376 70.3359 298.458V319.598C70.3359 321.278 71.7009 322.853 73.3809 323.063L73.8884 323.133C77.6859 323.641 83.5484 325.566 86.9084 327.403L86.9784 327.438C87.4509 327.701 88.2034 327.701 88.6584 327.438C92.0184 325.583 97.8984 323.641 101.713 323.133L102.291 323.063C103.971 322.853 105.336 321.278 105.336 319.598Z" stroke="white" stroke-width="2.625" stroke-linecap="round" stroke-linejoin="round"/>
<path d="M87.8359 299.911V326.161" stroke="white" stroke-width="2.625" stroke-linecap="round" stroke-linejoin="round"/>
<path d="M80.3984 305.161H76.4609" stroke="white" stroke-width="2.625" stroke-linecap="round" stroke-linejoin="round"/>
<path d="M81.7109 310.411H76.4609" stroke="white" stroke-width="2.625" stroke-linecap="round" stroke-linejoin="round"/>
<path d="M153.476 288.543C148.148 288.543 144.836 285.279 144.836 280.263C144.836 275.247 148.148 271.983 153.476 271.983C158.924 271.983 162.212 275.247 162.212 280.263C162.212 285.279 158.924 288.543 153.476 288.543ZM153.476 285.087C157.004 285.087 158.372 283.839 158.372 280.263C158.372 276.687 157.004 275.439 153.476 275.439C149.948 275.439 148.652 276.687 148.652 280.263C148.652 283.839 149.948 285.087 153.476 285.087ZM167.382 288.303H163.782V276.279H167.118V279.975H167.334C167.646 277.959 169.086 276.039 172.23 276.039C175.518 276.039 177.078 278.151 177.078 280.815V288.303H173.478V282.015C173.478 280.095 172.686 279.279 170.478 279.279C168.198 279.279 167.382 280.191 167.382 282.231V288.303ZM182.499 288.303H178.899V272.223H182.499V288.303ZM187.984 275.055H184.384V272.223H187.984V275.055ZM187.984 288.303H184.384V276.279H187.984V288.303ZM193.468 288.303H189.868V276.279H193.204V279.975H193.42C193.732 277.959 195.172 276.039 198.316 276.039C201.604 276.039 203.164 278.151 203.164 280.815V288.303H199.564V282.015C199.564 280.095 198.772 279.279 196.564 279.279C194.284 279.279 193.468 280.191 193.468 282.231V288.303ZM211.369 288.543C207.361 288.543 204.625 286.575 204.625 282.303C204.625 278.463 207.337 276.039 211.297 276.039C215.233 276.039 217.849 278.103 217.849 281.871C217.849 282.303 217.801 282.615 217.753 283.023H207.961C208.057 284.871 208.921 285.663 211.249 285.663C213.385 285.663 214.129 285.111 214.129 284.079V283.839H217.729V284.103C217.729 286.719 215.185 288.543 211.369 288.543ZM211.225 278.847C209.089 278.847 208.177 279.567 208.009 281.127H214.393C214.297 279.543 213.337 278.847 211.225 278.847ZM226.679 288.303H223.079V272.223H231.479C235.199 272.223 237.599 274.335 237.599 278.031C237.599 281.727 235.199 283.863 231.479 283.863H226.679V288.303ZM231.095 275.463H226.679V280.623H231.095C233.087 280.623 234.023 280.047 234.023 278.031C234.023 276.063 233.087 275.463 231.095 275.463ZM242.572 288.543C239.98 288.543 238.42 287.343 238.42 285.327C238.42 283.551 239.74 282.447 242.308 282.183L247.468 281.655V281.199C247.468 279.639 246.772 279.207 244.852 279.207C243.028 279.207 242.284 279.687 242.284 281.055V281.151H238.66V281.079C238.66 278.103 241.156 276.039 245.116 276.039C249.124 276.039 251.02 278.103 251.02 281.247V288.303H247.66V285.543H247.468C246.916 287.415 245.236 288.543 242.572 288.543ZM242.044 285.087C242.044 285.735 242.548 285.999 243.604 285.999C246.052 285.999 247.372 285.423 247.468 283.719L243.292 284.199C242.428 284.271 242.044 284.511 242.044 285.087ZM255.149 292.383H253.181V289.119H256.133C257.021 289.119 257.405 288.879 257.645 288.351L251.765 276.279H255.845L258.389 281.775L259.397 284.607H259.637L260.597 281.751L262.877 276.279H266.885L260.933 289.167C259.781 291.687 258.173 292.383 255.149 292.383ZM271.351 288.303H267.751V276.279H271.087V279.927H271.279C271.567 277.911 272.767 276.039 275.791 276.039C278.575 276.039 279.991 277.743 280.255 279.975H280.471C280.759 277.935 281.983 276.039 285.079 276.039C288.175 276.039 289.687 278.079 289.687 280.815V288.303H286.087V282.015C286.087 280.023 285.391 279.279 283.327 279.279C281.143 279.279 280.519 280.143 280.519 282.231V288.303H276.919V282.015C276.919 280.023 276.223 279.279 274.159 279.279C271.975 279.279 271.351 280.143 271.351 282.231V288.303ZM297.901 288.543C293.893 288.543 291.157 286.575 291.157 282.303C291.157 278.463 293.869 276.039 297.829 276.039C301.765 276.039 304.381 278.103 304.381 281.871C304.381 282.303 304.333 282.615 304.285 283.023H294.493C294.589 284.871 295.453 285.663 297.781 285.663C299.917 285.663 300.661 285.111 300.661 284.079V283.839H304.261V284.103C304.261 286.719 301.717 288.543 297.901 288.543ZM297.757 278.847C295.621 278.847 294.709 279.567 294.541 281.127H300.925C300.829 279.543 299.869 278.847 297.757 278.847ZM309.507 288.303H305.907V276.279H309.243V279.975H309.459C309.771 277.959 311.211 276.039 314.355 276.039C317.643 276.039 319.203 278.151 319.203 280.815V288.303H315.603V282.015C315.603 280.095 314.811 279.279 312.603 279.279C310.323 279.279 309.507 280.191 309.507 282.231V288.303ZM329.496 288.303H326.52C323.712 288.303 322.008 286.983 322.008 283.959V279.255H320.112V276.279H322.008V273.951H325.608V276.279H329.496V279.255H325.608V283.551C325.608 284.751 326.064 285.063 327.336 285.063H329.496V288.303Z" fill="black"/>
<path d="M154.822 327.303H152.783L151.775 324.452H147.369L146.4 327.303H144.369L148.564 316.1H150.658L154.822 327.303ZM151.283 322.936L149.729 318.467C149.682 318.322 149.632 318.087 149.58 317.764H149.549C149.502 318.061 149.45 318.296 149.393 318.467L147.854 322.936H151.283ZM161.893 326.936C161.252 327.306 160.494 327.491 159.619 327.491C158.432 327.491 157.473 327.121 156.744 326.381C156.015 325.637 155.65 324.673 155.65 323.491C155.65 322.173 156.041 321.116 156.822 320.319C157.609 319.517 158.658 319.116 159.971 319.116C160.7 319.116 161.343 319.243 161.9 319.499V321.186C161.343 320.769 160.749 320.561 160.119 320.561C159.354 320.561 158.726 320.822 158.236 321.342C157.747 321.858 157.502 322.535 157.502 323.374C157.502 324.202 157.731 324.855 158.189 325.335C158.653 325.814 159.273 326.053 160.049 326.053C160.7 326.053 161.314 325.822 161.893 325.358V326.936ZM169.424 326.936C168.783 327.306 168.025 327.491 167.15 327.491C165.963 327.491 165.005 327.121 164.275 326.381C163.546 325.637 163.182 324.673 163.182 323.491C163.182 322.173 163.572 321.116 164.354 320.319C165.14 319.517 166.189 319.116 167.502 319.116C168.231 319.116 168.874 319.243 169.432 319.499V321.186C168.874 320.769 168.281 320.561 167.65 320.561C166.885 320.561 166.257 320.822 165.768 321.342C165.278 321.858 165.033 322.535 165.033 323.374C165.033 324.202 165.262 324.855 165.721 325.335C166.184 325.814 166.804 326.053 167.58 326.053C168.231 326.053 168.846 325.822 169.424 325.358V326.936ZM178.002 323.796H172.549C172.57 324.535 172.796 325.105 173.229 325.506C173.666 325.908 174.265 326.108 175.025 326.108C175.88 326.108 176.663 325.853 177.377 325.342V326.803C176.648 327.262 175.684 327.491 174.486 327.491C173.309 327.491 172.385 327.129 171.713 326.405C171.046 325.676 170.713 324.652 170.713 323.335C170.713 322.09 171.08 321.077 171.814 320.296C172.554 319.509 173.471 319.116 174.564 319.116C175.658 319.116 176.505 319.467 177.104 320.171C177.702 320.874 178.002 321.85 178.002 323.1V323.796ZM176.252 322.514C176.247 321.863 176.093 321.358 175.791 320.999C175.489 320.634 175.072 320.452 174.541 320.452C174.02 320.452 173.577 320.642 173.213 321.022C172.854 321.402 172.632 321.9 172.549 322.514H176.252ZM181.572 326.124H181.541V330.983H179.729V319.303H181.541V320.71H181.572C182.192 319.647 183.098 319.116 184.291 319.116C185.307 319.116 186.098 319.473 186.666 320.186C187.234 320.9 187.518 321.858 187.518 323.061C187.518 324.394 187.197 325.462 186.557 326.264C185.916 327.066 185.041 327.467 183.932 327.467C182.911 327.467 182.124 327.019 181.572 326.124ZM181.525 322.967V323.96C181.525 324.543 181.71 325.038 182.08 325.444C182.455 325.85 182.929 326.053 183.502 326.053C184.174 326.053 184.7 325.793 185.08 325.272C185.465 324.746 185.658 324.014 185.658 323.077C185.658 322.29 185.479 321.676 185.119 321.233C184.765 320.785 184.283 320.561 183.674 320.561C183.028 320.561 182.507 320.79 182.111 321.249C181.721 321.707 181.525 322.28 181.525 322.967ZM193.588 327.217C193.234 327.394 192.768 327.483 192.189 327.483C190.637 327.483 189.861 326.738 189.861 325.249V320.725H188.525V319.303H189.861V317.452L191.674 316.936V319.303H193.588V320.725H191.674V324.725C191.674 325.199 191.76 325.538 191.932 325.741C192.104 325.944 192.39 326.046 192.791 326.046C193.098 326.046 193.364 325.957 193.588 325.78V327.217ZM201.4 326.124H201.369V330.983H199.557V319.303H201.369V320.71H201.4C202.02 319.647 202.926 319.116 204.119 319.116C205.135 319.116 205.926 319.473 206.494 320.186C207.062 320.9 207.346 321.858 207.346 323.061C207.346 324.394 207.025 325.462 206.385 326.264C205.744 327.066 204.869 327.467 203.76 327.467C202.739 327.467 201.952 327.019 201.4 326.124ZM201.354 322.967V323.96C201.354 324.543 201.538 325.038 201.908 325.444C202.283 325.85 202.757 326.053 203.33 326.053C204.002 326.053 204.528 325.793 204.908 325.272C205.294 324.746 205.486 324.014 205.486 323.077C205.486 322.29 205.307 321.676 204.947 321.233C204.593 320.785 204.111 320.561 203.502 320.561C202.856 320.561 202.335 320.79 201.939 321.249C201.549 321.707 201.354 322.28 201.354 322.967ZM215.15 327.303H213.393V326.053H213.361C212.809 327.012 211.999 327.491 210.932 327.491C210.145 327.491 209.528 327.277 209.08 326.85C208.637 326.423 208.416 325.858 208.416 325.155C208.416 323.644 209.286 322.764 211.025 322.514L213.4 322.178C213.4 321.038 212.859 320.467 211.775 320.467C210.822 320.467 209.963 320.796 209.197 321.452V319.866C210.041 319.366 211.015 319.116 212.119 319.116C214.14 319.116 215.15 320.111 215.15 322.1V327.303ZM213.4 323.374L211.721 323.608C211.2 323.676 210.807 323.803 210.541 323.991C210.281 324.173 210.15 324.496 210.15 324.96C210.15 325.298 210.27 325.577 210.51 325.796C210.755 326.009 211.08 326.116 211.486 326.116C212.038 326.116 212.494 325.923 212.854 325.538C213.218 325.147 213.4 324.658 213.4 324.069V323.374ZM224.299 319.303L220.689 328.585C219.939 330.241 218.887 331.069 217.533 331.069C217.153 331.069 216.835 331.035 216.58 330.967V329.46C216.867 329.553 217.127 329.6 217.361 329.6C218.038 329.6 218.544 329.267 218.877 328.6L219.416 327.288L216.236 319.303H218.244L220.15 325.116C220.171 325.189 220.218 325.381 220.291 325.694H220.33C220.356 325.574 220.403 325.387 220.471 325.131L222.471 319.303H224.299ZM237.471 327.303H235.658V322.944C235.658 322.105 235.538 321.499 235.299 321.124C235.064 320.749 234.666 320.561 234.104 320.561C233.63 320.561 233.226 320.798 232.893 321.272C232.564 321.746 232.4 322.314 232.4 322.975V327.303H230.58V322.796C230.58 321.306 230.054 320.561 229.002 320.561C228.512 320.561 228.109 320.785 227.791 321.233C227.479 321.681 227.322 322.262 227.322 322.975V327.303H225.51V319.303H227.322V320.569H227.354C227.932 319.6 228.773 319.116 229.877 319.116C230.429 319.116 230.911 319.269 231.322 319.577C231.739 319.879 232.023 320.277 232.174 320.772C232.768 319.668 233.653 319.116 234.83 319.116C236.59 319.116 237.471 320.202 237.471 322.374V327.303ZM246.455 323.796H241.002C241.023 324.535 241.249 325.105 241.682 325.506C242.119 325.908 242.718 326.108 243.479 326.108C244.333 326.108 245.117 325.853 245.83 325.342V326.803C245.101 327.262 244.137 327.491 242.939 327.491C241.762 327.491 240.838 327.129 240.166 326.405C239.499 325.676 239.166 324.652 239.166 323.335C239.166 322.09 239.533 321.077 240.268 320.296C241.007 319.509 241.924 319.116 243.018 319.116C244.111 319.116 244.958 319.467 245.557 320.171C246.156 320.874 246.455 321.85 246.455 323.1V323.796ZM244.705 322.514C244.7 321.863 244.546 321.358 244.244 320.999C243.942 320.634 243.525 320.452 242.994 320.452C242.473 320.452 242.031 320.642 241.666 321.022C241.307 321.402 241.085 321.9 241.002 322.514H244.705ZM255.307 327.303H253.494V322.796C253.494 321.301 252.965 320.553 251.908 320.553C251.356 320.553 250.9 320.762 250.541 321.178C250.182 321.59 250.002 322.111 250.002 322.741V327.303H248.182V319.303H250.002V320.631H250.033C250.632 319.621 251.497 319.116 252.627 319.116C253.497 319.116 254.161 319.4 254.619 319.967C255.077 320.53 255.307 321.345 255.307 322.413V327.303ZM261.744 327.217C261.39 327.394 260.924 327.483 260.346 327.483C258.794 327.483 258.018 326.738 258.018 325.249V320.725H256.682V319.303H258.018V317.452L259.83 316.936V319.303H261.744V320.725H259.83V324.725C259.83 325.199 259.916 325.538 260.088 325.741C260.26 325.944 260.546 326.046 260.947 326.046C261.255 326.046 261.52 325.957 261.744 325.78V327.217ZM262.807 327.053V325.374C263.484 325.889 264.231 326.147 265.049 326.147C266.143 326.147 266.689 325.824 266.689 325.178C266.689 324.996 266.643 324.842 266.549 324.717C266.455 324.587 266.327 324.473 266.166 324.374C266.01 324.275 265.822 324.186 265.604 324.108C265.39 324.03 265.15 323.941 264.885 323.842C264.557 323.712 264.26 323.574 263.994 323.428C263.734 323.283 263.515 323.118 263.338 322.936C263.166 322.749 263.036 322.538 262.947 322.303C262.859 322.069 262.814 321.796 262.814 321.483C262.814 321.098 262.906 320.759 263.088 320.467C263.27 320.171 263.515 319.923 263.822 319.725C264.13 319.522 264.479 319.371 264.869 319.272C265.26 319.168 265.663 319.116 266.08 319.116C266.82 319.116 267.481 319.228 268.064 319.452V321.038C267.502 320.652 266.856 320.46 266.127 320.46C265.898 320.46 265.689 320.483 265.502 320.53C265.32 320.577 265.163 320.642 265.033 320.725C264.903 320.809 264.801 320.91 264.729 321.03C264.656 321.144 264.619 321.272 264.619 321.413C264.619 321.585 264.656 321.73 264.729 321.85C264.801 321.97 264.908 322.077 265.049 322.171C265.195 322.259 265.367 322.342 265.564 322.421C265.768 322.493 265.999 322.574 266.26 322.663C266.604 322.803 266.911 322.947 267.182 323.092C267.458 323.238 267.692 323.405 267.885 323.592C268.077 323.775 268.226 323.988 268.33 324.233C268.434 324.473 268.486 324.759 268.486 325.092C268.486 325.499 268.393 325.853 268.205 326.155C268.018 326.457 267.768 326.707 267.455 326.905C267.143 327.103 266.781 327.249 266.369 327.342C265.963 327.441 265.533 327.491 265.08 327.491C264.205 327.491 263.447 327.345 262.807 327.053ZM278.166 327.491C276.932 327.491 275.945 327.118 275.205 326.374C274.471 325.624 274.104 324.631 274.104 323.397C274.104 322.053 274.486 321.004 275.252 320.249C276.023 319.493 277.059 319.116 278.361 319.116C279.611 319.116 280.585 319.483 281.283 320.217C281.981 320.952 282.33 321.97 282.33 323.272C282.33 324.548 281.952 325.572 281.197 326.342C280.447 327.108 279.437 327.491 278.166 327.491ZM278.252 320.561C277.544 320.561 276.984 320.809 276.572 321.303C276.161 321.798 275.955 322.48 275.955 323.35C275.955 324.189 276.163 324.85 276.58 325.335C276.997 325.814 277.554 326.053 278.252 326.053C278.965 326.053 279.512 325.816 279.893 325.342C280.278 324.868 280.471 324.194 280.471 323.319C280.471 322.439 280.278 321.759 279.893 321.28C279.512 320.801 278.965 320.561 278.252 320.561ZM291.307 327.303H289.494V322.796C289.494 321.301 288.965 320.553 287.908 320.553C287.356 320.553 286.9 320.762 286.541 321.178C286.182 321.59 286.002 322.111 286.002 322.741V327.303H284.182V319.303H286.002V320.631H286.033C286.632 319.621 287.497 319.116 288.627 319.116C289.497 319.116 290.161 319.4 290.619 319.967C291.077 320.53 291.307 321.345 291.307 322.413V327.303ZM295.346 327.303H293.525V315.46H295.346V327.303ZM298.627 317.624C298.33 317.624 298.075 317.527 297.861 317.335C297.653 317.142 297.549 316.897 297.549 316.6C297.549 316.303 297.653 316.056 297.861 315.858C298.075 315.66 298.33 315.561 298.627 315.561C298.934 315.561 299.195 315.66 299.408 315.858C299.622 316.056 299.729 316.303 299.729 316.6C299.729 316.881 299.622 317.124 299.408 317.327C299.195 317.525 298.934 317.624 298.627 317.624ZM299.525 327.303H297.713V319.303H299.525V327.303ZM309.025 327.303H307.213V322.796C307.213 321.301 306.684 320.553 305.627 320.553C305.075 320.553 304.619 320.762 304.26 321.178C303.9 321.59 303.721 322.111 303.721 322.741V327.303H301.9V319.303H303.721V320.631H303.752C304.351 319.621 305.215 319.116 306.346 319.116C307.215 319.116 307.88 319.4 308.338 319.967C308.796 320.53 309.025 321.345 309.025 322.413V327.303ZM318.018 323.796H312.564C312.585 324.535 312.812 325.105 313.244 325.506C313.682 325.908 314.281 326.108 315.041 326.108C315.895 326.108 316.679 325.853 317.393 325.342V326.803C316.663 327.262 315.7 327.491 314.502 327.491C313.325 327.491 312.4 327.129 311.729 326.405C311.062 325.676 310.729 324.652 310.729 323.335C310.729 322.09 311.096 321.077 311.83 320.296C312.57 319.509 313.486 319.116 314.58 319.116C315.674 319.116 316.52 319.467 317.119 320.171C317.718 320.874 318.018 321.85 318.018 323.1V323.796ZM316.268 322.514C316.262 321.863 316.109 321.358 315.807 320.999C315.505 320.634 315.088 320.452 314.557 320.452C314.036 320.452 313.593 320.642 313.229 321.022C312.869 321.402 312.648 321.9 312.564 322.514H316.268Z" fill="black"/>
<circle cx="478.736" cy="311.303" r="13.5" fill="#35BA1F"/>
</g>
<defs>
<filter id="filter0_d_486_1874" x="0" y="0" width="561.867" height="425" filterUnits="userSpaceOnUse" color-interpolation-filters="sRGB">
<feFlood flood-opacity="0" result="BackgroundImageFix"/>
<feColorMatrix in="SourceAlpha" type="matrix" values="0 0 0 0 0 0 0 0 0 0 0 0 0 0 0 0 0 0 127 0" result="hardAlpha"/>
<feOffset dx="10" dy="13"/>
<feGaussianBlur stdDeviation="16"/>
<feComposite in2="hardAlpha" operator="out"/>
<feColorMatrix type="matrix" values="0 0 0 0 0 0 0 0 0 0 0 0 0 0 0 0 0 0 0.09 0"/>
<feBlend mode="normal" in2="BackgroundImageFix" result="effect1_dropShadow_486_1874"/>
<feBlend mode="normal" in="SourceGraphic" in2="effect1_dropShadow_486_1874" result="shape"/>
</filter>
</defs>
</svg>
