<svg width="347" height="217" viewBox="0 0 347 217" fill="none" xmlns="http://www.w3.org/2000/svg">
<g filter="url(#filter0_d_101_225)">
<rect x="22" y="19" width="286" height="153" rx="10" fill="white" shape-rendering="crispEdges"/>
<path d="M54.1151 139.194L49.4866 152.026L47.8666 152.019L43.3152 139.148L45.0072 139.155L47.8804 147.411C48.0114 147.76 48.1244 148.096 48.2194 148.421C48.3144 148.745 48.3975 149.058 48.4686 149.358C48.5517 149.646 48.6229 149.935 48.682 150.223C48.7428 149.935 48.8097 149.641 48.8826 149.342C48.9675 149.042 49.0585 148.73 49.1554 148.407C49.2644 148.083 49.3794 147.742 49.5005 147.382L52.4051 139.186L54.1151 139.194ZM57.2124 142.411L57.1835 152.059L55.5995 152.052L55.6284 142.404L57.2124 142.411ZM56.4493 138.789C56.6893 138.791 56.899 138.875 57.0785 139.044C57.2701 139.201 57.3653 139.453 57.3643 139.801C57.3632 140.137 57.2665 140.389 57.074 140.556C56.8935 140.723 56.6832 140.807 56.4432 140.805C56.1792 140.804 55.9575 140.719 55.778 140.551C55.5985 140.382 55.5093 140.13 55.5103 139.794C55.5113 139.446 55.6021 139.194 55.7825 139.039C55.963 138.871 56.1853 138.788 56.4493 138.789ZM63.9955 142.259C64.8235 142.263 65.531 142.446 66.1179 142.808C66.7168 143.171 67.1713 143.683 67.4813 144.344C67.8033 144.994 67.9631 145.756 67.9604 146.632L67.9576 147.586L61.3516 147.558C61.3723 148.65 61.6458 149.486 62.1721 150.064C62.7104 150.63 63.4596 150.915 64.4195 150.919C65.0315 150.922 65.5717 150.87 66.04 150.764C66.5204 150.646 67.0129 150.48 67.5175 150.266L67.5134 151.652C67.0207 151.866 66.5343 152.02 66.054 152.114C65.5737 152.22 65.0035 152.272 64.3435 152.269C63.4315 152.265 62.6221 152.076 61.9152 151.701C61.2203 151.326 60.676 150.771 60.2822 150.038C59.9004 149.292 59.7111 148.385 59.7143 147.317C59.7175 146.261 59.8942 145.356 60.2445 144.602C60.6068 143.847 61.1065 143.267 61.7437 142.862C62.3929 142.457 63.1435 142.256 63.9955 142.259ZM63.9736 143.555C63.2176 143.552 62.6169 143.796 62.1714 144.286C61.738 144.764 61.478 145.435 61.3914 146.298L66.3054 146.319C66.307 145.767 66.2245 145.287 66.0577 144.878C65.8909 144.469 65.6339 144.15 65.2866 143.921C64.9513 143.679 64.5136 143.558 63.9736 143.555ZM76.2929 146.685C76.2216 146.433 76.1504 146.187 76.0791 145.947C76.0079 145.694 75.9426 145.46 75.8832 145.244C75.8359 145.016 75.7885 144.805 75.7411 144.613C75.6937 144.421 75.6582 144.259 75.6346 144.127L75.5626 144.126C75.5382 144.258 75.5017 144.42 75.4531 144.612C75.4165 144.804 75.3679 145.014 75.3072 145.241C75.2585 145.469 75.1978 145.709 75.1251 145.961C75.0643 146.2 74.9916 146.446 74.9068 146.698L73.1626 152.108L71.3626 152.101L68.7456 142.442L70.3836 142.448L71.7001 147.602C71.7951 147.95 71.884 148.305 71.9669 148.665C72.0499 149.014 72.1209 149.35 72.1799 149.674C72.251 149.986 72.2982 150.257 72.3215 150.485L72.3935 150.485C72.4299 150.341 72.4724 150.161 72.5211 149.946C72.5697 149.73 72.6184 149.502 72.6671 149.262C72.7279 149.022 72.7886 148.783 72.8493 148.543C72.922 148.303 72.9887 148.087 73.0492 147.896L74.7755 142.467L76.5035 142.474L78.1432 147.917C78.2264 148.194 78.3095 148.488 78.3926 148.8C78.4876 149.113 78.5707 149.419 78.6418 149.719C78.7129 150.008 78.7602 150.266 78.7835 150.494L78.8555 150.494C78.8801 150.29 78.9228 150.039 78.9837 149.739C79.0567 149.427 79.1357 149.091 79.2208 148.732C79.3179 148.36 79.415 147.995 79.5121 147.635L80.8775 142.493L82.4975 142.5L79.7866 152.136L77.9326 152.128L76.2929 146.685ZM92.558 142.398C93.734 142.403 94.6032 142.665 95.1656 143.183C95.7281 143.702 96.0076 144.525 96.0042 145.653L95.9845 152.223L94.8325 152.218L94.5306 150.849L94.4586 150.848C94.1816 151.195 93.8927 151.488 93.592 151.727C93.3033 151.953 92.9668 152.12 92.5825 152.226C92.2102 152.333 91.754 152.385 91.214 152.383C90.638 152.38 90.1163 152.276 89.649 152.07C89.1936 151.864 88.8345 151.551 88.5718 151.129C88.3091 150.696 88.1787 150.156 88.1806 149.508C88.1835 148.548 88.5637 147.811 89.3213 147.299C90.0789 146.774 91.2437 146.491 92.8158 146.449L94.454 146.402L94.4557 145.826C94.4581 145.022 94.2858 144.463 93.9387 144.15C93.5917 143.837 93.1001 143.678 92.4642 143.676C91.9602 143.674 91.4799 143.75 91.0235 143.904C90.567 144.046 90.1405 144.212 89.744 144.402L89.2615 143.212C89.6822 142.986 90.1808 142.796 90.7572 142.643C91.3337 142.477 91.934 142.396 92.558 142.398ZM93.0105 147.548C91.8104 147.591 90.9758 147.78 90.5068 148.114C90.0498 148.448 89.8204 148.921 89.8186 149.533C89.817 150.073 89.9778 150.469 90.301 150.723C90.6362 150.976 91.0619 151.104 91.5779 151.106C92.3939 151.11 93.0725 150.89 93.6138 150.449C94.1552 149.995 94.4273 149.3 94.4301 148.364L94.4327 147.5L93.0105 147.548ZM102.834 152.432C101.982 152.428 101.22 152.251 100.549 151.9C99.8904 151.549 99.37 151.007 98.9882 150.273C98.6184 149.54 98.4352 148.603 98.4387 147.463C98.4422 146.275 98.6431 145.31 99.0413 144.568C99.4396 143.825 99.9752 143.282 100.648 142.936C101.333 142.591 102.108 142.421 102.972 142.424C103.464 142.426 103.938 142.482 104.393 142.592C104.849 142.69 105.221 142.812 105.508 142.957L105.018 144.269C104.731 144.16 104.395 144.056 104.011 143.959C103.627 143.861 103.268 143.811 102.932 143.81C102.284 143.807 101.749 143.943 101.328 144.217C100.908 144.491 100.594 144.898 100.389 145.437C100.183 145.976 100.079 146.648 100.077 147.452C100.074 148.22 100.174 148.874 100.377 149.415C100.579 149.956 100.884 150.365 101.291 150.643C101.698 150.921 102.208 151.061 102.82 151.064C103.348 151.066 103.81 151.014 104.206 150.907C104.615 150.801 104.987 150.671 105.324 150.516L105.319 151.92C104.995 152.087 104.634 152.211 104.238 152.294C103.854 152.388 103.386 152.434 102.834 152.432ZM111.482 152.468C110.63 152.465 109.869 152.287 109.198 151.937C108.539 151.586 108.018 151.044 107.637 150.31C107.267 149.576 107.084 148.64 107.087 147.5C107.091 146.312 107.291 145.346 107.69 144.604C108.088 143.862 108.624 143.318 109.297 142.973C109.982 142.628 110.756 142.457 111.62 142.461C112.112 142.463 112.586 142.519 113.042 142.629C113.497 142.727 113.869 142.848 114.157 142.993L113.667 144.305C113.379 144.196 113.043 144.093 112.66 143.995C112.276 143.898 111.916 143.848 111.58 143.847C110.932 143.844 110.398 143.98 109.977 144.254C109.556 144.528 109.243 144.935 109.037 145.474C108.831 146.013 108.727 146.685 108.725 147.489C108.723 148.257 108.823 148.911 109.025 149.452C109.228 149.993 109.532 150.402 109.939 150.68C110.347 150.957 110.856 151.098 111.468 151.1C111.996 151.102 112.458 151.05 112.855 150.944C113.263 150.838 113.635 150.707 113.972 150.553L113.968 151.957C113.643 152.123 113.283 152.248 112.887 152.33C112.502 152.425 112.034 152.471 111.482 152.468ZM124.664 147.502C124.661 148.306 124.551 149.019 124.333 149.643C124.127 150.254 123.826 150.774 123.428 151.205C123.043 151.635 122.568 151.963 122.003 152.189C121.451 152.402 120.832 152.508 120.148 152.505C119.512 152.502 118.925 152.392 118.385 152.173C117.846 151.943 117.379 151.611 116.984 151.177C116.59 150.744 116.279 150.221 116.053 149.608C115.839 148.983 115.733 148.268 115.736 147.464C115.739 146.396 115.921 145.497 116.284 144.766C116.646 144.024 117.164 143.462 117.837 143.081C118.51 142.688 119.309 142.493 120.233 142.497C121.109 142.501 121.876 142.702 122.535 143.101C123.206 143.488 123.726 144.054 124.096 144.8C124.477 145.533 124.667 146.434 124.664 147.502ZM117.374 147.471C117.371 148.227 117.465 148.888 117.656 149.452C117.858 150.005 118.169 150.432 118.588 150.734C119.007 151.036 119.54 151.188 120.188 151.191C120.836 151.194 121.371 151.046 121.792 150.748C122.213 150.45 122.52 150.025 122.714 149.474C122.919 148.911 123.023 148.251 123.026 147.495C123.028 146.727 122.928 146.073 122.725 145.532C122.523 144.991 122.212 144.576 121.793 144.286C121.386 143.984 120.853 143.832 120.193 143.829C119.209 143.825 118.494 144.146 118.048 144.792C117.602 145.438 117.377 146.331 117.374 147.471ZM135.252 142.741L135.223 152.389L133.927 152.383L133.697 151.104L133.625 151.104C133.42 151.439 133.155 151.714 132.831 151.928C132.506 152.143 132.152 152.298 131.767 152.392C131.383 152.498 130.981 152.551 130.561 152.549C129.793 152.546 129.145 152.423 128.618 152.181C128.103 151.927 127.714 151.541 127.451 151.024C127.189 150.507 127.059 149.84 127.061 149.024L127.08 142.706L128.682 142.713L128.664 148.923C128.661 149.691 128.834 150.268 129.181 150.653C129.527 151.039 130.067 151.233 130.799 151.236C131.519 151.239 132.083 151.109 132.492 150.847C132.913 150.573 133.208 150.178 133.378 149.663C133.559 149.136 133.651 148.5 133.653 147.756L133.668 142.734L135.252 142.741ZM142.96 142.593C144.112 142.598 144.981 142.884 145.567 143.45C146.153 144.005 146.445 144.906 146.441 146.154L146.422 152.436L144.856 152.429L144.875 146.255C144.877 145.475 144.705 144.893 144.358 144.507C144.011 144.122 143.466 143.927 142.722 143.924C141.654 143.92 140.915 144.217 140.505 144.815C140.095 145.413 139.889 146.276 139.885 147.404L139.87 152.408L138.286 152.402L138.315 142.754L139.593 142.759L139.823 144.074L139.913 144.074C140.13 143.739 140.395 143.464 140.708 143.25C141.032 143.023 141.387 142.857 141.771 142.75C142.156 142.644 142.552 142.592 142.96 142.593ZM152.638 151.346C152.878 151.347 153.124 151.33 153.377 151.295C153.629 151.248 153.833 151.201 153.989 151.154L153.985 152.36C153.817 152.443 153.577 152.508 153.265 152.555C152.953 152.614 152.653 152.642 152.365 152.641C151.861 152.639 151.393 152.553 150.961 152.383C150.542 152.201 150.201 151.894 149.938 151.461C149.675 151.028 149.545 150.421 149.548 149.641L149.564 144.025L148.196 144.019L148.199 143.263L149.587 142.639L150.223 140.59L151.159 140.594L151.152 142.808L153.942 142.82L153.938 144.044L151.148 144.032L151.132 149.612C151.13 150.2 151.267 150.638 151.542 150.928C151.829 151.205 152.194 151.344 152.638 151.346ZM162.208 142.153C162.207 142.561 162.193 142.945 162.168 143.304C162.155 143.652 162.136 143.928 162.112 144.132L162.202 144.133C162.479 143.726 162.858 143.385 163.339 143.111C163.82 142.837 164.438 142.702 165.194 142.705C166.394 142.71 167.353 143.134 168.07 143.977C168.8 144.808 169.162 146.052 169.157 147.708C169.154 148.812 168.983 149.735 168.645 150.478C168.319 151.221 167.855 151.777 167.254 152.146C166.653 152.515 165.956 152.699 165.164 152.695C164.408 152.692 163.791 152.551 163.311 152.273C162.832 151.995 162.455 151.664 162.18 151.279L162.054 151.278L161.727 152.501L160.593 152.496L160.634 138.816L162.218 138.823L162.208 142.153ZM164.92 144.018C164.236 144.015 163.696 144.145 163.299 144.407C162.902 144.658 162.619 145.052 162.449 145.592C162.28 146.119 162.194 146.797 162.191 147.625L162.191 147.697C162.188 148.885 162.377 149.797 162.759 150.435C163.153 151.061 163.878 151.376 164.934 151.38C165.798 151.384 166.441 151.069 166.863 150.434C167.297 149.8 167.516 148.883 167.519 147.683C167.523 146.471 167.31 145.558 166.879 144.944C166.461 144.331 165.808 144.022 164.92 144.018ZM175.35 142.748C176.526 142.753 177.395 143.015 177.958 143.533C178.52 144.052 178.8 144.875 178.796 146.003L178.777 152.573L177.625 152.568L177.323 151.199L177.251 151.198C176.974 151.545 176.685 151.838 176.384 152.077C176.096 152.303 175.759 152.47 175.375 152.576C175.002 152.683 174.546 152.735 174.006 152.733C173.43 152.73 172.909 152.626 172.441 152.42C171.986 152.214 171.627 151.9 171.364 151.479C171.101 151.046 170.971 150.506 170.973 149.858C170.976 148.898 171.356 148.161 172.114 147.649C172.871 147.124 174.036 146.841 175.608 146.799L177.246 146.752L177.248 146.176C177.25 145.372 177.078 144.813 176.731 144.5C176.384 144.187 175.892 144.028 175.256 144.026C174.752 144.024 174.272 144.1 173.816 144.254C173.359 144.396 172.933 144.562 172.536 144.752L172.054 143.562C172.474 143.336 172.973 143.146 173.549 142.993C174.126 142.827 174.726 142.746 175.35 142.748ZM175.803 147.898C174.603 147.941 173.768 148.13 173.299 148.464C172.842 148.798 172.613 149.271 172.611 149.883C172.609 150.423 172.77 150.819 173.093 151.073C173.428 151.326 173.854 151.454 174.37 151.456C175.186 151.46 175.865 151.24 176.406 150.799C176.947 150.345 177.22 149.65 177.222 148.714L177.225 147.85L175.803 147.898ZM183.341 152.592L181.757 152.585L181.798 138.905L183.382 138.912L183.341 152.592ZM190.081 142.81C191.257 142.815 192.126 143.077 192.688 143.595C193.251 144.114 193.53 144.937 193.527 146.065L193.507 152.635L192.355 152.63L192.053 151.261L191.981 151.261C191.704 151.607 191.415 151.9 191.115 152.139C190.826 152.366 190.489 152.532 190.105 152.639C189.733 152.745 189.277 152.797 188.737 152.795C188.161 152.792 187.639 152.688 187.172 152.482C186.716 152.276 186.357 151.963 186.094 151.542C185.832 151.109 185.701 150.568 185.703 149.92C185.706 148.96 186.086 148.224 186.844 147.711C187.601 147.186 188.766 146.903 190.338 146.862L191.977 146.814L191.978 146.238C191.981 145.434 191.808 144.876 191.461 144.562C191.114 144.249 190.623 144.091 189.987 144.088C189.483 144.086 189.003 144.162 188.546 144.316C188.09 144.458 187.663 144.624 187.267 144.815L186.784 143.624C187.205 143.398 187.703 143.208 188.28 143.055C188.856 142.889 189.457 142.808 190.081 142.81ZM190.533 147.96C189.333 148.003 188.498 148.192 188.029 148.526C187.572 148.86 187.343 149.333 187.341 149.945C187.34 150.485 187.5 150.882 187.824 151.135C188.159 151.388 188.584 151.516 189.1 151.518C189.916 151.522 190.595 151.303 191.136 150.861C191.678 150.407 191.95 149.712 191.953 148.776L191.955 147.912L190.533 147.96ZM201.16 142.839C202.312 142.844 203.181 143.13 203.768 143.696C204.354 144.251 204.645 145.152 204.642 146.4L204.623 152.682L203.057 152.675L203.075 146.501C203.078 145.721 202.905 145.139 202.559 144.753C202.212 144.368 201.666 144.173 200.922 144.17C199.854 144.166 199.115 144.463 198.706 145.061C198.296 145.659 198.089 146.522 198.086 147.65L198.071 152.654L196.487 152.648L196.516 143L197.794 143.005L198.024 144.32L198.114 144.32C198.331 143.985 198.596 143.71 198.908 143.496C199.233 143.269 199.588 143.103 199.972 142.996C200.356 142.89 200.752 142.838 201.16 142.839ZM211.483 152.891C210.631 152.887 209.87 152.71 209.199 152.359C208.54 152.009 208.019 151.466 207.638 150.733C207.268 149.999 207.085 149.062 207.088 147.922C207.092 146.734 207.293 145.769 207.691 145.027C208.089 144.285 208.625 143.741 209.298 143.396C209.983 143.051 210.757 142.88 211.621 142.883C212.113 142.886 212.587 142.942 213.043 143.051C213.498 143.149 213.87 143.271 214.158 143.416L213.668 144.728C213.38 144.619 213.044 144.516 212.661 144.418C212.277 144.32 211.917 144.271 211.581 144.269C210.933 144.267 210.399 144.402 209.978 144.677C209.557 144.951 209.244 145.357 209.038 145.897C208.833 146.436 208.729 147.107 208.726 147.911C208.724 148.679 208.824 149.334 209.026 149.875C209.229 150.415 209.533 150.825 209.941 151.102C210.348 151.38 210.857 151.52 211.469 151.523C211.997 151.525 212.459 151.473 212.856 151.367C213.264 151.26 213.636 151.13 213.973 150.975L213.969 152.379C213.644 152.546 213.284 152.671 212.888 152.753C212.503 152.847 212.035 152.893 211.483 152.891ZM220.018 142.919C220.846 142.922 221.553 143.105 222.14 143.468C222.739 143.83 223.193 144.342 223.503 145.004C223.825 145.653 223.985 146.416 223.982 147.292L223.98 148.246L217.374 148.218C217.394 149.31 217.668 150.145 218.194 150.723C218.732 151.29 219.482 151.575 220.442 151.579C221.054 151.581 221.594 151.53 222.062 151.424C222.542 151.306 223.035 151.14 223.54 150.926L223.535 152.312C223.043 152.526 222.556 152.68 222.076 152.774C221.596 152.88 221.026 152.931 220.366 152.929C219.454 152.925 218.644 152.735 217.937 152.36C217.242 151.985 216.698 151.431 216.304 150.697C215.922 149.952 215.733 149.045 215.736 147.977C215.74 146.921 215.916 146.016 216.267 145.261C216.629 144.507 217.129 143.927 217.766 143.521C218.415 143.116 219.166 142.915 220.018 142.919ZM219.996 144.215C219.24 144.212 218.639 144.455 218.193 144.945C217.76 145.423 217.5 146.094 217.413 146.958L222.327 146.979C222.329 146.427 222.247 145.946 222.08 145.538C221.913 145.129 221.656 144.81 221.309 144.58C220.973 144.339 220.536 144.217 219.996 144.215Z" fill="black" fill-opacity="0.85"/>
<path d="M51.7846 55.24C50.7313 55.24 49.758 55.0533 48.8646 54.68C47.9846 54.2933 47.2113 53.7533 46.5446 53.06C45.8913 52.3667 45.3846 51.5533 45.0246 50.62C44.6646 49.6867 44.4846 48.6667 44.4846 47.56C44.4846 46.44 44.6646 45.4133 45.0246 44.48C45.3846 43.5467 45.8913 42.7333 46.5446 42.04C47.198 41.3467 47.9713 40.8133 48.8646 40.44C49.758 40.0533 50.7313 39.86 51.7846 39.86C52.8113 39.86 53.7313 40.04 54.5446 40.4C55.3713 40.76 56.0646 41.2267 56.6246 41.8C57.198 42.3733 57.6046 42.9867 57.8446 43.64L56.0446 44.46C55.698 43.6333 55.158 42.9667 54.4246 42.46C53.6913 41.94 52.8113 41.68 51.7846 41.68C50.7446 41.68 49.818 41.9267 49.0046 42.42C48.2046 42.9133 47.578 43.6 47.1246 44.48C46.6713 45.36 46.4446 46.3867 46.4446 47.56C46.4446 48.72 46.6713 49.74 47.1246 50.62C47.578 51.5 48.2046 52.1867 49.0046 52.68C49.818 53.1733 50.7446 53.42 51.7846 53.42C52.8113 53.42 53.6913 53.1667 54.4246 52.66C55.158 52.14 55.698 51.4667 56.0446 50.64L57.8446 51.46C57.6046 52.1133 57.198 52.7267 56.6246 53.3C56.0646 53.8733 55.3713 54.34 54.5446 54.7C53.7313 55.06 52.8113 55.24 51.7846 55.24ZM63.2553 55.24C62.5486 55.24 61.9219 55.1133 61.3753 54.86C60.8419 54.5933 60.4219 54.2333 60.1153 53.78C59.8086 53.3133 59.6553 52.78 59.6553 52.18C59.6553 51.6067 59.7753 51.0933 60.0153 50.64C60.2686 50.1733 60.6553 49.78 61.1753 49.46C61.7086 49.14 62.3753 48.9133 63.1753 48.78L67.1753 48.12V49.68L63.5953 50.28C62.9019 50.4 62.3953 50.62 62.0753 50.94C61.7686 51.26 61.6153 51.6533 61.6153 52.12C61.6153 52.56 61.7886 52.9267 62.1353 53.22C62.4953 53.5133 62.9419 53.66 63.4753 53.66C64.1553 53.66 64.7419 53.52 65.2353 53.24C65.7419 52.9467 66.1353 52.5533 66.4153 52.06C66.7086 51.5667 66.8553 51.02 66.8553 50.42V47.68C66.8553 47.0933 66.6353 46.62 66.1953 46.26C65.7686 45.8867 65.2019 45.7 64.4953 45.7C63.8819 45.7 63.3353 45.86 62.8553 46.18C62.3886 46.4867 62.0419 46.9 61.8153 47.42L60.1953 46.58C60.3953 46.0867 60.7153 45.6467 61.1553 45.26C61.5953 44.86 62.1086 44.5467 62.6953 44.32C63.2819 44.0933 63.8953 43.98 64.5353 43.98C65.3619 43.98 66.0886 44.14 66.7153 44.46C67.3419 44.7667 67.8286 45.2 68.1753 45.76C68.5353 46.3067 68.7153 46.9467 68.7153 47.68V55H66.8953V52.96L67.2353 53.08C67.0086 53.5067 66.7019 53.88 66.3153 54.2C65.9286 54.52 65.4753 54.7733 64.9553 54.96C64.4353 55.1467 63.8686 55.24 63.2553 55.24ZM75.4592 55.24C74.3792 55.24 73.4392 54.9733 72.6392 54.44C71.8392 53.9067 71.2725 53.1867 70.9392 52.28L72.4192 51.56C72.7258 52.2 73.1458 52.7067 73.6792 53.08C74.2125 53.4533 74.8058 53.64 75.4592 53.64C76.0458 53.64 76.5325 53.5 76.9192 53.22C77.3058 52.94 77.4992 52.5733 77.4992 52.12C77.4992 51.8 77.4058 51.5467 77.2192 51.36C77.0458 51.16 76.8325 51.0067 76.5792 50.9C76.3258 50.78 76.0925 50.6933 75.8792 50.64L74.2592 50.18C73.2858 49.9 72.5725 49.5 72.1192 48.98C71.6792 48.46 71.4592 47.8533 71.4592 47.16C71.4592 46.52 71.6192 45.9667 71.9392 45.5C72.2725 45.02 72.7192 44.6467 73.2792 44.38C73.8525 44.1133 74.4925 43.98 75.1992 43.98C76.1458 43.98 76.9925 44.22 77.7392 44.7C78.4992 45.18 79.0392 45.8533 79.3592 46.72L77.8392 47.42C77.5992 46.86 77.2392 46.42 76.7592 46.1C76.2792 45.7667 75.7392 45.6 75.1392 45.6C74.5925 45.6 74.1592 45.74 73.8392 46.02C73.5192 46.2867 73.3592 46.6267 73.3592 47.04C73.3592 47.3467 73.4392 47.6 73.5992 47.8C73.7592 47.9867 73.9525 48.1333 74.1792 48.24C74.4058 48.3333 74.6258 48.4133 74.8392 48.48L76.5992 49C77.4792 49.2533 78.1592 49.6467 78.6392 50.18C79.1325 50.7133 79.3792 51.3533 79.3792 52.1C79.3792 52.7 79.2125 53.24 78.8792 53.72C78.5458 54.2 78.0858 54.5733 77.4992 54.84C76.9125 55.1067 76.2325 55.24 75.4592 55.24ZM81.814 55V39.86H83.674V46.32L83.334 46.14C83.6007 45.46 84.0274 44.9333 84.614 44.56C85.214 44.1733 85.914 43.98 86.714 43.98C87.4874 43.98 88.174 44.1533 88.774 44.5C89.3874 44.8467 89.8674 45.3267 90.214 45.94C90.574 46.5533 90.754 47.2467 90.754 48.02V55H88.874V48.62C88.874 48.02 88.7607 47.5133 88.534 47.1C88.3207 46.6867 88.0207 46.3667 87.634 46.14C87.2474 45.9 86.8007 45.78 86.294 45.78C85.8007 45.78 85.354 45.9 84.954 46.14C84.554 46.3667 84.2407 46.6933 84.014 47.12C83.7874 47.5333 83.674 48.0333 83.674 48.62V55H81.814ZM99.6926 55V41.9H95.6526V40.1H105.653V41.9H101.673V55H99.6926ZM106.13 55V44.22H107.95V46.2L107.75 45.92C108.004 45.3067 108.39 44.8533 108.91 44.56C109.43 44.2533 110.064 44.1 110.81 44.1H111.47V45.86H110.53C109.77 45.86 109.157 46.1 108.69 46.58C108.224 47.0467 107.99 47.7133 107.99 48.58V55H106.13ZM116.283 55.24C115.576 55.24 114.949 55.1133 114.403 54.86C113.869 54.5933 113.449 54.2333 113.143 53.78C112.836 53.3133 112.683 52.78 112.683 52.18C112.683 51.6067 112.803 51.0933 113.043 50.64C113.296 50.1733 113.683 49.78 114.203 49.46C114.736 49.14 115.403 48.9133 116.203 48.78L120.203 48.12V49.68L116.623 50.28C115.929 50.4 115.423 50.62 115.103 50.94C114.796 51.26 114.643 51.6533 114.643 52.12C114.643 52.56 114.816 52.9267 115.163 53.22C115.523 53.5133 115.969 53.66 116.503 53.66C117.183 53.66 117.769 53.52 118.263 53.24C118.769 52.9467 119.163 52.5533 119.443 52.06C119.736 51.5667 119.883 51.02 119.883 50.42V47.68C119.883 47.0933 119.663 46.62 119.223 46.26C118.796 45.8867 118.229 45.7 117.523 45.7C116.909 45.7 116.363 45.86 115.883 46.18C115.416 46.4867 115.069 46.9 114.843 47.42L113.223 46.58C113.423 46.0867 113.743 45.6467 114.183 45.26C114.623 44.86 115.136 44.5467 115.723 44.32C116.309 44.0933 116.923 43.98 117.563 43.98C118.389 43.98 119.116 44.14 119.743 44.46C120.369 44.7667 120.856 45.2 121.203 45.76C121.563 46.3067 121.743 46.9467 121.743 47.68V55H119.923V52.96L120.263 53.08C120.036 53.5067 119.729 53.88 119.343 54.2C118.956 54.52 118.503 54.7733 117.983 54.96C117.463 55.1467 116.896 55.24 116.283 55.24ZM124.627 55V44.22H126.447V46.32L126.147 46.14C126.413 45.46 126.84 44.9333 127.427 44.56C128.027 44.1733 128.727 43.98 129.527 43.98C130.3 43.98 130.987 44.1533 131.587 44.5C132.2 44.8467 132.68 45.3267 133.027 45.94C133.387 46.5533 133.567 47.2467 133.567 48.02V55H131.687V48.62C131.687 48.02 131.58 47.5133 131.367 47.1C131.153 46.6867 130.847 46.3667 130.447 46.14C130.06 45.9 129.613 45.78 129.107 45.78C128.6 45.78 128.147 45.9 127.747 46.14C127.36 46.3667 127.053 46.6933 126.827 47.12C126.6 47.5333 126.487 48.0333 126.487 48.62V55H124.627ZM140.088 55.24C139.008 55.24 138.068 54.9733 137.268 54.44C136.468 53.9067 135.901 53.1867 135.568 52.28L137.048 51.56C137.355 52.2 137.775 52.7067 138.308 53.08C138.841 53.4533 139.435 53.64 140.088 53.64C140.675 53.64 141.161 53.5 141.548 53.22C141.935 52.94 142.128 52.5733 142.128 52.12C142.128 51.8 142.035 51.5467 141.848 51.36C141.675 51.16 141.461 51.0067 141.208 50.9C140.955 50.78 140.721 50.6933 140.508 50.64L138.888 50.18C137.915 49.9 137.201 49.5 136.748 48.98C136.308 48.46 136.088 47.8533 136.088 47.16C136.088 46.52 136.248 45.9667 136.568 45.5C136.901 45.02 137.348 44.6467 137.908 44.38C138.481 44.1133 139.121 43.98 139.828 43.98C140.775 43.98 141.621 44.22 142.368 44.7C143.128 45.18 143.668 45.8533 143.988 46.72L142.468 47.42C142.228 46.86 141.868 46.42 141.388 46.1C140.908 45.7667 140.368 45.6 139.768 45.6C139.221 45.6 138.788 45.74 138.468 46.02C138.148 46.2867 137.988 46.6267 137.988 47.04C137.988 47.3467 138.068 47.6 138.228 47.8C138.388 47.9867 138.581 48.1333 138.808 48.24C139.035 48.3333 139.255 48.4133 139.468 48.48L141.228 49C142.108 49.2533 142.788 49.6467 143.268 50.18C143.761 50.7133 144.008 51.3533 144.008 52.1C144.008 52.7 143.841 53.24 143.508 53.72C143.175 54.2 142.715 54.5733 142.128 54.84C141.541 55.1067 140.861 55.24 140.088 55.24ZM147.583 55V46H145.523V44.22H147.583V43.46C147.583 42.6867 147.75 42.0333 148.083 41.5C148.43 40.9667 148.883 40.56 149.443 40.28C150.016 40 150.65 39.86 151.343 39.86C151.49 39.86 151.65 39.8733 151.823 39.9C152.01 39.9133 152.163 39.9333 152.283 39.96V41.62C152.176 41.5933 152.05 41.58 151.903 41.58C151.756 41.5667 151.643 41.56 151.563 41.56C150.95 41.56 150.443 41.7067 150.043 42C149.656 42.2933 149.463 42.78 149.463 43.46V44.22H152.023V46H149.463V55H147.583ZM158.844 55.24C157.804 55.24 156.878 54.9933 156.064 54.5C155.251 54.0067 154.611 53.3333 154.144 52.48C153.678 51.6133 153.444 50.6467 153.444 49.58C153.444 48.5 153.671 47.54 154.124 46.7C154.591 45.86 155.218 45.2 156.004 44.72C156.804 44.2267 157.698 43.98 158.684 43.98C159.484 43.98 160.191 44.1267 160.804 44.42C161.431 44.7 161.958 45.0867 162.384 45.58C162.824 46.06 163.158 46.6133 163.384 47.24C163.624 47.8533 163.744 48.4933 163.744 49.16C163.744 49.3067 163.731 49.4733 163.704 49.66C163.691 49.8333 163.671 50 163.644 50.16H154.804V48.56H162.564L161.684 49.28C161.804 48.5867 161.738 47.9667 161.484 47.42C161.231 46.8733 160.858 46.44 160.364 46.12C159.871 45.8 159.311 45.64 158.684 45.64C158.058 45.64 157.484 45.8 156.964 46.12C156.444 46.44 156.038 46.9 155.744 47.5C155.464 48.0867 155.351 48.7867 155.404 49.6C155.351 50.3867 155.471 51.08 155.764 51.68C156.071 52.2667 156.498 52.7267 157.044 53.06C157.604 53.38 158.211 53.54 158.864 53.54C159.584 53.54 160.191 53.3733 160.684 53.04C161.178 52.7067 161.578 52.28 161.884 51.76L163.444 52.56C163.231 53.0533 162.898 53.5067 162.444 53.92C162.004 54.32 161.478 54.64 160.864 54.88C160.264 55.12 159.591 55.24 158.844 55.24ZM166.169 55V44.22H167.989V46.2L167.789 45.92C168.043 45.3067 168.429 44.8533 168.949 44.56C169.469 44.2533 170.103 44.1 170.849 44.1H171.509V45.86H170.569C169.809 45.86 169.196 46.1 168.729 46.58C168.263 47.0467 168.029 47.7133 168.029 48.58V55H166.169ZM173.162 55V44.22H174.982V46.2L174.782 45.92C175.035 45.3067 175.422 44.8533 175.942 44.56C176.462 44.2533 177.095 44.1 177.842 44.1H178.502V45.86H177.562C176.802 45.86 176.188 46.1 175.722 46.58C175.255 47.0467 175.022 47.7133 175.022 48.58V55H173.162ZM185.114 55.24C184.074 55.24 183.147 54.9933 182.334 54.5C181.521 54.0067 180.881 53.3333 180.414 52.48C179.947 51.6133 179.714 50.6467 179.714 49.58C179.714 48.5 179.941 47.54 180.394 46.7C180.861 45.86 181.487 45.2 182.274 44.72C183.074 44.2267 183.967 43.98 184.954 43.98C185.754 43.98 186.461 44.1267 187.074 44.42C187.701 44.7 188.227 45.0867 188.654 45.58C189.094 46.06 189.427 46.6133 189.654 47.24C189.894 47.8533 190.014 48.4933 190.014 49.16C190.014 49.3067 190.001 49.4733 189.974 49.66C189.961 49.8333 189.941 50 189.914 50.16H181.074V48.56H188.834L187.954 49.28C188.074 48.5867 188.007 47.9667 187.754 47.42C187.501 46.8733 187.127 46.44 186.634 46.12C186.141 45.8 185.581 45.64 184.954 45.64C184.327 45.64 183.754 45.8 183.234 46.12C182.714 46.44 182.307 46.9 182.014 47.5C181.734 48.0867 181.621 48.7867 181.674 49.6C181.621 50.3867 181.741 51.08 182.034 51.68C182.341 52.2667 182.767 52.7267 183.314 53.06C183.874 53.38 184.481 53.54 185.134 53.54C185.854 53.54 186.461 53.3733 186.954 53.04C187.447 52.7067 187.847 52.28 188.154 51.76L189.714 52.56C189.501 53.0533 189.167 53.5067 188.714 53.92C188.274 54.32 187.747 54.64 187.134 54.88C186.534 55.12 185.861 55.24 185.114 55.24ZM197.339 55.24C196.326 55.24 195.412 54.9933 194.599 54.5C193.799 54.0067 193.166 53.3333 192.699 52.48C192.232 51.6267 191.999 50.6733 191.999 49.62C191.999 48.54 192.232 47.58 192.699 46.74C193.166 45.8867 193.799 45.2133 194.599 44.72C195.412 44.2267 196.326 43.98 197.339 43.98C198.232 43.98 199.026 44.1733 199.719 44.56C200.412 44.9333 200.959 45.44 201.359 46.08L201.059 46.54V39.86H202.939V55H201.119V52.7L201.359 53.02C200.986 53.7267 200.439 54.2733 199.719 54.66C199.012 55.0467 198.219 55.24 197.339 55.24ZM197.499 53.44C198.179 53.44 198.786 53.2733 199.319 52.94C199.852 52.6067 200.272 52.1533 200.579 51.58C200.899 50.9933 201.059 50.34 201.059 49.62C201.059 48.8867 200.899 48.2333 200.579 47.66C200.272 47.0733 199.852 46.6133 199.319 46.28C198.786 45.9467 198.179 45.78 197.499 45.78C196.832 45.78 196.226 45.9533 195.679 46.3C195.146 46.6333 194.726 47.0867 194.419 47.66C194.112 48.22 193.959 48.8733 193.959 49.62C193.959 50.34 194.112 50.9933 194.419 51.58C194.726 52.1533 195.146 52.6067 195.679 52.94C196.212 53.2733 196.819 53.44 197.499 53.44Z" fill="black" fill-opacity="0.85"/>
<path d="M46.0486 114V96.12H50.0806L56.8246 112.416L55.8166 112.704V96.12H58.9606V114H54.8806L48.2566 97.584L49.1926 97.32V114H46.0486ZM44.1286 106.056V104.04H60.8806V106.056H44.1286ZM65.862 114V98.904H62.406V96.12H69.126V114H65.862ZM79.8856 114.288C78.4616 114.288 77.2136 113.904 76.1416 113.136C75.0696 112.368 74.2296 111.288 73.6216 109.896C73.0296 108.504 72.7336 106.888 72.7336 105.048C72.7336 103.192 73.0296 101.576 73.6216 100.2C74.2136 98.824 75.0456 97.752 76.1176 96.984C77.1896 96.216 78.4376 95.832 79.8616 95.832C81.3176 95.832 82.5736 96.216 83.6296 96.984C84.7016 97.752 85.5416 98.832 86.1496 100.224C86.7576 101.6 87.0616 103.208 87.0616 105.048C87.0616 106.888 86.7576 108.504 86.1496 109.896C85.5576 111.272 84.7256 112.352 83.6536 113.136C82.5816 113.904 81.3256 114.288 79.8856 114.288ZM79.9096 111.312C80.7256 111.312 81.4216 111.064 81.9976 110.568C82.5736 110.056 83.0136 109.336 83.3176 108.408C83.6376 107.464 83.7976 106.344 83.7976 105.048C83.7976 103.752 83.6376 102.64 83.3176 101.712C83.0136 100.768 82.5656 100.048 81.9736 99.552C81.3976 99.056 80.6936 98.808 79.8616 98.808C79.0616 98.808 78.3736 99.056 77.7976 99.552C77.2216 100.048 76.7736 100.768 76.4536 101.712C76.1496 102.64 75.9976 103.752 75.9976 105.048C75.9976 106.328 76.1496 107.44 76.4536 108.384C76.7736 109.312 77.2216 110.032 77.7976 110.544C78.3896 111.056 79.0936 111.312 79.9096 111.312ZM96.8778 114.288C95.4538 114.288 94.2058 113.904 93.1338 113.136C92.0618 112.368 91.2218 111.288 90.6138 109.896C90.0218 108.504 89.7258 106.888 89.7258 105.048C89.7258 103.192 90.0218 101.576 90.6138 100.2C91.2058 98.824 92.0378 97.752 93.1098 96.984C94.1818 96.216 95.4298 95.832 96.8538 95.832C98.3098 95.832 99.5658 96.216 100.622 96.984C101.694 97.752 102.534 98.832 103.142 100.224C103.75 101.6 104.054 103.208 104.054 105.048C104.054 106.888 103.75 108.504 103.142 109.896C102.55 111.272 101.718 112.352 100.646 113.136C99.5738 113.904 98.3178 114.288 96.8778 114.288ZM96.9018 111.312C97.7178 111.312 98.4138 111.064 98.9898 110.568C99.5658 110.056 100.006 109.336 100.31 108.408C100.63 107.464 100.79 106.344 100.79 105.048C100.79 103.752 100.63 102.64 100.31 101.712C100.006 100.768 99.5578 100.048 98.9658 99.552C98.3898 99.056 97.6858 98.808 96.8538 98.808C96.0538 98.808 95.3658 99.056 94.7898 99.552C94.2138 100.048 93.7658 100.768 93.4458 101.712C93.1418 102.64 92.9898 103.752 92.9898 105.048C92.9898 106.328 93.1418 107.44 93.4458 108.384C93.7658 109.312 94.2138 110.032 94.7898 110.544C95.3818 111.056 96.0858 111.312 96.9018 111.312ZM107.846 117.744V116.184C108.374 116.056 108.798 115.808 109.118 115.44C109.454 115.088 109.662 114.608 109.742 114H108.326V110.64H111.494V112.704C111.494 114.112 111.182 115.24 110.558 116.088C109.95 116.936 109.046 117.488 107.846 117.744ZM122.448 114.288C121.024 114.288 119.776 113.904 118.704 113.136C117.632 112.368 116.792 111.288 116.184 109.896C115.592 108.504 115.296 106.888 115.296 105.048C115.296 103.192 115.592 101.576 116.184 100.2C116.776 98.824 117.608 97.752 118.68 96.984C119.752 96.216 121 95.832 122.424 95.832C123.88 95.832 125.136 96.216 126.192 96.984C127.264 97.752 128.104 98.832 128.712 100.224C129.32 101.6 129.624 103.208 129.624 105.048C129.624 106.888 129.32 108.504 128.712 109.896C128.12 111.272 127.288 112.352 126.216 113.136C125.144 113.904 123.888 114.288 122.448 114.288ZM122.472 111.312C123.288 111.312 123.984 111.064 124.56 110.568C125.136 110.056 125.576 109.336 125.88 108.408C126.2 107.464 126.36 106.344 126.36 105.048C126.36 103.752 126.2 102.64 125.88 101.712C125.576 100.768 125.128 100.048 124.536 99.552C123.96 99.056 123.256 98.808 122.424 98.808C121.624 98.808 120.936 99.056 120.36 99.552C119.784 100.048 119.336 100.768 119.016 101.712C118.712 102.64 118.56 103.752 118.56 105.048C118.56 106.328 118.712 107.44 119.016 108.384C119.336 109.312 119.784 110.032 120.36 110.544C120.952 111.056 121.656 111.312 122.472 111.312ZM139.44 114.288C138.016 114.288 136.768 113.904 135.696 113.136C134.624 112.368 133.784 111.288 133.176 109.896C132.584 108.504 132.288 106.888 132.288 105.048C132.288 103.192 132.584 101.576 133.176 100.2C133.768 98.824 134.6 97.752 135.672 96.984C136.744 96.216 137.992 95.832 139.416 95.832C140.872 95.832 142.128 96.216 143.184 96.984C144.256 97.752 145.096 98.832 145.704 100.224C146.312 101.6 146.616 103.208 146.616 105.048C146.616 106.888 146.312 108.504 145.704 109.896C145.112 111.272 144.28 112.352 143.208 113.136C142.136 113.904 140.88 114.288 139.44 114.288ZM139.464 111.312C140.28 111.312 140.976 111.064 141.552 110.568C142.128 110.056 142.568 109.336 142.872 108.408C143.192 107.464 143.352 106.344 143.352 105.048C143.352 103.752 143.192 102.64 142.872 101.712C142.568 100.768 142.12 100.048 141.528 99.552C140.952 99.056 140.248 98.808 139.416 98.808C138.616 98.808 137.928 99.056 137.352 99.552C136.776 100.048 136.328 100.768 136.008 101.712C135.704 102.64 135.552 103.752 135.552 105.048C135.552 106.328 135.704 107.44 136.008 108.384C136.328 109.312 136.776 110.032 137.352 110.544C137.944 111.056 138.648 111.312 139.464 111.312ZM156.433 114.288C155.009 114.288 153.761 113.904 152.689 113.136C151.617 112.368 150.777 111.288 150.169 109.896C149.577 108.504 149.281 106.888 149.281 105.048C149.281 103.192 149.577 101.576 150.169 100.2C150.761 98.824 151.593 97.752 152.665 96.984C153.737 96.216 154.985 95.832 156.409 95.832C157.865 95.832 159.121 96.216 160.177 96.984C161.249 97.752 162.089 98.832 162.697 100.224C163.305 101.6 163.609 103.208 163.609 105.048C163.609 106.888 163.305 108.504 162.697 109.896C162.105 111.272 161.273 112.352 160.201 113.136C159.129 113.904 157.873 114.288 156.433 114.288ZM156.457 111.312C157.273 111.312 157.969 111.064 158.545 110.568C159.121 110.056 159.561 109.336 159.865 108.408C160.185 107.464 160.345 106.344 160.345 105.048C160.345 103.752 160.185 102.64 159.865 101.712C159.561 100.768 159.113 100.048 158.521 99.552C157.945 99.056 157.241 98.808 156.409 98.808C155.609 98.808 154.921 99.056 154.345 99.552C153.769 100.048 153.321 100.768 153.001 101.712C152.697 102.64 152.545 103.752 152.545 105.048C152.545 106.328 152.697 107.44 153.001 108.384C153.321 109.312 153.769 110.032 154.345 110.544C154.937 111.056 155.641 111.312 156.457 111.312Z" fill="black" fill-opacity="0.85"/>
<path d="M171.03 106.79V105.065H177.405V106.79H171.03ZM179.395 110V108.455L182.425 105.29C183.025 104.66 183.485 104.16 183.805 103.79C184.135 103.41 184.365 103.085 184.495 102.815C184.625 102.545 184.69 102.27 184.69 101.99C184.69 101.52 184.54 101.15 184.24 100.88C183.95 100.61 183.575 100.475 183.115 100.475C182.635 100.475 182.22 100.615 181.87 100.895C181.52 101.165 181.265 101.565 181.105 102.095L179.32 101.54C179.44 100.95 179.685 100.44 180.055 100.01C180.425 99.57 180.875 99.235 181.405 99.005C181.945 98.765 182.515 98.645 183.115 98.645C183.835 98.645 184.465 98.775 185.005 99.035C185.555 99.295 185.98 99.66 186.28 100.13C186.59 100.6 186.745 101.15 186.745 101.78C186.745 102.18 186.67 102.575 186.52 102.965C186.37 103.355 186.145 103.755 185.845 104.165C185.545 104.565 185.155 105.015 184.675 105.515L182.05 108.275H186.895V110H179.395ZM189.5 110V107.9H191.48V110H189.5ZM197.779 110.18C197.189 110.18 196.624 110.07 196.084 109.85C195.554 109.63 195.094 109.32 194.704 108.92C194.324 108.51 194.064 108.025 193.924 107.465L195.694 106.835C195.864 107.345 196.139 107.725 196.519 107.975C196.899 108.215 197.319 108.335 197.779 108.335C198.159 108.335 198.494 108.255 198.784 108.095C199.084 107.925 199.314 107.695 199.474 107.405C199.634 107.105 199.714 106.76 199.714 106.37C199.714 105.98 199.629 105.64 199.459 105.35C199.299 105.06 199.074 104.835 198.784 104.675C198.494 104.505 198.159 104.42 197.779 104.42C197.389 104.42 197.034 104.505 196.714 104.675C196.404 104.845 196.179 105.09 196.039 105.41L194.374 105.035L195.259 98.825H201.349V100.55H196.069L196.834 99.665L196.204 104.345L195.619 103.865C195.899 103.455 196.239 103.155 196.639 102.965C197.049 102.775 197.544 102.68 198.124 102.68C198.864 102.68 199.504 102.84 200.044 103.16C200.594 103.48 201.019 103.915 201.319 104.465C201.619 105.015 201.769 105.65 201.769 106.37C201.769 107.09 201.594 107.74 201.244 108.32C200.894 108.9 200.419 109.355 199.819 109.685C199.219 110.015 198.539 110.18 197.779 110.18ZM204.847 110L213.907 98.825H216.007L206.947 110H204.847ZM206.587 104.495C206.037 104.495 205.537 104.365 205.087 104.105C204.647 103.835 204.297 103.48 204.037 103.04C203.777 102.6 203.647 102.11 203.647 101.57C203.647 101.03 203.777 100.54 204.037 100.1C204.297 99.65 204.647 99.295 205.087 99.035C205.537 98.775 206.037 98.645 206.587 98.645C207.147 98.645 207.647 98.775 208.087 99.035C208.527 99.295 208.877 99.65 209.137 100.1C209.397 100.54 209.527 101.03 209.527 101.57C209.527 102.11 209.397 102.6 209.137 103.04C208.877 103.48 208.527 103.835 208.087 104.105C207.647 104.365 207.147 104.495 206.587 104.495ZM206.587 102.98C206.887 102.98 207.137 102.915 207.337 102.785C207.537 102.645 207.687 102.47 207.787 102.26C207.897 102.04 207.952 101.81 207.952 101.57C207.952 101.32 207.897 101.09 207.787 100.88C207.687 100.67 207.537 100.495 207.337 100.355C207.137 100.215 206.887 100.145 206.587 100.145C206.307 100.145 206.062 100.215 205.852 100.355C205.652 100.495 205.497 100.675 205.387 100.895C205.277 101.105 205.222 101.33 205.222 101.57C205.222 101.8 205.277 102.025 205.387 102.245C205.497 102.465 205.652 102.645 205.852 102.785C206.062 102.915 206.307 102.98 206.587 102.98ZM214.207 110.18C213.657 110.18 213.157 110.05 212.707 109.79C212.267 109.52 211.917 109.165 211.657 108.725C211.397 108.285 211.267 107.795 211.267 107.255C211.267 106.715 211.397 106.225 211.657 105.785C211.917 105.335 212.267 104.98 212.707 104.72C213.157 104.46 213.657 104.33 214.207 104.33C214.767 104.33 215.267 104.46 215.707 104.72C216.147 104.98 216.497 105.335 216.757 105.785C217.017 106.225 217.147 106.715 217.147 107.255C217.147 107.795 217.017 108.285 216.757 108.725C216.497 109.165 216.147 109.52 215.707 109.79C215.267 110.05 214.767 110.18 214.207 110.18ZM214.207 108.665C214.497 108.665 214.742 108.6 214.942 108.47C215.152 108.33 215.307 108.155 215.407 107.945C215.517 107.725 215.572 107.495 215.572 107.255C215.572 107.005 215.517 106.775 215.407 106.565C215.307 106.355 215.152 106.18 214.942 106.04C214.742 105.9 214.497 105.83 214.207 105.83C213.927 105.83 213.682 105.9 213.472 106.04C213.272 106.18 213.117 106.36 213.007 106.58C212.897 106.79 212.842 107.015 212.842 107.255C212.842 107.485 212.897 107.71 213.007 107.93C213.117 108.15 213.272 108.33 213.472 108.47C213.682 108.6 213.927 108.665 214.207 108.665Z" fill="#790096"/>
</g>
<defs>
<filter id="filter0_d_101_225" x="0" y="0" width="350" height="217" filterUnits="userSpaceOnUse" color-interpolation-filters="sRGB">
<feFlood flood-opacity="0" result="BackgroundImageFix"/>
<feColorMatrix in="SourceAlpha" type="matrix" values="0 0 0 0 0 0 0 0 0 0 0 0 0 0 0 0 0 0 127 0" result="hardAlpha"/>
<feOffset dx="10" dy="13"/>
<feGaussianBlur stdDeviation="16"/>
<feComposite in2="hardAlpha" operator="out"/>
<feColorMatrix type="matrix" values="0 0 0 0 0 0 0 0 0 0 0 0 0 0 0 0 0 0 0.14 0"/>
<feBlend mode="normal" in2="BackgroundImageFix" result="effect1_dropShadow_101_225"/>
<feBlend mode="normal" in="SourceGraphic" in2="effect1_dropShadow_101_225" result="shape"/>
</filter>
</defs>
</svg>
