<svg width="65" height="17" viewBox="0 0 65 17" fill="none" xmlns="http://www.w3.org/2000/svg">
<path d="M56.4792 3.87112L55.1191 12.3959C55.114 12.4272 55.1158 12.4593 55.1245 12.4898C55.1331 12.5203 55.1483 12.5486 55.169 12.5726C55.1898 12.5967 55.2155 12.6159 55.2445 12.6289C55.2735 12.642 55.305 12.6486 55.3367 12.6482H56.9464C57.0032 12.6487 57.0583 12.6289 57.1017 12.5923C57.1451 12.5558 57.174 12.505 57.1831 12.449L58.5432 3.92421C58.5483 3.89291 58.5465 3.86087 58.5379 3.83035C58.5292 3.79983 58.514 3.77156 58.4933 3.74752C58.4725 3.72348 58.4468 3.70426 58.4178 3.6912C58.3888 3.67814 58.3574 3.67156 58.3256 3.67192H56.7159C56.6589 3.6708 56.6035 3.69039 56.5599 3.72705C56.5164 3.7637 56.4877 3.81491 56.4792 3.87112ZM54.7604 6.35886H53.2331C53.1764 6.3583 53.1213 6.37807 53.078 6.41456C53.0346 6.45105 53.0058 6.50184 52.9968 6.55772L52.9463 6.87156C52.9463 6.87156 51.7601 5.58846 49.6598 6.45558C48.4549 6.95205 47.8765 7.97779 47.6304 8.72925C47.6304 8.72925 46.8493 11.0131 48.616 12.2701C48.616 12.2701 50.2541 13.4792 52.0987 12.1957L52.0669 12.3959C52.0595 12.443 52.0678 12.4911 52.0904 12.533C52.1131 12.5749 52.1489 12.6083 52.1923 12.6279C52.2211 12.6415 52.2526 12.6482 52.2845 12.6482H53.8128C53.8698 12.6493 53.9252 12.6298 53.9688 12.5931C54.0123 12.5564 54.041 12.5052 54.0495 12.449L54.9791 6.61115C54.9843 6.57988 54.9824 6.54785 54.9737 6.51738C54.965 6.4869 54.9495 6.45875 54.9286 6.43495C54.9079 6.4107 54.8821 6.39129 54.853 6.37808C54.8239 6.36488 54.7923 6.35854 54.7604 6.35886ZM52.513 9.58521C52.4534 9.9931 52.2467 10.3653 51.9316 10.6319C51.6151 10.8995 51.2124 11.044 50.7976 11.0388C50.6349 11.0407 50.4729 11.0171 50.3175 10.9691C49.6581 10.7594 49.2818 10.1324 49.3899 9.45264C49.45 9.04496 49.657 8.67308 49.972 8.40661C50.2882 8.13885 50.6907 7.99391 51.1054 7.99842C51.2681 7.99674 51.4301 8.02047 51.5855 8.06876C52.2489 8.27709 52.6235 8.90511 52.5147 9.58555H52.513V9.58521ZM44.3575 9.74653C45.1857 9.74653 45.9868 9.45298 46.6161 8.91931C47.244 8.38744 47.6597 7.64847 47.7877 6.83673C48.0552 5.14813 46.7232 3.67429 44.8348 3.67429H41.7928C41.736 3.67374 41.6809 3.69356 41.6376 3.73011C41.5942 3.76667 41.5654 3.81755 41.5565 3.87348L40.196 12.3983C40.1886 12.4453 40.1969 12.4935 40.2195 12.5354C40.2422 12.5773 40.278 12.6106 40.3214 12.6303C40.3506 12.6438 40.3818 12.6506 40.4136 12.6506H42.0243C42.0811 12.6511 42.1362 12.6313 42.1796 12.5948C42.2229 12.5582 42.2517 12.5073 42.2606 12.4514L42.66 9.9481C42.6684 9.89183 42.6971 9.84054 42.7406 9.80381C42.7842 9.76709 42.8396 9.74745 42.8966 9.74856L44.3575 9.74653ZM45.7048 6.75996C45.6054 7.38426 45.1179 7.84386 44.1853 7.84386H42.9929L43.355 5.57358H44.526C45.4902 5.57527 45.8041 6.13836 45.7048 6.76165V6.75996Z" fill="#0070E0"/>
<path d="M38.3618 6.50355L36.5196 9.58279L35.5846 6.52621C35.5699 6.47743 35.5398 6.43472 35.4987 6.40453C35.4576 6.37433 35.4078 6.35828 35.3567 6.35881H33.6942C33.6512 6.35823 33.6094 6.37317 33.5766 6.40089C33.5437 6.42861 33.5221 6.46723 33.5155 6.50964C33.5115 6.53776 33.5144 6.56644 33.524 6.59317L35.1994 11.7418L33.684 14.168C33.6711 14.188 33.6625 14.2104 33.6586 14.2338C33.6547 14.2572 33.6557 14.2812 33.6614 14.3042C33.6671 14.3273 33.6774 14.3489 33.6918 14.3678C33.7062 14.3867 33.7243 14.4025 33.745 14.4142C33.7728 14.4301 33.8043 14.4383 33.8362 14.4379H35.6269C35.6781 14.4381 35.7283 14.4251 35.7729 14.4002C35.8175 14.3753 35.855 14.3394 35.8816 14.2958L40.5614 6.63004C40.5784 6.60334 40.5877 6.57253 40.5884 6.54093C40.589 6.50934 40.581 6.47817 40.5652 6.45079C40.5493 6.42333 40.5264 6.40059 40.4988 6.38495C40.4712 6.36931 40.4399 6.36133 40.4082 6.36185H38.6181C38.5668 6.36138 38.5162 6.37418 38.4713 6.39902C38.4264 6.42385 38.3887 6.45986 38.3618 6.50355ZM32.7517 6.35881H31.223C31.1662 6.35826 31.111 6.37811 31.0676 6.41473C31.0241 6.45135 30.9953 6.50231 30.9864 6.55834L30.9369 6.87184C30.9369 6.87184 29.7497 5.58874 27.6494 6.45587C26.4449 6.95233 25.8661 7.97807 25.621 8.72954C25.621 8.72954 24.8392 11.0133 26.6056 12.2704C26.6056 12.2704 28.2441 13.4794 30.0887 12.196L30.0568 12.3962C30.0493 12.4433 30.0575 12.4915 30.0802 12.5334C30.1029 12.5753 30.1387 12.6086 30.1822 12.6282C30.2111 12.6417 30.2426 12.6485 30.2745 12.6485H31.8028C31.8595 12.6489 31.9145 12.6291 31.9579 12.5925C32.0012 12.556 32.03 12.5052 32.0391 12.4493L32.969 6.61144C32.9766 6.56434 32.9684 6.51607 32.9457 6.47407C32.9231 6.43208 32.8872 6.3987 32.8436 6.3791C32.8146 6.36582 32.7835 6.3589 32.7517 6.35881ZM30.504 9.58584C30.4438 9.99322 30.237 10.3648 29.9222 10.6312C29.6059 10.8988 29.2035 11.0436 28.7889 11.0391C28.6264 11.0409 28.4647 11.0173 28.3095 10.9694C27.6504 10.7597 27.2744 10.1327 27.3826 9.45259C27.4428 9.04402 27.6506 8.67145 27.9667 8.40487C28.2841 8.13713 28.6878 7.99287 29.1035 7.9987C29.2662 7.99701 29.4286 8.02068 29.5839 8.06905C30.2406 8.27737 30.6145 8.90506 30.506 9.58584H30.504ZM22.3488 9.74682C23.1756 9.74639 23.9754 9.45284 24.6053 8.91858C25.2327 8.38673 25.6479 7.64801 25.7756 6.83667C26.0435 5.14842 24.7111 3.67457 22.8234 3.67457H19.781C19.7243 3.67401 19.6692 3.69376 19.6258 3.73024C19.5823 3.76673 19.5535 3.81753 19.5444 3.87343L18.1883 12.3959C18.1807 12.443 18.1889 12.4912 18.2116 12.5332C18.2342 12.5752 18.2701 12.6086 18.3137 12.6282C18.3426 12.6414 18.3741 12.6485 18.4059 12.6485H20.0156C20.0725 12.6491 20.1277 12.6292 20.1711 12.5926C20.2145 12.556 20.2433 12.505 20.2523 12.449L20.651 9.94568C20.6594 9.88947 20.6881 9.83826 20.7317 9.8016C20.7752 9.76495 20.8306 9.74536 20.8876 9.74648L22.3488 9.74682ZM23.6961 6.7599C23.5967 7.38421 23.1096 7.84381 22.1769 7.84381H20.9846L21.346 5.57352H22.5169C23.4815 5.57521 23.7951 6.13864 23.6961 6.76159V6.7599Z" fill="white"/>
<path d="M11.9417 4.11259C11.978 2.23021 10.4216 0.786133 8.28132 0.786133H3.85436C3.7512 0.786084 3.65141 0.822786 3.57297 0.889626C3.49453 0.956466 3.44259 1.04905 3.42652 1.1507L1.65275 12.2072C1.64481 12.2573 1.64786 12.3086 1.66167 12.3574C1.67548 12.4062 1.69974 12.4514 1.73276 12.49C1.76579 12.5286 1.8068 12.5596 1.85298 12.5808C1.89916 12.602 1.9494 12.613 2.00025 12.6131H4.62293L4.21305 15.1732C4.20511 15.2233 4.20816 15.2745 4.22197 15.3233C4.23578 15.3721 4.26004 15.4174 4.29306 15.456C4.32609 15.4945 4.3671 15.5255 4.41328 15.5467C4.45945 15.568 4.5097 15.579 4.56055 15.579H6.69707C6.80013 15.579 6.89201 15.5421 6.97066 15.4755C7.04863 15.4086 7.06152 15.3162 7.07779 15.2144L7.70498 11.5336C7.72092 11.4321 7.77279 11.3002 7.8511 11.2332C7.92942 11.1663 7.9979 11.1297 8.1013 11.1297H9.40857C11.5047 11.1297 13.2829 9.64339 13.608 7.57636C13.8382 6.10928 13.2077 4.77444 11.9417 4.11259Z" fill="#FDF6FF"/>
<path d="M5.19082 8.53528L4.53752 12.6673L4.12731 15.2592C4.11942 15.3093 4.12251 15.3605 4.13637 15.4093C4.15023 15.4581 4.17452 15.5034 4.20758 15.5419C4.24063 15.5804 4.28167 15.6114 4.32786 15.6326C4.37405 15.6538 4.4243 15.6647 4.47514 15.6647H6.73642C6.83949 15.6647 6.93915 15.6279 7.01747 15.5611C7.09578 15.4942 7.1476 15.4017 7.16359 15.3001L7.75959 11.533C7.77566 11.4314 7.82755 11.3389 7.90592 11.2721C7.98429 11.2052 8.084 11.1685 8.1871 11.1684H9.51811C11.6143 11.1684 13.3925 9.6432 13.7179 7.57617C13.9485 6.10909 13.208 4.7739 11.9421 4.11206C11.9387 4.26831 11.9252 4.42421 11.9011 4.57877C11.576 6.64512 9.79712 8.17071 7.70162 8.17071H5.61833C5.51519 8.17082 5.41548 8.20763 5.33712 8.27452C5.25875 8.34141 5.20688 8.43365 5.19082 8.53528Z" fill="#0070E0"/>
<path d="M4.53703 12.6672H1.90622C1.85538 12.6672 1.80514 12.6562 1.75898 12.635C1.71282 12.6137 1.67182 12.5827 1.63882 12.5442C1.60582 12.5056 1.5816 12.4603 1.56783 12.4115C1.55406 12.3627 1.55107 12.3115 1.55906 12.2614L3.33282 1.04084C3.34889 0.939246 3.40078 0.846706 3.47915 0.779873C3.55752 0.71304 3.65723 0.676302 3.76033 0.67627H8.28154C10.4218 0.67627 11.9782 2.22993 11.942 4.11197C11.4094 3.8333 10.7835 3.67401 10.098 3.67401H6.32877C6.22561 3.67396 6.12582 3.71066 6.04737 3.7775C5.96893 3.84434 5.917 3.93693 5.90092 4.03858L5.19101 8.53519L4.53669 12.6672H4.53703Z" fill="white"/>
</svg>
