<svg width="316" height="186" viewBox="0 0 316 186" fill="none" xmlns="http://www.w3.org/2000/svg">
<circle cx="299" cy="22" r="9.5" stroke="#212121"/>
<path d="M60.4668 27.3074C61.3568 27.311 62.0864 27.4289 62.6557 27.6611C63.235 27.8834 63.6639 28.2201 63.9425 28.6712C64.221 29.1223 64.3592 29.6879 64.357 30.3679C64.3552 30.9379 64.2487 31.4124 64.0375 31.7916C63.8262 32.1708 63.5553 32.4747 63.2245 32.7034C62.9038 32.9221 62.5633 33.0958 62.2029 33.2244L65.1275 38.036L63.5525 38.0297L60.9717 33.5945L58.8417 33.5861L58.8275 38.011L57.4775 38.0057L57.5118 27.2957L60.4668 27.3074ZM60.3881 28.4771L58.8581 28.4711L58.8453 32.4461L60.4503 32.4524C61.0303 32.4547 61.5056 32.3816 61.876 32.2331C62.2465 32.0745 62.5173 31.8456 62.6882 31.5463C62.8692 31.247 62.9604 30.8723 62.9618 30.4223C62.9634 29.9523 62.8696 29.577 62.6805 29.2962C62.5013 29.0155 62.222 28.8094 61.8424 28.6779C61.4628 28.5464 60.9781 28.4795 60.3881 28.4771ZM69.7597 29.8643C70.4497 29.867 71.0392 30.0193 71.5283 30.3213C72.0273 30.6232 72.4059 31.0497 72.6642 31.6008C72.9324 32.1418 73.0654 32.7774 73.0631 33.5074L73.0605 34.3024L67.5556 34.2806C67.5726 35.1906 67.8004 35.8865 68.2389 36.3683C68.6874 36.8401 69.3116 37.0775 70.1116 37.0807C70.6216 37.0827 71.0717 37.0395 71.462 36.9511C71.8623 36.8526 72.2728 36.7143 72.6934 36.5359L72.6897 37.6909C72.2791 37.8693 71.8737 37.9977 71.4734 38.0761C71.0731 38.1645 70.598 38.2076 70.048 38.2055C69.288 38.2025 68.6135 38.0448 68.0245 37.7324C67.4455 37.4202 66.992 36.9584 66.6639 36.347C66.3459 35.7258 66.1883 34.9702 66.1912 34.0802C66.194 33.2002 66.3414 32.4457 66.6335 31.8169C66.9355 31.1881 67.352 30.7047 67.8831 30.3668C68.4242 30.029 69.0497 29.8614 69.7597 29.8643ZM69.7413 30.9442C69.1113 30.9417 68.6106 31.1447 68.2393 31.5533C67.878 31.9518 67.6612 32.511 67.5889 33.2307L71.6839 33.2469C71.6854 32.7869 71.6167 32.3866 71.4777 32.0461C71.3388 31.7055 71.1247 31.4397 70.8353 31.2485C70.5559 31.0474 70.1913 30.946 69.7413 30.9442ZM78.3197 38.2382C77.6097 38.2354 76.9752 38.0879 76.4161 37.7957C75.8671 37.5035 75.4335 37.0518 75.1155 36.4405C74.8074 35.8293 74.6549 35.0487 74.658 34.0987C74.6611 33.1087 74.8287 32.3043 75.1607 31.6857C75.4927 31.067 75.9391 30.6137 76.5001 30.3259C77.071 30.0382 77.7165 29.8958 78.4364 29.8986C78.8464 29.9002 79.2413 29.9468 79.621 30.0383C80.0007 30.1198 80.3104 30.221 80.55 30.342L80.1415 31.4354C79.9018 31.3444 79.6221 31.2583 79.3024 31.1771C78.9826 31.0958 78.6827 31.0546 78.4028 31.0535C77.8628 31.0513 77.4174 31.1646 77.0667 31.3932C76.7159 31.6218 76.4548 31.9608 76.2834 32.4101C76.112 32.8594 76.0252 33.4191 76.023 34.0891C76.021 34.7291 76.1042 35.2744 76.2728 35.7251C76.4413 36.1758 76.6952 36.5168 77.0345 36.7481C77.3738 36.9795 77.7984 37.0961 78.3084 37.0982C78.7484 37.0999 79.1335 37.0564 79.4638 36.9677C79.8041 36.8791 80.1144 36.7703 80.3949 36.6414L80.3911 37.8114C80.1207 37.9503 79.8203 38.0542 79.4901 38.1228C79.1699 38.2016 78.7797 38.24 78.3197 38.2382ZM85.4334 29.9263C86.1234 29.929 86.7129 30.0814 87.202 30.3833C87.701 30.6853 88.0796 31.1118 88.3379 31.6628C88.6061 32.2039 88.7391 32.8394 88.7368 33.5694L88.7342 34.3644L83.2293 34.3426C83.2464 35.2527 83.4741 35.9486 83.9126 36.4303C84.3611 36.9021 84.9853 37.1396 85.7853 37.1428C86.2953 37.1448 86.7454 37.1016 87.1357 37.0131C87.5361 36.9147 87.9465 36.7763 88.3671 36.598L88.3634 37.753C87.9528 37.9314 87.5474 38.0597 87.1471 38.1382C86.7468 38.2266 86.2717 38.2697 85.7217 38.2675C84.9617 38.2645 84.2872 38.1068 83.6982 37.7945C83.1192 37.4822 82.6657 37.0204 82.3376 36.4091C82.0196 35.7878 81.8621 35.0322 81.8649 34.1422C81.8677 33.2622 82.0151 32.5078 82.3072 31.879C82.6092 31.2501 83.0257 30.7668 83.5568 30.4289C84.0979 30.091 84.7234 29.9235 85.4334 29.9263ZM85.415 31.0063C84.785 31.0038 84.2843 31.2068 83.913 31.6153C83.5517 32.0139 83.3349 32.573 83.2626 33.2927L87.3576 33.309C87.3591 32.849 87.2904 32.4487 87.1514 32.1081C87.0125 31.7676 86.7984 31.5017 86.509 31.3106C86.2296 31.1095 85.865 31.008 85.415 31.0063ZM92.1147 30.1028L92.0889 38.1427L90.7689 38.1375L90.7947 30.0975L92.1147 30.1028ZM91.4794 27.0852C91.6794 27.086 91.8541 27.1567 92.0037 27.2973C92.1633 27.4279 92.2426 27.6383 92.2417 27.9283C92.2408 28.2083 92.1601 28.4179 91.9996 28.5573C91.8492 28.6967 91.674 28.766 91.474 28.7652C91.254 28.7644 91.0692 28.6936 90.9196 28.553C90.7701 28.4124 90.6958 28.2021 90.6967 27.9221C90.6976 27.6321 90.7733 27.4224 90.9237 27.293C91.0741 27.1536 91.2594 27.0844 91.4794 27.0852ZM96.4061 38.1598L93.3869 30.1078L94.7969 30.1134L96.4917 34.8601C96.571 35.0805 96.6552 35.3258 96.7443 35.5961C96.8334 35.8665 96.9126 36.1268 96.9818 36.3771C97.051 36.6174 97.1004 36.8226 97.1298 36.9927L97.1898 36.9929C97.2304 36.8231 97.286 36.6133 97.3568 36.3636C97.4376 36.1139 97.5235 35.8542 97.6143 35.5846C97.7152 35.315 97.801 35.0753 97.8716 34.8656L99.5968 30.1324L101.007 30.138L97.9211 38.1658L96.4061 38.1598ZM105.384 30.0053C106.074 30.008 106.664 30.1604 107.153 30.4623C107.652 30.7643 108.031 31.1908 108.289 31.7418C108.557 32.2829 108.69 32.9184 108.688 33.6484L108.685 34.4434L103.18 34.4216C103.197 35.3317 103.425 36.0276 103.864 36.5093C104.312 36.9811 104.936 37.2186 105.736 37.2218C106.246 37.2238 106.696 37.1806 107.087 37.0921C107.487 36.9937 107.898 36.8553 108.318 36.677L108.314 37.832C107.904 38.0103 107.498 38.1387 107.098 38.2172C106.698 38.3056 106.223 38.3487 105.673 38.3465C104.913 38.3435 104.238 38.1858 103.649 37.8735C103.07 37.5612 102.617 37.0994 102.289 36.4881C101.971 35.8668 101.813 35.1112 101.816 34.2212C101.819 33.3412 101.966 32.5868 102.258 31.9579C102.56 31.3291 102.977 30.8458 103.508 30.5079C104.049 30.17 104.674 30.0025 105.384 30.0053ZM105.366 31.0852C104.736 31.0828 104.235 31.2858 103.864 31.6943C103.503 32.0929 103.286 32.652 103.214 33.3717L107.309 33.388C107.31 32.928 107.241 32.5277 107.102 32.1871C106.964 31.8466 106.749 31.5807 106.46 31.3896C106.181 31.1885 105.816 31.087 105.366 31.0852ZM118.468 30.0571C119.458 30.061 120.252 30.4092 120.849 31.1016C121.457 31.794 121.759 32.8352 121.754 34.2252C121.751 35.1352 121.609 35.9046 121.327 36.5335C121.055 37.1524 120.668 37.6209 120.167 37.9389C119.676 38.247 119.096 38.3997 118.426 38.397C118.016 38.3954 117.651 38.3389 117.331 38.2277C117.012 38.1164 116.737 37.9753 116.508 37.8044C116.288 37.6235 116.099 37.4278 115.94 37.2172L115.85 37.2168C115.869 37.3869 115.888 37.602 115.908 37.862C115.927 38.1221 115.936 38.3472 115.935 38.5372L115.925 41.8371L114.605 41.8319L114.642 30.192L115.722 30.1962L115.899 31.292L115.959 31.2922C116.119 31.0628 116.31 30.8536 116.531 30.6644C116.761 30.4754 117.032 30.3264 117.342 30.2177C117.662 30.1089 118.038 30.0554 118.468 30.0571ZM118.224 31.1662C117.684 31.164 117.249 31.2673 116.918 31.476C116.587 31.6747 116.346 31.9787 116.195 32.3881C116.044 32.7975 115.962 33.3172 115.95 33.9472L115.949 34.2022C115.947 34.8622 116.015 35.4224 116.154 35.883C116.292 36.3435 116.526 36.6945 116.856 36.9358C117.195 37.1771 117.654 37.2989 118.234 37.3012C118.724 37.3032 119.125 37.1698 119.436 36.901C119.757 36.6323 119.993 36.2682 120.144 35.8088C120.306 35.3394 120.387 34.8048 120.389 34.2048C120.392 33.2848 120.215 32.549 119.856 31.9976C119.508 31.4462 118.964 31.1691 118.224 31.1662ZM126.916 30.1056C127.896 30.1094 128.62 30.3273 129.089 30.7592C129.558 31.191 129.79 31.877 129.787 32.817L129.77 38.2919L128.81 38.2881L128.558 37.1471L128.498 37.1469C128.268 37.436 128.027 37.68 127.776 37.879C127.536 38.0681 127.255 38.207 126.935 38.2957C126.625 38.3845 126.244 38.428 125.794 38.4262C125.314 38.4243 124.88 38.3376 124.49 38.166C124.111 37.9945 123.812 37.7333 123.593 37.3825C123.374 37.0216 123.265 36.5712 123.267 36.0312C123.27 35.2312 123.587 34.6174 124.218 34.1899C124.849 33.7524 125.82 33.5163 127.13 33.4814L128.495 33.4418L128.497 32.9618C128.499 32.2918 128.356 31.8263 128.066 31.5651C127.777 31.304 127.368 31.1724 126.838 31.1703C126.418 31.1686 126.017 31.232 125.637 31.3605C125.257 31.479 124.901 31.6176 124.571 31.7763L124.169 30.7847C124.519 30.5961 124.935 30.4377 125.415 30.3096C125.896 30.1715 126.396 30.1035 126.916 30.1056ZM127.292 34.3971C126.292 34.4331 125.597 34.5904 125.206 34.8688C124.825 35.1473 124.634 35.5416 124.632 36.0516C124.631 36.5016 124.764 36.8321 125.034 37.0432C125.313 37.2543 125.668 37.3607 126.098 37.3624C126.778 37.3651 127.343 37.1823 127.795 36.8141C128.246 36.4359 128.473 35.8568 128.475 35.0768L128.477 34.3568L127.292 34.3971ZM131.019 30.2568L132.429 30.2624L134.154 34.8443C134.253 35.1147 134.342 35.375 134.422 35.6253C134.511 35.8757 134.59 36.121 134.659 36.3613C134.728 36.5915 134.783 36.8168 134.822 37.0369L134.882 37.0372C134.943 36.7874 135.039 36.4628 135.17 36.0633C135.301 35.6538 135.438 35.2443 135.579 34.8349L137.229 30.2814L138.654 30.287L135.159 39.4233C134.968 39.9225 134.741 40.3566 134.48 40.7256C134.229 41.1046 133.918 41.3934 133.547 41.5919C133.187 41.8005 132.746 41.9037 132.226 41.9017C131.986 41.9007 131.777 41.8849 131.597 41.8542C131.417 41.8335 131.262 41.8079 131.132 41.7773L131.135 40.7273C131.245 40.7478 131.375 40.7683 131.525 40.7889C131.685 40.8095 131.85 40.8202 132.02 40.8209C132.33 40.8221 132.595 40.7631 132.815 40.644C133.046 40.5349 133.241 40.3707 133.402 40.1513C133.563 39.942 133.699 39.6925 133.809 39.4029L134.233 38.3396L131.019 30.2568ZM148.746 30.177C149.656 30.1806 150.335 30.4183 150.783 30.8901C151.232 31.3518 151.454 32.1027 151.451 33.1427L151.434 38.3777L150.129 38.3725L150.146 33.1976C150.148 32.5676 150.014 32.092 149.745 31.771C149.487 31.4499 149.077 31.2883 148.517 31.2861C147.737 31.283 147.176 31.5058 146.835 31.9544C146.503 32.4031 146.336 33.0575 146.334 33.9175L146.319 38.3575L145.014 38.3523L145.031 33.1773C145.032 32.7573 144.973 32.4071 144.854 32.1266C144.735 31.8361 144.556 31.6204 144.316 31.4795C144.077 31.3385 143.767 31.2673 143.387 31.2658C142.847 31.2636 142.422 31.377 142.111 31.6057C141.8 31.8245 141.574 32.1486 141.433 32.5781C141.301 33.0075 141.235 33.5373 141.233 34.1673L141.219 38.3373L139.899 38.332L139.925 30.2921L140.99 30.2963L141.182 31.3921L141.257 31.3924C141.428 31.113 141.633 30.8838 141.874 30.7048C142.124 30.5158 142.4 30.3769 142.7 30.2881C143 30.1992 143.311 30.1555 143.631 30.1567C144.251 30.1592 144.765 30.2712 145.175 30.4929C145.594 30.7145 145.898 31.0557 146.086 31.5165L146.161 31.5168C146.433 31.0578 146.799 30.7193 147.26 30.5011C147.73 30.283 148.226 30.1749 148.746 30.177ZM157.049 30.2099C157.739 30.2126 158.329 30.3649 158.818 30.6669C159.317 30.9689 159.695 31.3954 159.954 31.9464C160.222 32.4875 160.355 33.123 160.352 33.853L160.35 34.648L154.845 34.6262C154.862 35.5363 155.09 36.2322 155.528 36.7139C155.977 37.1857 156.601 37.4232 157.401 37.4263C157.911 37.4283 158.361 37.3851 158.751 37.2967C159.152 37.1983 159.562 37.0599 159.983 36.8815L159.979 38.0365C159.568 38.2149 159.163 38.3433 158.763 38.4217C158.362 38.5101 157.887 38.5533 157.337 38.5511C156.577 38.5481 155.903 38.3904 155.314 38.0781C154.735 37.7658 154.281 37.304 153.953 36.6927C153.635 36.0714 153.478 35.3158 153.481 34.4258C153.483 33.5458 153.631 32.7914 153.923 32.1625C154.225 31.5337 154.641 31.0503 155.172 30.7124C155.714 30.3746 156.339 30.2071 157.049 30.2099ZM157.031 31.2898C156.401 31.2873 155.9 31.4903 155.529 31.8989C155.167 32.2974 154.951 32.8566 154.878 33.5763L158.973 33.5925C158.975 33.1325 158.906 32.7322 158.767 32.3917C158.628 32.0511 158.414 31.7853 158.125 31.5941C157.845 31.393 157.481 31.2916 157.031 31.2898ZM166.281 30.2464C167.241 30.2502 167.965 30.4881 168.454 30.96C168.942 31.422 169.185 32.1729 169.181 33.2129L169.165 38.4479L167.86 38.4427L167.876 33.2978C167.878 32.6478 167.735 32.1622 167.446 31.841C167.157 31.5199 166.702 31.3581 166.082 31.3556C165.192 31.3521 164.576 31.5997 164.235 32.0983C163.893 32.597 163.721 33.3163 163.718 34.2563L163.705 38.4263L162.385 38.4211L162.41 30.3811L163.475 30.3853L163.667 31.4811L163.742 31.4814C163.923 31.2021 164.143 30.973 164.404 30.794C164.675 30.6051 164.97 30.4662 165.29 30.3775C165.611 30.2888 165.941 30.2451 166.281 30.2464ZM174.345 37.5384C174.545 37.5392 174.75 37.525 174.96 37.4958C175.17 37.4567 175.34 37.4174 175.47 37.3779L175.467 38.3829C175.327 38.4523 175.127 38.5065 174.867 38.5455C174.607 38.5945 174.356 38.6185 174.116 38.6175C173.696 38.6159 173.307 38.5443 172.947 38.4029C172.598 38.2515 172.313 37.9954 172.095 37.6345C171.876 37.2736 171.767 36.7682 171.769 36.1182L171.784 31.4382L170.644 31.4337L170.646 30.8037L171.803 30.2833L172.334 28.5754L173.114 28.5785L173.108 30.4235L175.433 30.4327L175.429 31.4527L173.104 31.4435L173.09 36.0934C173.088 36.5834 173.202 36.9489 173.431 37.1898C173.67 37.4207 173.975 37.5369 174.345 37.5384ZM182.319 36.28C182.317 36.8 182.186 37.2345 181.925 37.5834C181.664 37.9324 181.293 38.1959 180.812 38.374C180.332 38.5521 179.761 38.6399 179.101 38.6373C178.541 38.635 178.057 38.5881 177.647 38.4965C177.247 38.4049 176.893 38.2785 176.583 38.1173L176.587 36.9173C176.906 37.0785 177.291 37.2301 177.74 37.3719C178.2 37.5037 178.665 37.5705 179.135 37.5724C179.805 37.575 180.29 37.4719 180.591 37.2631C180.891 37.0443 181.042 36.7549 181.044 36.3949C181.044 36.1949 180.99 36.0147 180.88 35.8543C180.771 35.6938 180.571 35.533 180.282 35.3719C180.002 35.2108 179.598 35.0292 179.069 34.8271C178.549 34.625 178.105 34.4233 177.736 34.2218C177.366 34.0203 177.082 33.7792 176.883 33.4984C176.684 33.2176 176.585 32.8572 176.586 32.4172C176.588 31.7372 176.865 31.2133 177.416 30.8455C177.978 30.4777 178.708 30.2956 179.608 30.2992C180.098 30.3011 180.553 30.3529 180.973 30.4546C181.402 30.5463 181.802 30.6779 182.171 30.8493L181.718 31.8976C181.498 31.7967 181.264 31.7108 181.014 31.6398C180.774 31.5588 180.529 31.4979 180.279 31.4569C180.03 31.4059 179.775 31.3799 179.515 31.3788C178.975 31.3767 178.559 31.4651 178.269 31.6439C177.988 31.8128 177.847 32.0472 177.847 32.3472C177.846 32.5672 177.91 32.7575 178.04 32.918C178.169 33.0685 178.384 33.2194 178.683 33.3706C178.993 33.5118 179.402 33.6834 179.912 33.8854C180.421 34.0774 180.855 34.2742 181.215 34.4756C181.574 34.677 181.848 34.9231 182.037 35.2138C182.226 35.4946 182.32 35.85 182.319 36.28ZM195.154 34.5158C195.152 35.1858 195.06 35.7804 194.878 36.2997C194.707 36.809 194.455 37.243 194.124 37.6017C193.803 37.9605 193.407 38.2339 192.936 38.422C192.476 38.6002 191.96 38.6882 191.39 38.6859C190.86 38.6838 190.371 38.5919 189.921 38.4101C189.472 38.2183 189.083 37.9418 188.754 37.5805C188.425 37.2192 188.167 36.7831 187.978 36.2724C187.8 35.7517 187.712 35.1563 187.714 34.4863C187.717 33.5963 187.869 32.8469 188.171 32.2381C188.473 31.6193 188.905 31.151 189.466 30.8332C190.027 30.5054 190.692 30.3431 191.462 30.3461C192.192 30.349 192.832 30.5166 193.381 30.8487C193.94 31.1709 194.373 31.6427 194.681 32.2639C194.999 32.8752 195.157 33.6258 195.154 34.5158ZM189.079 34.4917C189.077 35.1217 189.155 35.672 189.314 36.1427C189.482 36.6033 189.741 36.9594 190.09 37.2107C190.439 37.4621 190.884 37.5889 191.424 37.591C191.964 37.5932 192.409 37.4699 192.76 37.2213C193.111 36.9727 193.367 36.6187 193.529 36.1594C193.7 35.69 193.787 35.1404 193.789 34.5104C193.791 33.8704 193.708 33.325 193.539 32.8744C193.371 32.4237 193.112 32.0777 192.762 31.8363C192.423 31.5849 191.979 31.4582 191.429 31.456C190.609 31.4528 190.013 31.7204 189.641 32.2589C189.269 32.7975 189.082 33.5417 189.079 34.4917ZM201.129 30.3844C202.089 30.3882 202.813 30.6261 203.302 31.098C203.79 31.56 204.033 32.3109 204.03 33.3509L204.013 38.5859L202.708 38.5807L202.724 33.4357C202.726 32.7857 202.583 32.3002 202.294 31.979C202.005 31.6579 201.551 31.4961 200.931 31.4936C200.041 31.4901 199.425 31.7377 199.083 32.2363C198.742 32.735 198.569 33.4543 198.566 34.3943L198.553 38.5643L197.233 38.559L197.259 30.5191L198.324 30.5233L198.515 31.6191L198.59 31.6194C198.771 31.3401 198.992 31.1109 199.252 30.932C199.523 30.743 199.818 30.6042 200.139 30.5155C200.459 30.4268 200.789 30.3831 201.129 30.3844ZM207.825 38.601L206.505 38.5958L206.542 27.1958L207.862 27.201L207.825 38.601ZM211.718 30.5763L211.692 38.6163L210.373 38.6111L210.398 30.5711L211.718 30.5763ZM211.083 27.5588C211.283 27.5596 211.458 27.6303 211.607 27.7709C211.767 27.9015 211.846 28.1118 211.845 28.4018C211.844 28.6818 211.764 28.8915 211.603 29.0309C211.453 29.1703 211.278 29.2396 211.078 29.2388C210.858 29.2379 210.673 29.1672 210.523 29.0266C210.374 28.886 210.299 28.6757 210.3 28.3957C210.301 28.1057 210.377 27.896 210.527 27.7666C210.678 27.6272 210.863 27.5579 211.083 27.5588ZM218.136 30.4517C219.096 30.4555 219.82 30.6934 220.309 31.1654C220.797 31.6273 221.04 32.3783 221.036 33.4182L221.02 38.6532L219.715 38.6481L219.731 33.5031C219.733 32.8531 219.59 32.3675 219.301 32.0464C219.012 31.7252 218.557 31.5634 217.937 31.561C217.047 31.5574 216.432 31.805 216.09 32.3037C215.748 32.8023 215.576 33.5216 215.573 34.4616L215.56 38.6316L214.24 38.6264L214.265 30.5864L215.33 30.5906L215.522 31.6864L215.597 31.6867C215.778 31.4074 215.999 31.1783 216.259 30.9993C216.53 30.8104 216.825 30.6716 217.145 30.5828C217.466 30.4941 217.796 30.4504 218.136 30.4517ZM226.643 30.4854C227.333 30.4882 227.923 30.6405 228.412 30.9424C228.911 31.2444 229.289 31.6709 229.548 32.2219C229.816 32.763 229.949 33.3985 229.947 34.1285L229.944 34.9235L224.439 34.9017C224.456 35.8118 224.684 36.5077 225.122 36.9895C225.571 37.4612 226.195 37.6987 226.995 37.7019C227.505 37.7039 227.955 37.6607 228.346 37.5722C228.746 37.4738 229.156 37.3354 229.577 37.1571L229.573 38.3121C229.163 38.4905 228.757 38.6189 228.357 38.6973C227.957 38.7857 227.482 38.8288 226.932 38.8266C226.172 38.8236 225.497 38.666 224.908 38.3536C224.329 38.0413 223.876 37.5795 223.547 36.9682C223.229 36.347 223.072 35.5913 223.075 34.7013C223.078 33.8213 223.225 33.0669 223.517 32.4381C223.819 31.8093 224.236 31.3259 224.767 30.988C225.308 30.6501 225.933 30.4826 226.643 30.4854ZM226.625 31.5654C225.995 31.5629 225.494 31.7659 225.123 32.1744C224.762 32.573 224.545 33.1321 224.472 33.8519L228.567 33.8681C228.569 33.4081 228.5 33.0078 228.361 32.6672C228.222 32.3267 228.008 32.0608 227.719 31.8697C227.439 31.6686 227.075 31.5671 226.625 31.5654Z" fill="black" fill-opacity="0.85"/>
<path d="M57.386 19V5.59H63.038C63.878 5.59 64.604 5.74 65.216 6.04C65.828 6.328 66.296 6.748 66.62 7.3C66.944 7.84 67.106 8.482 67.106 9.226C67.106 9.874 66.938 10.468 66.602 11.008C66.278 11.536 65.768 11.956 65.072 12.268V11.368C65.684 11.608 66.182 11.914 66.566 12.286C66.95 12.646 67.226 13.054 67.394 13.51C67.574 13.966 67.664 14.446 67.664 14.95C67.664 16.21 67.25 17.2 66.422 17.92C65.606 18.64 64.484 19 63.056 19H57.386ZM59.51 17.11H63.218C63.926 17.11 64.49 16.918 64.91 16.534C65.33 16.138 65.54 15.616 65.54 14.968C65.54 14.308 65.33 13.786 64.91 13.402C64.49 13.006 63.926 12.808 63.218 12.808H59.51V17.11ZM59.51 10.936H63.092C63.668 10.936 64.13 10.774 64.478 10.45C64.826 10.114 65 9.676 65 9.136C65 8.596 64.826 8.176 64.478 7.876C64.13 7.576 63.668 7.426 63.092 7.426H59.51V10.936ZM74.2229 19.216C73.2509 19.216 72.3869 18.994 71.6309 18.55C70.8869 18.094 70.3049 17.482 69.8849 16.714C69.4649 15.934 69.2549 15.064 69.2549 14.104C69.2549 13.12 69.4649 12.25 69.8849 11.494C70.3169 10.738 70.8929 10.144 71.6129 9.712C72.3329 9.268 73.1489 9.046 74.0609 9.046C74.7929 9.046 75.4469 9.172 76.0229 9.424C76.5989 9.676 77.0849 10.024 77.4809 10.468C77.8769 10.9 78.1769 11.398 78.3809 11.962C78.5969 12.526 78.7049 13.126 78.7049 13.762C78.7049 13.918 78.6989 14.08 78.6869 14.248C78.6749 14.416 78.6509 14.572 78.6149 14.716H70.8569V13.096H77.4629L76.4909 13.834C76.6109 13.246 76.5689 12.724 76.3649 12.268C76.1729 11.8 75.8729 11.434 75.4649 11.17C75.0689 10.894 74.6009 10.756 74.0609 10.756C73.5209 10.756 73.0409 10.894 72.6209 11.17C72.2009 11.434 71.8769 11.818 71.6489 12.322C71.4209 12.814 71.3309 13.414 71.3789 14.122C71.3189 14.782 71.4089 15.358 71.6489 15.85C71.9009 16.342 72.2489 16.726 72.6929 17.002C73.1489 17.278 73.6649 17.416 74.2409 17.416C74.8289 17.416 75.3269 17.284 75.7349 17.02C76.1549 16.756 76.4849 16.414 76.7249 15.994L78.3809 16.804C78.1889 17.26 77.8889 17.674 77.4809 18.046C77.0849 18.406 76.6049 18.694 76.0409 18.91C75.4889 19.114 74.8829 19.216 74.2229 19.216ZM80.69 19V5.374H82.724V19H80.69ZM85.1021 19V5.374H87.1361V19H85.1021ZM92.8587 19V5.59H97.7367C98.6367 5.59 99.4287 5.758 100.113 6.094C100.809 6.418 101.349 6.898 101.733 7.534C102.117 8.158 102.309 8.908 102.309 9.784C102.309 10.648 102.111 11.392 101.715 12.016C101.331 12.64 100.797 13.12 100.113 13.456C99.4287 13.792 98.6367 13.96 97.7367 13.96H94.9827V19H92.8587ZM94.9827 12.07H97.7907C98.2707 12.07 98.6907 11.974 99.0507 11.782C99.4107 11.59 99.6927 11.326 99.8967 10.99C100.101 10.642 100.203 10.234 100.203 9.766C100.203 9.298 100.101 8.896 99.8967 8.56C99.6927 8.212 99.4107 7.948 99.0507 7.768C98.6907 7.576 98.2707 7.48 97.7907 7.48H94.9827V12.07ZM106.581 19.216C105.921 19.216 105.339 19.102 104.835 18.874C104.343 18.634 103.959 18.31 103.683 17.902C103.407 17.482 103.269 16.99 103.269 16.426C103.269 15.898 103.383 15.424 103.611 15.004C103.851 14.584 104.217 14.23 104.709 13.942C105.201 13.654 105.819 13.45 106.563 13.33L109.947 12.772V14.374L106.959 14.896C106.419 14.992 106.023 15.166 105.771 15.418C105.519 15.658 105.393 15.97 105.393 16.354C105.393 16.726 105.531 17.032 105.807 17.272C106.095 17.5 106.461 17.614 106.905 17.614C107.457 17.614 107.937 17.494 108.345 17.254C108.765 17.014 109.089 16.696 109.317 16.3C109.545 15.892 109.659 15.442 109.659 14.95V12.448C109.659 11.968 109.479 11.578 109.119 11.278C108.771 10.966 108.303 10.81 107.715 10.81C107.175 10.81 106.701 10.954 106.293 11.242C105.897 11.518 105.603 11.878 105.411 12.322L103.719 11.476C103.899 10.996 104.193 10.576 104.601 10.216C105.009 9.844 105.483 9.556 106.023 9.352C106.575 9.148 107.157 9.046 107.769 9.046C108.537 9.046 109.215 9.19 109.803 9.478C110.403 9.766 110.865 10.168 111.189 10.684C111.525 11.188 111.693 11.776 111.693 12.448V19H109.749V17.236L110.163 17.29C109.935 17.686 109.641 18.028 109.281 18.316C108.933 18.604 108.531 18.826 108.075 18.982C107.631 19.138 107.133 19.216 106.581 19.216ZM114.935 22.978C114.695 22.978 114.455 22.954 114.215 22.906C113.987 22.87 113.777 22.81 113.585 22.726V20.98C113.729 21.016 113.903 21.046 114.107 21.07C114.311 21.106 114.509 21.124 114.701 21.124C115.265 21.124 115.679 20.998 115.943 20.746C116.219 20.506 116.465 20.128 116.681 19.612L117.329 18.136L117.293 19.846L113.081 9.262H115.259L118.373 17.38H117.635L120.731 9.262H122.927L118.625 20.062C118.397 20.638 118.109 21.142 117.761 21.574C117.425 22.018 117.023 22.36 116.555 22.6C116.099 22.852 115.559 22.978 114.935 22.978ZM124.319 19V9.262H126.263V11.368L126.011 11.044C126.215 10.384 126.587 9.886 127.127 9.55C127.667 9.214 128.285 9.046 128.981 9.046C129.761 9.046 130.451 9.256 131.051 9.676C131.663 10.084 132.071 10.63 132.275 11.314L131.699 11.368C131.987 10.588 132.425 10.006 133.013 9.622C133.613 9.238 134.297 9.046 135.065 9.046C135.737 9.046 136.343 9.202 136.883 9.514C137.435 9.826 137.873 10.258 138.197 10.81C138.521 11.362 138.683 11.992 138.683 12.7V19H136.649V13.258C136.649 12.766 136.559 12.352 136.379 12.016C136.211 11.668 135.971 11.404 135.659 11.224C135.359 11.032 135.005 10.936 134.597 10.936C134.189 10.936 133.829 11.032 133.517 11.224C133.205 11.404 132.959 11.668 132.779 12.016C132.599 12.364 132.509 12.778 132.509 13.258V19H130.493V13.258C130.493 12.766 130.403 12.352 130.223 12.016C130.055 11.668 129.815 11.404 129.503 11.224C129.203 11.032 128.843 10.936 128.423 10.936C128.015 10.936 127.655 11.032 127.343 11.224C127.031 11.404 126.785 11.668 126.605 12.016C126.437 12.364 126.353 12.778 126.353 13.258V19H124.319ZM145.432 19.216C144.46 19.216 143.596 18.994 142.84 18.55C142.096 18.094 141.514 17.482 141.094 16.714C140.674 15.934 140.464 15.064 140.464 14.104C140.464 13.12 140.674 12.25 141.094 11.494C141.526 10.738 142.102 10.144 142.822 9.712C143.542 9.268 144.358 9.046 145.27 9.046C146.002 9.046 146.656 9.172 147.232 9.424C147.808 9.676 148.294 10.024 148.69 10.468C149.086 10.9 149.386 11.398 149.59 11.962C149.806 12.526 149.914 13.126 149.914 13.762C149.914 13.918 149.908 14.08 149.896 14.248C149.884 14.416 149.86 14.572 149.824 14.716H142.066V13.096H148.672L147.7 13.834C147.82 13.246 147.778 12.724 147.574 12.268C147.382 11.8 147.082 11.434 146.674 11.17C146.278 10.894 145.81 10.756 145.27 10.756C144.73 10.756 144.25 10.894 143.83 11.17C143.41 11.434 143.086 11.818 142.858 12.322C142.63 12.814 142.54 13.414 142.588 14.122C142.528 14.782 142.618 15.358 142.858 15.85C143.11 16.342 143.458 16.726 143.902 17.002C144.358 17.278 144.874 17.416 145.45 17.416C146.038 17.416 146.536 17.284 146.944 17.02C147.364 16.756 147.694 16.414 147.934 15.994L149.59 16.804C149.398 17.26 149.098 17.674 148.69 18.046C148.294 18.406 147.814 18.694 147.25 18.91C146.698 19.114 146.092 19.216 145.432 19.216ZM151.899 19V9.262H153.843V11.17L153.609 10.918C153.849 10.306 154.233 9.844 154.761 9.532C155.289 9.208 155.901 9.046 156.597 9.046C157.317 9.046 157.953 9.202 158.505 9.514C159.057 9.826 159.489 10.258 159.801 10.81C160.113 11.362 160.269 11.998 160.269 12.718V19H158.253V13.258C158.253 12.766 158.163 12.352 157.983 12.016C157.803 11.668 157.545 11.404 157.209 11.224C156.885 11.032 156.513 10.936 156.093 10.936C155.673 10.936 155.295 11.032 154.959 11.224C154.635 11.404 154.383 11.668 154.203 12.016C154.023 12.364 153.933 12.778 153.933 13.258V19H151.899ZM166.658 19.108C165.638 19.108 164.846 18.82 164.282 18.244C163.718 17.668 163.436 16.858 163.436 15.814V11.098H161.726V9.262H161.996C162.452 9.262 162.806 9.13 163.058 8.866C163.31 8.602 163.436 8.242 163.436 7.786V7.03H165.47V9.262H167.684V11.098H165.47V15.724C165.47 16.06 165.524 16.348 165.632 16.588C165.74 16.816 165.914 16.996 166.154 17.128C166.394 17.248 166.706 17.308 167.09 17.308C167.186 17.308 167.294 17.302 167.414 17.29C167.534 17.278 167.648 17.266 167.756 17.254V19C167.588 19.024 167.402 19.048 167.198 19.072C166.994 19.096 166.814 19.108 166.658 19.108ZM173.085 19V5.59H175.209V17.11H181.005V19H173.085ZM182.59 19V9.262H184.624V19H182.59ZM182.59 7.93V5.59H184.624V7.93H182.59ZM187.002 19V9.262H188.946V11.17L188.712 10.918C188.952 10.306 189.336 9.844 189.864 9.532C190.392 9.208 191.004 9.046 191.7 9.046C192.42 9.046 193.056 9.202 193.608 9.514C194.16 9.826 194.592 10.258 194.904 10.81C195.216 11.362 195.372 11.998 195.372 12.718V19H193.356V13.258C193.356 12.766 193.266 12.352 193.086 12.016C192.906 11.668 192.648 11.404 192.312 11.224C191.988 11.032 191.616 10.936 191.196 10.936C190.776 10.936 190.398 11.032 190.062 11.224C189.738 11.404 189.486 11.668 189.306 12.016C189.126 12.364 189.036 12.778 189.036 13.258V19H187.002ZM197.549 19V5.374H199.583V14.5L198.791 14.302L203.669 9.262H206.207L202.535 13.168L206.369 19H204.029L200.609 13.834L201.815 13.672L198.935 16.732L199.583 15.382V19H197.549ZM211.362 19.216C210.366 19.216 209.49 18.97 208.734 18.478C207.99 17.986 207.468 17.326 207.168 16.498L208.734 15.76C208.998 16.312 209.358 16.75 209.814 17.074C210.282 17.398 210.798 17.56 211.362 17.56C211.842 17.56 212.232 17.452 212.532 17.236C212.832 17.02 212.982 16.726 212.982 16.354C212.982 16.114 212.916 15.922 212.784 15.778C212.652 15.622 212.484 15.496 212.28 15.4C212.088 15.304 211.89 15.232 211.686 15.184L210.156 14.752C209.316 14.512 208.686 14.152 208.266 13.672C207.858 13.18 207.654 12.61 207.654 11.962C207.654 11.374 207.804 10.864 208.104 10.432C208.404 9.988 208.818 9.646 209.346 9.406C209.874 9.166 210.468 9.046 211.128 9.046C212.016 9.046 212.808 9.268 213.504 9.712C214.2 10.144 214.692 10.75 214.98 11.53L213.414 12.268C213.222 11.8 212.916 11.428 212.496 11.152C212.088 10.876 211.626 10.738 211.11 10.738C210.666 10.738 210.312 10.846 210.048 11.062C209.784 11.266 209.652 11.536 209.652 11.872C209.652 12.1 209.712 12.292 209.832 12.448C209.952 12.592 210.108 12.712 210.3 12.808C210.492 12.892 210.69 12.964 210.894 13.024L212.478 13.492C213.282 13.72 213.9 14.08 214.332 14.572C214.764 15.052 214.98 15.628 214.98 16.3C214.98 16.876 214.824 17.386 214.512 17.83C214.212 18.262 213.792 18.604 213.252 18.856C212.712 19.096 212.082 19.216 211.362 19.216Z" fill="black" fill-opacity="0.85"/>
<rect y="3" width="39" height="38" rx="15" fill="#3322BB"/>
<path d="M28.9344 14.0659L20.4076 10.7438C19.8239 10.5164 19.1761 10.5164 18.5924 10.7438L10.0656 14.0659L10.6101 15.4636L10.0656 14.0659C8.98788 14.4858 8.3389 15.5901 8.49645 16.7359L9.42524 23.4907C9.69634 25.4624 10.74 27.2455 12.3264 28.4473L17.9904 32.7382C18.8832 33.4145 20.1169 33.4145 21.0096 32.7382L26.6736 28.4473C28.26 27.2455 29.3037 25.4624 29.5748 23.4907L30.5036 16.7359C30.6611 15.5901 30.0121 14.4858 28.9344 14.0659Z" stroke="white" stroke-opacity="0.8" stroke-width="3" stroke-linecap="round"/>
<path d="M15.375 22L19.089 25.3763C19.3086 25.576 19.6529 25.5415 19.8285 25.302L25 18.25" stroke="white" stroke-opacity="0.8" stroke-width="3" stroke-linecap="round"/>
<g filter="url(#filter0_d_101_221)">
<circle cx="299" cy="164" r="10" fill="#35BA1F"/>
</g>
<path d="M64.7881 169.611C66.2814 169.616 67.3685 169.914 68.0493 170.503C68.73 171.093 69.0687 171.921 69.0653 172.988C69.0638 173.457 68.9824 173.91 68.821 174.347C68.6703 174.773 68.4184 175.156 68.0653 175.496C67.7122 175.836 67.242 176.106 66.6547 176.306C66.0674 176.496 65.3471 176.589 64.4938 176.585L63.1818 176.58L63.1675 181.028L61.7275 181.023L61.7641 169.599L64.7881 169.611ZM64.6562 170.842L63.2002 170.836L63.1857 175.348L64.3377 175.353C65.063 175.356 65.6659 175.283 66.1464 175.136C66.6269 174.978 66.9851 174.729 67.2208 174.388C67.4566 174.048 67.5753 173.6 67.5771 173.046C67.5795 172.31 67.3466 171.759 66.8784 171.395C66.4102 171.03 65.6695 170.846 64.6562 170.842ZM74.4989 172.353C75.5442 172.357 76.3168 172.59 76.8167 173.05C77.3165 173.511 77.5648 174.243 77.5616 175.245L77.5429 181.085L76.5189 181.081L76.2508 179.864L76.1868 179.864C75.9405 180.172 75.6837 180.432 75.4163 180.645C75.1597 180.846 74.8605 180.995 74.5189 181.089C74.1879 181.184 73.7824 181.23 73.3024 181.228C72.7904 181.226 72.3267 181.134 71.9113 180.951C71.5066 180.768 71.1875 180.489 70.954 180.115C70.7206 179.73 70.6048 179.25 70.6066 178.674C70.6093 177.82 70.9474 177.166 71.6209 176.71C72.2944 176.243 73.3299 175.991 74.7273 175.954L76.1835 175.912L76.1851 175.4C76.1874 174.685 76.0343 174.188 75.7259 173.91C75.4174 173.631 74.9806 173.491 74.4152 173.489C73.9672 173.487 73.5404 173.555 73.1346 173.692C72.7288 173.818 72.3497 173.966 71.9972 174.135L71.5685 173.077C71.9425 172.876 72.3857 172.707 72.8982 172.571C73.4106 172.423 73.9442 172.351 74.4989 172.353ZM74.9002 176.931C73.8334 176.969 73.0915 177.137 72.6746 177.434C72.2683 177.731 72.0643 178.151 72.0625 178.695C72.061 179.175 72.2039 179.528 72.4912 179.753C72.7891 179.978 73.1674 180.092 73.6261 180.094C74.3514 180.097 74.9547 179.902 75.436 179.509C75.9173 179.105 76.1592 178.488 76.1619 177.656L76.1644 176.888L74.9002 176.931ZM78.8751 172.514L80.3791 172.52L82.2195 177.408C82.3252 177.696 82.4203 177.974 82.5048 178.241C82.5999 178.508 82.6844 178.769 82.7583 179.026C82.8322 179.271 82.8901 179.512 82.932 179.746L82.996 179.747C83.0608 179.48 83.1633 179.134 83.3033 178.708C83.4434 178.271 83.5888 177.834 83.7395 177.398L85.4991 172.541L87.0191 172.547L83.2918 182.292C83.0875 182.824 82.846 183.287 82.5674 183.681C82.2994 184.085 81.9678 184.393 81.5724 184.605C81.1877 184.828 80.718 184.938 80.1633 184.936C79.9073 184.935 79.6834 184.918 79.4915 184.885C79.2996 184.863 79.1343 184.835 78.9958 184.803L78.9994 183.683C79.1166 183.705 79.2552 183.727 79.4151 183.749C79.5857 183.771 79.7617 183.782 79.943 183.783C80.2737 183.784 80.5566 183.721 80.7916 183.594C81.0374 183.478 81.2459 183.302 81.4173 183.068C81.5887 182.845 81.7336 182.579 81.8519 182.27L82.3035 181.136L78.8751 172.514ZM93.9415 171.95C93.9403 172.313 93.9286 172.654 93.9062 172.974C93.8946 173.283 93.8778 173.528 93.8559 173.71L93.9359 173.71C94.1824 173.348 94.5193 173.046 94.9468 172.802C95.3742 172.558 95.924 172.438 96.596 172.441C97.6626 172.445 98.5147 172.821 99.1523 173.571C99.8006 174.309 100.122 175.415 100.118 176.886C100.115 177.868 99.9626 178.689 99.6618 179.349C99.3717 180.009 98.9595 180.503 98.4251 180.832C97.8907 181.16 97.2715 181.323 96.5675 181.32C95.8955 181.318 95.3466 181.193 94.9207 180.946C94.4948 180.699 94.1598 180.404 93.9155 180.062L93.8035 180.062L93.512 181.148L92.5041 181.144L92.543 168.984L93.951 168.99L93.9415 171.95ZM96.3522 173.608C95.7442 173.605 95.2638 173.721 94.9111 173.954C94.5584 174.176 94.3066 174.527 94.1557 175.007C94.0049 175.476 93.9283 176.078 93.9259 176.814L93.9257 176.878C93.9223 177.934 94.0904 178.745 94.4299 179.312C94.7802 179.868 95.4246 180.148 96.3632 180.152C97.1312 180.155 97.7028 179.874 98.078 179.31C98.4638 178.747 98.6584 177.931 98.6618 176.865C98.6652 175.787 98.4758 174.976 98.0936 174.43C97.722 173.885 97.1415 173.611 96.3522 173.608ZM103.783 172.613L103.756 181.189L102.348 181.183L102.375 172.607L103.783 172.613ZM103.105 169.394C103.319 169.395 103.505 169.471 103.665 169.62C103.835 169.76 103.92 169.984 103.919 170.293C103.918 170.592 103.832 170.816 103.66 170.964C103.5 171.113 103.313 171.187 103.1 171.186C102.865 171.185 102.668 171.11 102.508 170.96C102.349 170.81 102.27 170.586 102.271 170.287C102.272 169.978 102.352 169.754 102.513 169.616C102.673 169.467 102.871 169.393 103.105 169.394ZM107.881 181.205L106.473 181.2L106.512 169.04L107.92 169.045L107.881 181.205ZM112.006 181.222L110.598 181.216L110.637 169.056L112.045 169.062L112.006 181.222ZM120.314 178.886C120.312 179.441 120.172 179.905 119.894 180.277C119.615 180.649 119.22 180.93 118.707 181.12C118.194 181.31 117.586 181.404 116.882 181.401C116.285 181.399 115.768 181.348 115.331 181.251C114.904 181.153 114.526 181.018 114.196 180.846L114.2 179.566C114.541 179.738 114.951 179.9 115.43 180.051C115.921 180.192 116.416 180.263 116.918 180.265C117.632 180.268 118.15 180.158 118.471 179.935C118.792 179.702 118.953 179.393 118.954 179.009C118.954 178.796 118.896 178.604 118.78 178.432C118.663 178.261 118.45 178.09 118.141 177.918C117.843 177.746 117.412 177.552 116.847 177.337C116.293 177.121 115.819 176.906 115.425 176.691C115.031 176.476 114.728 176.219 114.516 175.919C114.303 175.62 114.198 175.236 114.199 174.766C114.202 174.041 114.497 173.482 115.085 173.09C115.683 172.697 116.463 172.503 117.423 172.507C117.945 172.509 118.43 172.564 118.878 172.673C119.336 172.771 119.763 172.911 120.157 173.094L119.673 174.212C119.439 174.104 119.188 174.013 118.922 173.937C118.666 173.851 118.405 173.786 118.139 173.742C117.872 173.687 117.6 173.66 117.323 173.659C116.747 173.656 116.304 173.751 115.994 173.941C115.695 174.121 115.545 174.372 115.544 174.692C115.543 174.926 115.612 175.129 115.75 175.3C115.888 175.461 116.117 175.622 116.436 175.783C116.766 175.934 117.203 176.117 117.746 176.332C118.29 176.537 118.753 176.747 119.136 176.962C119.52 177.177 119.812 177.439 120.014 177.749C120.216 178.049 120.316 178.428 120.314 178.886ZM134.005 177.005C134.002 177.719 133.904 178.354 133.711 178.908C133.528 179.451 133.259 179.914 132.906 180.296C132.564 180.679 132.141 180.971 131.639 181.171C131.148 181.361 130.598 181.455 129.99 181.453C129.425 181.451 128.903 181.353 128.423 181.159C127.944 180.954 127.529 180.659 127.178 180.274C126.827 179.888 126.552 179.423 126.351 178.878C126.161 178.323 126.067 177.688 126.069 176.973C126.072 176.024 126.234 175.225 126.557 174.575C126.879 173.915 127.339 173.416 127.937 173.077C128.536 172.727 129.246 172.554 130.067 172.557C130.846 172.56 131.528 172.739 132.113 173.093C132.71 173.437 133.172 173.94 133.5 174.603C133.84 175.255 134.008 176.055 134.005 177.005ZM127.525 176.979C127.523 177.651 127.606 178.238 127.775 178.74C127.955 179.231 128.231 179.611 128.604 179.879C128.976 180.147 129.45 180.283 130.026 180.285C130.602 180.287 131.077 180.156 131.452 179.891C131.826 179.625 132.099 179.248 132.271 178.758C132.454 178.257 132.547 177.671 132.549 176.999C132.551 176.316 132.462 175.735 132.282 175.254C132.103 174.773 131.826 174.404 131.454 174.147C131.092 173.878 130.618 173.743 130.031 173.741C129.157 173.737 128.521 174.023 128.124 174.597C127.728 175.172 127.528 175.966 127.525 176.979ZM140.378 172.598C141.402 172.602 142.175 172.856 142.696 173.359C143.217 173.852 143.476 174.653 143.472 175.762L143.454 181.346L142.062 181.341L142.08 175.853C142.082 175.159 141.929 174.641 141.621 174.299C141.313 173.956 140.828 173.784 140.167 173.781C139.217 173.777 138.56 174.041 138.196 174.573C137.832 175.105 137.648 175.872 137.645 176.875L137.63 181.323L136.222 181.317L136.25 172.742L137.386 172.746L137.59 173.915L137.67 173.915C137.863 173.617 138.099 173.373 138.377 173.182C138.665 172.98 138.98 172.832 139.322 172.738C139.664 172.643 140.016 172.596 140.378 172.598ZM147.521 181.362L146.113 181.357L146.152 169.197L147.56 169.202L147.521 181.362ZM151.673 172.803L151.646 181.379L150.238 181.373L150.265 172.797L151.673 172.803ZM150.996 169.584C151.209 169.585 151.395 169.66 151.555 169.81C151.725 169.949 151.81 170.174 151.809 170.483C151.808 170.782 151.722 171.005 151.551 171.154C151.39 171.303 151.203 171.377 150.99 171.376C150.755 171.375 150.558 171.299 150.399 171.15C150.239 171 150.16 170.775 150.161 170.477C150.162 170.167 150.243 169.944 150.403 169.806C150.564 169.657 150.761 169.583 150.996 169.584ZM158.519 172.67C159.543 172.674 160.315 172.927 160.836 173.431C161.358 173.924 161.616 174.725 161.613 175.834L161.595 181.418L160.203 181.412L160.22 175.924C160.223 175.231 160.07 174.713 159.761 174.371C159.453 174.028 158.968 173.855 158.307 173.853C157.358 173.849 156.701 174.113 156.337 174.645C155.972 175.177 155.788 175.944 155.785 176.947L155.771 181.395L154.363 181.389L154.39 172.813L155.526 172.818L155.731 173.987L155.811 173.987C156.004 173.689 156.239 173.445 156.517 173.254C156.806 173.052 157.121 172.904 157.462 172.81C157.804 172.715 158.156 172.668 158.519 172.67ZM167.593 172.706C168.329 172.709 168.958 172.871 169.48 173.193C170.012 173.515 170.416 173.97 170.692 174.558C170.978 175.135 171.12 175.813 171.117 176.592L171.114 177.44L165.242 177.416C165.261 178.387 165.504 179.129 165.971 179.643C166.45 180.146 167.115 180.4 167.969 180.403C168.513 180.405 168.993 180.359 169.409 180.265C169.836 180.16 170.274 180.012 170.723 179.822L170.719 181.054C170.281 181.244 169.848 181.381 169.421 181.465C168.994 181.559 168.488 181.605 167.901 181.603C167.09 181.6 166.371 181.432 165.743 181.098C165.125 180.765 164.641 180.273 164.291 179.621C163.952 178.958 163.784 178.152 163.787 177.203C163.79 176.264 163.947 175.459 164.259 174.788C164.581 174.118 165.025 173.602 165.592 173.242C166.169 172.881 166.836 172.703 167.593 172.706ZM167.574 173.858C166.902 173.855 166.368 174.071 165.972 174.507C165.586 174.932 165.355 175.529 165.278 176.296L169.646 176.314C169.647 175.823 169.574 175.396 169.426 175.033C169.278 174.67 169.049 174.386 168.741 174.182C168.443 173.968 168.054 173.859 167.574 173.858Z" fill="black" fill-opacity="0.85"/>
<path d="M57.54 163V148.1H63.82C64.7533 148.1 65.56 148.267 66.24 148.6C66.92 148.92 67.44 149.387 67.8 150C68.16 150.6 68.34 151.313 68.34 152.14C68.34 152.86 68.1533 153.52 67.78 154.12C67.42 154.707 66.8533 155.173 66.08 155.52V154.52C66.76 154.787 67.3133 155.127 67.74 155.54C68.1667 155.94 68.4733 156.393 68.66 156.9C68.86 157.407 68.96 157.94 68.96 158.5C68.96 159.9 68.5 161 67.58 161.8C66.6733 162.6 65.4267 163 63.84 163H57.54ZM59.9 160.9H64.02C64.8067 160.9 65.4333 160.687 65.9 160.26C66.3667 159.82 66.6 159.24 66.6 158.52C66.6 157.787 66.3667 157.207 65.9 156.78C65.4333 156.34 64.8067 156.12 64.02 156.12H59.9V160.9ZM59.9 154.04H63.88C64.52 154.04 65.0333 153.86 65.42 153.5C65.8067 153.127 66 152.64 66 152.04C66 151.44 65.8067 150.973 65.42 150.64C65.0333 150.307 64.52 150.14 63.88 150.14H59.9V154.04ZM71.1677 163V152.18H73.4277V163H71.1677ZM71.1677 150.7V148.1H73.4277V150.7H71.1677ZM76.07 163V147.86H78.33V163H76.07ZM80.9723 163V147.86H83.2323V163H80.9723ZM89.8747 163.24C88.768 163.24 87.7947 162.967 86.9547 162.42C86.128 161.873 85.548 161.14 85.2147 160.22L86.9547 159.4C87.248 160.013 87.648 160.5 88.1547 160.86C88.6747 161.22 89.248 161.4 89.8747 161.4C90.408 161.4 90.8414 161.28 91.1747 161.04C91.508 160.8 91.6747 160.473 91.6747 160.06C91.6747 159.793 91.6014 159.58 91.4547 159.42C91.308 159.247 91.1214 159.107 90.8947 159C90.6814 158.893 90.4614 158.813 90.2347 158.76L88.5347 158.28C87.6014 158.013 86.9014 157.613 86.4347 157.08C85.9814 156.533 85.7547 155.9 85.7547 155.18C85.7547 154.527 85.9214 153.96 86.2547 153.48C86.588 152.987 87.048 152.607 87.6347 152.34C88.2214 152.073 88.8814 151.94 89.6147 151.94C90.6014 151.94 91.4814 152.187 92.2547 152.68C93.028 153.16 93.5747 153.833 93.8947 154.7L92.1547 155.52C91.9414 155 91.6014 154.587 91.1347 154.28C90.6814 153.973 90.168 153.82 89.5947 153.82C89.1014 153.82 88.708 153.94 88.4147 154.18C88.1214 154.407 87.9747 154.707 87.9747 155.08C87.9747 155.333 88.0414 155.547 88.1747 155.72C88.308 155.88 88.4814 156.013 88.6947 156.12C88.908 156.213 89.128 156.293 89.3547 156.36L91.1147 156.88C92.008 157.133 92.6947 157.533 93.1747 158.08C93.6547 158.613 93.8947 159.253 93.8947 160C93.8947 160.64 93.7214 161.207 93.3747 161.7C93.0414 162.18 92.5747 162.56 91.9747 162.84C91.3747 163.107 90.6747 163.24 89.8747 163.24ZM99.6052 163V152.18H101.765V154.3L101.505 154.02C101.772 153.34 102.198 152.827 102.785 152.48C103.372 152.12 104.052 151.94 104.825 151.94C105.625 151.94 106.332 152.113 106.945 152.46C107.558 152.807 108.038 153.287 108.385 153.9C108.732 154.513 108.905 155.22 108.905 156.02V163H106.665V156.62C106.665 156.073 106.565 155.613 106.365 155.24C106.165 154.853 105.878 154.56 105.505 154.36C105.145 154.147 104.732 154.04 104.265 154.04C103.798 154.04 103.378 154.147 103.005 154.36C102.645 154.56 102.365 154.853 102.165 155.24C101.965 155.627 101.865 156.087 101.865 156.62V163H99.6052ZM115.04 163V148.1H120.46C121.46 148.1 122.34 148.287 123.1 148.66C123.873 149.02 124.473 149.553 124.9 150.26C125.327 150.953 125.54 151.787 125.54 152.76C125.54 153.72 125.32 154.547 124.88 155.24C124.453 155.933 123.86 156.467 123.1 156.84C122.34 157.213 121.46 157.4 120.46 157.4H117.4V163H115.04ZM117.4 155.3H120.52C121.053 155.3 121.52 155.193 121.92 154.98C122.32 154.767 122.633 154.473 122.86 154.1C123.087 153.713 123.2 153.26 123.2 152.74C123.2 152.22 123.087 151.773 122.86 151.4C122.633 151.013 122.32 150.72 121.92 150.52C121.52 150.307 121.053 150.2 120.52 150.2H117.4V155.3ZM130.287 163.24C129.553 163.24 128.907 163.113 128.347 162.86C127.8 162.593 127.373 162.233 127.067 161.78C126.76 161.313 126.607 160.767 126.607 160.14C126.607 159.553 126.733 159.027 126.987 158.56C127.253 158.093 127.66 157.7 128.207 157.38C128.753 157.06 129.44 156.833 130.267 156.7L134.027 156.08V157.86L130.707 158.44C130.107 158.547 129.667 158.74 129.387 159.02C129.107 159.287 128.967 159.633 128.967 160.06C128.967 160.473 129.12 160.813 129.427 161.08C129.747 161.333 130.153 161.46 130.647 161.46C131.26 161.46 131.793 161.327 132.247 161.06C132.713 160.793 133.073 160.44 133.327 160C133.58 159.547 133.707 159.047 133.707 158.5V155.72C133.707 155.187 133.507 154.753 133.107 154.42C132.72 154.073 132.2 153.9 131.547 153.9C130.947 153.9 130.42 154.06 129.967 154.38C129.527 154.687 129.2 155.087 128.987 155.58L127.107 154.64C127.307 154.107 127.633 153.64 128.087 153.24C128.54 152.827 129.067 152.507 129.667 152.28C130.28 152.053 130.927 151.94 131.607 151.94C132.46 151.94 133.213 152.1 133.867 152.42C134.533 152.74 135.047 153.187 135.407 153.76C135.78 154.32 135.967 154.973 135.967 155.72V163H133.807V161.04L134.267 161.1C134.013 161.54 133.687 161.92 133.287 162.24C132.9 162.56 132.453 162.807 131.947 162.98C131.453 163.153 130.9 163.24 130.287 163.24ZM139.569 167.42C139.302 167.42 139.036 167.393 138.769 167.34C138.516 167.3 138.282 167.233 138.069 167.14V165.2C138.229 165.24 138.422 165.273 138.649 165.3C138.876 165.34 139.096 165.36 139.309 165.36C139.936 165.36 140.396 165.22 140.689 164.94C140.996 164.673 141.269 164.253 141.509 163.68L142.229 162.04L142.189 163.94L137.509 152.18H139.929L143.389 161.2H142.569L146.009 152.18H148.449L143.669 164.18C143.416 164.82 143.096 165.38 142.709 165.86C142.336 166.353 141.889 166.733 141.369 167C140.862 167.28 140.262 167.42 139.569 167.42ZM149.996 163V152.18H152.156V154.52L151.876 154.16C152.102 153.427 152.516 152.873 153.116 152.5C153.716 152.127 154.402 151.94 155.176 151.94C156.042 151.94 156.809 152.173 157.476 152.64C158.156 153.093 158.609 153.7 158.836 154.46L158.196 154.52C158.516 153.653 159.002 153.007 159.656 152.58C160.322 152.153 161.082 151.94 161.936 151.94C162.682 151.94 163.356 152.113 163.956 152.46C164.569 152.807 165.056 153.287 165.416 153.9C165.776 154.513 165.956 155.213 165.956 156V163H163.696V156.62C163.696 156.073 163.596 155.613 163.396 155.24C163.209 154.853 162.942 154.56 162.596 154.36C162.262 154.147 161.869 154.04 161.416 154.04C160.962 154.04 160.562 154.147 160.216 154.36C159.869 154.56 159.596 154.853 159.396 155.24C159.196 155.627 159.096 156.087 159.096 156.62V163H156.856V156.62C156.856 156.073 156.756 155.613 156.556 155.24C156.369 154.853 156.102 154.56 155.756 154.36C155.422 154.147 155.022 154.04 154.556 154.04C154.102 154.04 153.702 154.147 153.356 154.36C153.009 154.56 152.736 154.853 152.536 155.24C152.349 155.627 152.256 156.087 152.256 156.62V163H149.996ZM173.455 163.24C172.375 163.24 171.415 162.993 170.575 162.5C169.748 161.993 169.101 161.313 168.635 160.46C168.168 159.593 167.935 158.627 167.935 157.56C167.935 156.467 168.168 155.5 168.635 154.66C169.115 153.82 169.755 153.16 170.555 152.68C171.355 152.187 172.261 151.94 173.275 151.94C174.088 151.94 174.815 152.08 175.455 152.36C176.095 152.64 176.635 153.027 177.075 153.52C177.515 154 177.848 154.553 178.075 155.18C178.315 155.807 178.435 156.473 178.435 157.18C178.435 157.353 178.428 157.533 178.415 157.72C178.401 157.907 178.375 158.08 178.335 158.24H169.715V156.44H177.055L175.975 157.26C176.108 156.607 176.061 156.027 175.835 155.52C175.621 155 175.288 154.593 174.835 154.3C174.395 153.993 173.875 153.84 173.275 153.84C172.675 153.84 172.141 153.993 171.675 154.3C171.208 154.593 170.848 155.02 170.595 155.58C170.341 156.127 170.241 156.793 170.295 157.58C170.228 158.313 170.328 158.953 170.595 159.5C170.875 160.047 171.261 160.473 171.755 160.78C172.261 161.087 172.835 161.24 173.475 161.24C174.128 161.24 174.681 161.093 175.135 160.8C175.601 160.507 175.968 160.127 176.235 159.66L178.075 160.56C177.861 161.067 177.528 161.527 177.075 161.94C176.635 162.34 176.101 162.66 175.475 162.9C174.861 163.127 174.188 163.24 173.455 163.24ZM180.64 163V152.18H182.8V154.3L182.54 154.02C182.807 153.34 183.234 152.827 183.82 152.48C184.407 152.12 185.087 151.94 185.86 151.94C186.66 151.94 187.367 152.113 187.98 152.46C188.594 152.807 189.074 153.287 189.42 153.9C189.767 154.513 189.94 155.22 189.94 156.02V163H187.7V156.62C187.7 156.073 187.6 155.613 187.4 155.24C187.2 154.853 186.914 154.56 186.54 154.36C186.18 154.147 185.767 154.04 185.3 154.04C184.834 154.04 184.414 154.147 184.04 154.36C183.68 154.56 183.4 154.853 183.2 155.24C183 155.627 182.9 156.087 182.9 156.62V163H180.64ZM197.039 163.12C195.906 163.12 195.026 162.8 194.399 162.16C193.772 161.52 193.459 160.62 193.459 159.46V154.22H191.559V152.18H191.859C192.366 152.18 192.759 152.033 193.039 151.74C193.319 151.447 193.459 151.047 193.459 150.54V149.7H195.719V152.18H198.179V154.22H195.719V159.36C195.719 159.733 195.779 160.053 195.899 160.32C196.019 160.573 196.212 160.773 196.479 160.92C196.746 161.053 197.092 161.12 197.519 161.12C197.626 161.12 197.746 161.113 197.879 161.1C198.012 161.087 198.139 161.073 198.259 161.06V163C198.072 163.027 197.866 163.053 197.639 163.08C197.412 163.107 197.212 163.12 197.039 163.12Z" fill="black" fill-opacity="0.85"/>
<rect y="145" width="39" height="38" rx="15" fill="#3322BB"/>
<path d="M28.9344 156.066L20.4076 152.744C19.8239 152.516 19.1761 152.516 18.5924 152.744L10.0656 156.066L10.6101 157.464L10.0656 156.066C8.98788 156.486 8.3389 157.59 8.49645 158.736L9.42524 165.491C9.69634 167.462 10.74 169.245 12.3264 170.447L17.9904 174.738C18.8832 175.415 20.1169 175.415 21.0096 174.738L26.6736 170.447C28.26 169.245 29.3037 167.462 29.5748 165.491L30.5036 158.736C30.6611 157.59 30.0121 156.486 28.9344 156.066Z" stroke="white" stroke-opacity="0.8" stroke-width="3" stroke-linecap="round"/>
<path d="M15.375 164L19.089 167.376C19.3086 167.576 19.6529 167.541 19.8285 167.302L25 160.25" stroke="white" stroke-opacity="0.8" stroke-width="3" stroke-linecap="round"/>
<circle cx="299" cy="93" r="9.5" stroke="#212121"/>
<path d="M62.9709 107.659C62.9691 108.214 62.8289 108.678 62.5504 109.05C62.2719 109.422 61.8763 109.703 61.3637 109.893C60.8511 110.083 60.2428 110.177 59.5388 110.174C58.9415 110.171 58.4243 110.121 57.9873 110.024C57.5609 109.926 57.1827 109.791 56.8526 109.619L56.8567 108.339C57.1974 108.511 57.6076 108.673 58.0871 108.824C58.5773 108.965 59.0731 109.036 59.5744 109.038C60.2891 109.041 60.8068 108.931 61.1275 108.708C61.4482 108.475 61.6092 108.166 61.6105 107.782C61.6112 107.569 61.5531 107.376 61.4363 107.205C61.3195 107.034 61.1067 106.863 60.798 106.691C60.4998 106.519 60.0685 106.325 59.5038 106.11C58.9498 105.894 58.4759 105.679 58.0819 105.464C57.6879 105.249 57.3847 104.992 57.1723 104.692C56.96 104.393 56.8545 104.009 56.856 103.539C56.8584 102.814 57.1535 102.255 57.7414 101.863C58.34 101.47 59.1193 101.276 60.0793 101.28C60.6019 101.282 61.0871 101.337 61.5348 101.446C61.9931 101.544 62.4193 101.684 62.8134 101.867L62.3298 102.985C62.0955 102.877 61.8451 102.786 61.5787 102.71C61.323 102.624 61.0619 102.558 60.7953 102.515C60.5288 102.46 60.2569 102.433 59.9796 102.432C59.4036 102.429 58.9606 102.524 58.6507 102.714C58.3514 102.894 58.2013 103.145 58.2003 103.465C58.1995 103.699 58.2682 103.902 58.4063 104.073C58.5445 104.234 58.7733 104.395 59.0928 104.556C59.423 104.707 59.8597 104.89 60.403 105.105C60.9464 105.31 61.4097 105.52 61.793 105.735C62.1763 105.95 62.4688 106.212 62.6705 106.522C62.8722 106.822 62.9723 107.201 62.9709 107.659ZM69.1435 101.316C70.1995 101.32 71.0463 101.691 71.6839 102.43C72.3322 103.168 72.654 104.279 72.6492 105.762C72.6461 106.732 72.4942 107.553 72.1934 108.224C71.9032 108.884 71.491 109.384 70.9565 109.723C70.4328 110.052 69.8136 110.215 69.099 110.212C68.6616 110.21 68.2725 110.15 67.9315 110.031C67.5906 109.912 67.2977 109.762 67.053 109.58C66.8189 109.387 66.6169 109.178 66.447 108.953L66.351 108.953C66.3717 109.134 66.3923 109.364 66.4128 109.641C66.4332 109.918 66.4431 110.159 66.4425 110.361L66.4312 113.881L65.0232 113.876L65.063 101.46L66.215 101.464L66.4032 102.633L66.4672 102.633C66.6387 102.389 66.8421 102.165 67.0774 101.964C67.3234 101.762 67.6119 101.603 67.9429 101.487C68.2846 101.371 68.6848 101.314 69.1435 101.316ZM68.8837 102.499C68.3077 102.497 67.8433 102.607 67.4906 102.829C67.1379 103.041 66.8809 103.366 66.7195 103.802C66.5581 104.239 66.471 104.793 66.4582 105.465L66.4573 105.737C66.455 106.441 66.5278 107.039 66.6755 107.53C66.8233 108.021 67.0728 108.396 67.424 108.653C67.7858 108.911 68.2761 109.04 68.8947 109.043C69.4174 109.045 69.8445 108.903 70.1761 108.616C70.5183 108.329 70.7703 107.941 70.9318 107.451C71.1041 106.95 71.1913 106.38 71.1933 105.74C71.1964 104.759 71.007 103.974 70.6248 103.386C70.2534 102.798 69.673 102.502 68.8837 102.499ZM78.2191 101.352C78.9551 101.355 79.584 101.517 80.1056 101.839C80.6379 102.161 81.0418 102.616 81.3172 103.204C81.6034 103.781 81.7452 104.459 81.7427 105.238L81.74 106.086L75.868 106.062C75.8863 107.033 76.1292 107.776 76.5969 108.289C77.0753 108.793 77.7412 109.046 78.5945 109.049C79.1385 109.051 79.6186 109.005 80.0349 108.911C80.4619 108.806 80.8998 108.658 81.3484 108.468L81.3444 109.7C80.9065 109.89 80.474 110.027 80.0471 110.111C79.6201 110.205 79.1133 110.251 78.5266 110.249C77.716 110.246 76.9965 110.078 76.3683 109.744C75.7507 109.411 75.2669 108.919 74.917 108.267C74.5778 107.604 74.4097 106.798 74.4127 105.849C74.4157 104.91 74.573 104.105 74.8845 103.435C75.2066 102.764 75.6509 102.248 76.2174 101.888C76.7946 101.527 77.4618 101.349 78.2191 101.352ZM78.1995 102.504C77.5275 102.501 76.9934 102.718 76.5974 103.153C76.212 103.578 75.9808 104.175 75.9036 104.943L80.2716 104.96C80.2732 104.469 80.1999 104.042 80.0517 103.679C79.9035 103.316 79.6751 103.032 79.3664 102.828C79.0684 102.614 78.6795 102.506 78.1995 102.504ZM88.0663 101.391C89.0903 101.395 89.8628 101.649 90.3839 102.152C90.905 102.645 91.1638 103.446 91.1602 104.555L91.1423 110.139L89.7503 110.133L89.7679 104.646C89.7701 103.952 89.6171 103.434 89.3089 103.092C89.0006 102.749 88.5159 102.577 87.8545 102.574C86.9052 102.57 86.2484 102.834 85.884 103.366C85.5196 103.898 85.3358 104.665 85.3326 105.668L85.3184 110.116L83.9104 110.11L83.9378 101.534L85.0738 101.539L85.2781 102.708L85.3581 102.708C85.551 102.41 85.7865 102.166 86.0644 101.975C86.3531 101.773 86.6682 101.625 87.0099 101.531C87.3515 101.436 87.7037 101.389 88.0663 101.391ZM96.8404 110.322C95.7737 110.317 94.9216 109.946 94.2839 109.207C93.6463 108.458 93.3299 107.348 93.3346 105.876C93.3393 104.404 93.6629 103.296 94.3053 102.551C94.9583 101.797 95.8182 101.421 96.8849 101.426C97.3329 101.427 97.722 101.488 98.0523 101.606C98.3826 101.714 98.6701 101.865 98.9149 102.058C99.1596 102.251 99.3669 102.465 99.5368 102.7L99.6328 102.701C99.6226 102.562 99.6019 102.359 99.5708 102.092C99.5503 101.815 99.5403 101.596 99.5409 101.436L99.5518 98.0122L100.96 98.0178L100.921 110.178L99.7849 110.173L99.5806 109.02L99.5166 109.02C99.3451 109.265 99.1364 109.488 98.8904 109.69C98.6445 109.881 98.3506 110.034 98.0089 110.15C97.6779 110.266 97.2884 110.323 96.8404 110.322ZM97.0681 109.154C97.9748 109.158 98.6102 108.915 98.9745 108.426C99.3494 107.926 99.5385 107.175 99.5417 106.172L99.5425 105.916C99.5459 104.85 99.3725 104.033 99.0223 103.466C98.6722 102.889 98.0225 102.598 97.0731 102.594C96.3158 102.591 95.7442 102.893 95.3582 103.5C94.983 104.095 94.7937 104.9 94.7905 105.913C94.7872 106.937 94.9713 107.733 95.3428 108.3C95.725 108.866 96.3001 109.151 97.0681 109.154ZM111.077 101.498C112.122 101.502 112.895 101.734 113.394 102.195C113.894 102.656 114.143 103.387 114.139 104.39L114.121 110.23L113.097 110.226L112.829 109.009L112.765 109.009C112.518 109.317 112.262 109.577 111.994 109.79C111.738 109.991 111.438 110.139 111.097 110.234C110.766 110.329 110.36 110.375 109.88 110.373C109.368 110.371 108.905 110.279 108.489 110.096C108.084 109.913 107.765 109.634 107.532 109.26C107.298 108.875 107.183 108.394 107.184 107.818C107.187 106.965 107.525 106.31 108.199 105.854C108.872 105.388 109.908 105.136 111.305 105.099L112.761 105.057L112.763 104.545C112.765 103.83 112.612 103.333 112.304 103.055C111.995 102.776 111.558 102.636 110.993 102.634C110.545 102.632 110.118 102.699 109.712 102.836C109.307 102.963 108.928 103.111 108.575 103.28L108.146 102.222C108.52 102.021 108.964 101.852 109.476 101.716C109.988 101.568 110.522 101.496 111.077 101.498ZM111.478 106.075C110.411 106.114 109.669 106.282 109.252 106.579C108.846 106.876 108.642 107.296 108.64 107.84C108.639 108.32 108.782 108.673 109.069 108.898C109.367 109.123 109.745 109.237 110.204 109.238C110.929 109.241 111.533 109.046 112.014 108.654C112.495 108.25 112.737 107.632 112.74 106.8L112.742 106.032L111.478 106.075ZM120.925 101.521C121.949 101.525 122.722 101.779 123.243 102.282C123.764 102.775 124.023 103.576 124.019 104.685L124.001 110.269L122.609 110.264L122.627 104.776C122.629 104.082 122.476 103.564 122.168 103.222C121.86 102.879 121.375 102.707 120.714 102.704C119.764 102.7 119.107 102.964 118.743 103.496C118.379 104.028 118.195 104.795 118.192 105.798L118.177 110.246L116.769 110.24L116.797 101.665L117.933 101.669L118.137 102.838L118.217 102.838C118.41 102.54 118.646 102.296 118.924 102.105C119.212 101.903 119.527 101.755 119.869 101.661C120.211 101.566 120.563 101.519 120.925 101.521ZM129.699 110.452C128.633 110.447 127.781 110.076 127.143 109.338C126.505 108.588 126.189 107.478 126.194 106.006C126.198 104.534 126.522 103.426 127.164 102.682C127.817 101.927 128.677 101.552 129.744 101.556C130.192 101.558 130.581 101.618 130.911 101.736C131.242 101.844 131.529 101.995 131.774 102.188C132.019 102.381 132.226 102.595 132.396 102.83L132.492 102.831C132.482 102.692 132.461 102.489 132.43 102.222C132.409 101.945 132.399 101.726 132.4 101.566L132.411 98.1423L133.819 98.1479L133.78 110.308L132.644 110.303L132.44 109.15L132.376 109.15C132.204 109.395 131.996 109.618 131.75 109.82C131.504 110.011 131.21 110.164 130.868 110.28C130.537 110.396 130.147 110.453 129.699 110.452ZM129.927 109.285C130.834 109.288 131.469 109.045 131.834 108.556C132.209 108.056 132.398 107.305 132.401 106.302L132.402 106.046C132.405 104.98 132.232 104.163 131.881 103.596C131.531 103.019 130.882 102.728 129.932 102.725C129.175 102.722 128.603 103.023 128.217 103.63C127.842 104.226 127.653 105.03 127.65 106.044C127.646 107.068 127.83 107.863 128.202 108.43C128.584 108.997 129.159 109.282 129.927 109.285ZM144.768 101.615C145.824 101.619 146.671 101.991 147.308 102.729C147.957 103.468 148.278 104.579 148.274 106.061C148.271 107.032 148.119 107.853 147.818 108.523C147.528 109.184 147.115 109.683 146.581 110.022C146.057 110.351 145.438 110.514 144.723 110.511C144.286 110.509 143.897 110.449 143.556 110.331C143.215 110.212 142.922 110.061 142.677 109.879C142.443 109.686 142.241 109.477 142.071 109.253L141.975 109.252C141.996 109.434 142.017 109.663 142.037 109.941C142.058 110.218 142.068 110.458 142.067 110.661L142.056 114.181L140.648 114.175L140.687 101.759L141.839 101.764L142.028 102.932L142.092 102.933C142.263 102.688 142.466 102.465 142.702 102.263C142.948 102.061 143.236 101.903 143.567 101.786C143.909 101.671 144.309 101.613 144.768 101.615ZM144.508 102.798C143.932 102.796 143.468 102.906 143.115 103.129C142.762 103.341 142.505 103.665 142.344 104.102C142.182 104.538 142.095 105.093 142.083 105.765L142.082 106.037C142.079 106.741 142.152 107.338 142.3 107.83C142.448 108.321 142.697 108.695 143.048 108.952C143.41 109.21 143.9 109.34 144.519 109.342C145.042 109.344 145.469 109.202 145.8 108.915C146.143 108.629 146.395 108.24 146.556 107.75C146.729 107.25 146.816 106.679 146.818 106.039C146.821 105.058 146.631 104.273 146.249 103.685C145.878 103.097 145.297 102.801 144.508 102.798ZM153.78 101.667C154.825 101.671 155.597 101.903 156.097 102.364C156.597 102.825 156.845 103.556 156.842 104.559L156.824 110.399L155.8 110.395L155.531 109.178L155.467 109.178C155.221 109.486 154.964 109.746 154.697 109.959C154.44 110.16 154.141 110.308 153.8 110.403C153.469 110.498 153.063 110.544 152.583 110.542C152.071 110.54 151.607 110.448 151.192 110.265C150.787 110.082 150.468 109.803 150.235 109.429C150.001 109.044 149.885 108.564 149.887 107.988C149.89 107.134 150.228 106.48 150.902 106.024C151.575 105.557 152.611 105.305 154.008 105.268L155.464 105.226L155.466 104.714C155.468 103.999 155.315 103.502 155.007 103.224C154.698 102.945 154.261 102.805 153.696 102.803C153.248 102.801 152.821 102.868 152.415 103.006C152.009 103.132 151.63 103.28 151.278 103.449L150.849 102.391C151.223 102.19 151.666 102.021 152.179 101.885C152.691 101.737 153.225 101.665 153.78 101.667ZM154.181 106.245C153.114 106.283 152.372 106.451 151.955 106.748C151.549 107.045 151.345 107.465 151.343 108.009C151.342 108.489 151.485 108.842 151.772 109.067C152.07 109.292 152.448 109.406 152.907 109.408C153.632 109.41 154.235 109.215 154.717 108.823C155.198 108.419 155.44 107.802 155.443 106.97L155.445 106.202L154.181 106.245ZM158.156 101.828L159.66 101.834L161.5 106.722C161.606 107.01 161.701 107.288 161.785 107.555C161.881 107.822 161.965 108.083 162.039 108.34C162.113 108.585 162.171 108.826 162.213 109.06L162.277 109.061C162.341 108.794 162.444 108.448 162.584 108.022C162.724 107.585 162.869 107.148 163.02 106.712L164.78 101.854L166.3 101.861L162.572 111.606C162.368 112.138 162.127 112.601 161.848 112.995C161.58 113.399 161.248 113.707 160.853 113.919C160.468 114.142 159.999 114.252 159.444 114.249C159.188 114.248 158.964 114.232 158.772 114.199C158.58 114.177 158.415 114.149 158.276 114.117L158.28 112.997C158.397 113.019 158.536 113.041 158.696 113.062C158.866 113.084 159.042 113.096 159.224 113.097C159.554 113.098 159.837 113.035 160.072 112.908C160.318 112.792 160.527 112.616 160.698 112.382C160.869 112.159 161.014 111.893 161.133 111.584L161.584 110.45L158.156 101.828ZM179.254 106.184C179.252 106.898 179.154 107.533 178.96 108.087C178.777 108.63 178.509 109.093 178.156 109.476C177.813 109.858 177.391 110.15 176.889 110.35C176.398 110.541 175.848 110.634 175.24 110.632C174.675 110.63 174.152 110.532 173.673 110.338C173.194 110.133 172.779 109.838 172.428 109.453C172.077 109.067 171.801 108.602 171.6 108.058C171.41 107.502 171.316 106.867 171.318 106.152C171.322 105.203 171.484 104.404 171.806 103.754C172.128 103.094 172.589 102.595 173.187 102.256C173.785 101.906 174.495 101.733 175.317 101.736C176.095 101.739 176.777 101.918 177.363 102.272C177.959 102.616 178.422 103.119 178.75 103.782C179.089 104.434 179.257 105.235 179.254 106.184ZM172.774 106.158C172.772 106.83 172.856 107.417 173.025 107.919C173.205 108.411 173.481 108.79 173.853 109.058C174.226 109.327 174.7 109.462 175.276 109.464C175.852 109.466 176.327 109.335 176.701 109.07C177.075 108.805 177.349 108.427 177.521 107.937C177.704 107.436 177.796 106.85 177.798 106.178C177.801 105.495 177.712 104.914 177.532 104.433C177.352 103.952 177.076 103.583 176.704 103.326C176.342 103.058 175.868 102.922 175.281 102.92C174.406 102.917 173.771 103.202 173.374 103.777C172.978 104.351 172.778 105.145 172.774 106.158ZM185.628 101.777C186.652 101.781 187.425 102.035 187.946 102.538C188.467 103.031 188.725 103.832 188.722 104.941L188.704 110.525L187.312 110.52L187.33 105.032C187.332 104.338 187.179 103.821 186.871 103.478C186.562 103.135 186.078 102.963 185.416 102.96C184.467 102.956 183.81 103.221 183.446 103.752C183.081 104.284 182.898 105.052 182.894 106.054L182.88 110.502L181.472 110.497L181.5 101.921L182.636 101.925L182.84 103.094L182.92 103.094C183.113 102.796 183.348 102.552 183.626 102.361C183.915 102.16 184.23 102.011 184.572 101.917C184.913 101.822 185.265 101.776 185.628 101.777ZM208.867 99.181L205.791 110.593L204.335 110.587L202.135 103.09C202.072 102.866 202.008 102.637 201.945 102.402C201.882 102.167 201.824 101.942 201.771 101.729C201.719 101.515 201.671 101.334 201.629 101.184C201.597 101.024 201.576 100.907 201.566 100.832C201.555 100.907 201.533 101.024 201.501 101.184C201.479 101.333 201.441 101.514 201.387 101.727C201.333 101.941 201.274 102.17 201.209 102.415C201.155 102.649 201.09 102.889 201.015 103.134L198.831 110.565L197.375 110.56L194.387 99.1237L195.891 99.1296L197.645 106.113C197.708 106.358 197.766 106.604 197.819 106.849C197.871 107.084 197.919 107.319 197.96 107.554C198.013 107.778 198.055 107.997 198.086 108.21C198.118 108.424 198.149 108.632 198.18 108.835C198.213 108.622 198.246 108.403 198.278 108.179C198.322 107.955 198.371 107.726 198.425 107.492C198.479 107.247 198.538 107.002 198.603 106.756C198.668 106.511 198.733 106.272 198.797 106.037L200.835 99.1492L202.323 99.1551L204.397 106.107C204.471 106.353 204.54 106.604 204.603 106.86C204.666 107.106 204.724 107.346 204.776 107.581C204.829 107.816 204.871 108.045 204.902 108.269C204.944 108.483 204.981 108.68 205.012 108.862C205.045 108.595 205.089 108.318 205.143 108.03C205.197 107.732 205.262 107.423 205.338 107.103C205.414 106.783 205.495 106.458 205.581 106.128L207.363 99.1751L208.867 99.181ZM211.829 102.025C211.829 102.227 211.817 102.435 211.795 102.649C211.784 102.862 211.767 103.054 211.745 103.224L211.841 103.225C212.024 102.927 212.254 102.682 212.532 102.492C212.81 102.301 213.12 102.158 213.461 102.063C213.803 101.958 214.155 101.906 214.518 101.907C215.211 101.91 215.787 102.024 216.245 102.25C216.713 102.465 217.064 102.803 217.297 103.262C217.531 103.722 217.646 104.32 217.644 105.056L217.626 110.64L216.234 110.634L216.251 105.146C216.254 104.453 216.101 103.935 215.792 103.592C215.484 103.25 214.999 103.077 214.338 103.075C213.698 103.072 213.196 103.193 212.833 103.437C212.469 103.67 212.207 104.021 212.045 104.49C211.895 104.948 211.818 105.513 211.816 106.185L211.802 110.617L210.394 110.611L210.433 98.4512L211.841 98.4568L211.829 102.025ZM223.56 101.943C224.606 101.947 225.378 102.18 225.878 102.64C226.378 103.101 226.626 103.833 226.623 104.835L226.604 110.675L225.58 110.671L225.312 109.454L225.248 109.454C225.002 109.762 224.745 110.023 224.478 110.235C224.221 110.437 223.922 110.585 223.58 110.679C223.249 110.774 222.844 110.82 222.364 110.819C221.852 110.817 221.388 110.724 220.973 110.541C220.568 110.358 220.249 110.08 220.015 109.705C219.782 109.32 219.666 108.84 219.668 108.264C219.671 107.411 220.009 106.756 220.682 106.3C221.356 105.833 222.391 105.581 223.789 105.544L225.245 105.502L225.246 104.99C225.249 104.275 225.096 103.779 224.787 103.5C224.479 103.222 224.042 103.081 223.477 103.079C223.029 103.077 222.602 103.145 222.196 103.282C221.79 103.408 221.411 103.556 221.058 103.725L220.63 102.668C221.004 102.466 221.447 102.298 221.96 102.161C222.472 102.014 223.006 101.941 223.56 101.943ZM223.962 106.521C222.895 106.559 222.153 106.727 221.736 107.024C221.33 107.321 221.126 107.742 221.124 108.286C221.122 108.766 221.265 109.118 221.552 109.343C221.85 109.569 222.229 109.682 222.687 109.684C223.413 109.687 224.016 109.492 224.497 109.099C224.979 108.696 225.221 108.078 225.223 107.246L225.226 106.478L223.962 106.521ZM232.12 109.705C232.333 109.706 232.552 109.691 232.776 109.66C233 109.618 233.182 109.576 233.321 109.534L233.317 110.606C233.168 110.68 232.954 110.738 232.677 110.779C232.399 110.832 232.132 110.857 231.876 110.856C231.428 110.854 231.013 110.778 230.629 110.627C230.256 110.466 229.953 110.193 229.72 109.808C229.486 109.423 229.371 108.884 229.373 108.19L229.389 103.198L228.173 103.193L228.175 102.521L229.409 101.966L229.975 100.145L230.807 100.148L230.8 102.116L233.28 102.126L233.277 103.214L230.797 103.204L230.781 108.164C230.779 108.687 230.901 109.076 231.145 109.333C231.401 109.58 231.725 109.704 232.12 109.705ZM240.626 108.363C240.624 108.918 240.484 109.381 240.205 109.753C239.927 110.125 239.531 110.407 239.019 110.596C238.506 110.786 237.898 110.88 237.194 110.877C236.596 110.875 236.079 110.825 235.642 110.727C235.216 110.629 234.838 110.495 234.507 110.323L234.512 109.043C234.852 109.215 235.262 109.376 235.742 109.528C236.232 109.668 236.728 109.739 237.229 109.741C237.944 109.744 238.462 109.634 238.782 109.412C239.103 109.178 239.264 108.869 239.265 108.485C239.266 108.272 239.208 108.08 239.091 107.909C238.974 107.738 238.762 107.566 238.453 107.394C238.155 107.222 237.723 107.029 237.159 106.813C236.605 106.598 236.131 106.382 235.737 106.167C235.343 105.953 235.04 105.695 234.827 105.396C234.615 105.096 234.509 104.712 234.511 104.243C234.513 103.517 234.808 102.958 235.396 102.566C235.995 102.174 236.774 101.98 237.734 101.983C238.257 101.985 238.742 102.041 239.19 102.149C239.648 102.247 240.074 102.387 240.468 102.57L239.985 103.688C239.75 103.581 239.5 103.489 239.234 103.413C238.978 103.327 238.717 103.262 238.45 103.218C238.184 103.164 237.912 103.136 237.634 103.135C237.058 103.133 236.615 103.227 236.306 103.418C236.006 103.598 235.856 103.848 235.855 104.168C235.854 104.403 235.923 104.606 236.061 104.777C236.199 104.937 236.428 105.098 236.748 105.259C237.078 105.41 237.515 105.593 238.058 105.809C238.601 106.013 239.065 106.223 239.448 106.438C239.831 106.653 240.124 106.916 240.325 107.226C240.527 107.525 240.627 107.904 240.626 108.363ZM250.05 110.768L248.686 107.227L244.158 107.209L242.786 110.739L241.33 110.734L245.831 99.2794L247.127 99.2845L251.538 110.774L250.05 110.768ZM246.989 102.484C246.957 102.399 246.904 102.244 246.83 102.019C246.756 101.795 246.682 101.565 246.609 101.33C246.545 101.085 246.493 100.898 246.45 100.77C246.396 100.983 246.337 101.201 246.272 101.425C246.218 101.638 246.159 101.835 246.094 102.016C246.04 102.198 245.992 102.352 245.949 102.48L244.642 105.931L248.258 105.945L246.989 102.484ZM257.017 102.06C258.073 102.064 258.92 102.435 259.557 103.174C260.206 103.912 260.528 105.023 260.523 106.506C260.52 107.476 260.368 108.297 260.067 108.968C259.777 109.628 259.365 110.128 258.83 110.467C258.306 110.796 257.687 110.958 256.973 110.956C256.535 110.954 256.146 110.894 255.805 110.775C255.464 110.656 255.171 110.506 254.927 110.323C254.692 110.131 254.49 109.922 254.321 109.697L254.225 109.697C254.245 109.878 254.266 110.108 254.286 110.385C254.307 110.662 254.317 110.902 254.316 111.105L254.305 114.625L252.897 114.619L252.937 102.204L254.089 102.208L254.277 103.377L254.341 103.377C254.512 103.132 254.716 102.909 254.951 102.708C255.197 102.506 255.485 102.347 255.816 102.231C256.158 102.115 256.558 102.058 257.017 102.06ZM256.757 103.243C256.181 103.24 255.717 103.351 255.364 103.573C255.011 103.785 254.754 104.109 254.593 104.546C254.432 104.983 254.345 105.537 254.332 106.209L254.331 106.481C254.329 107.185 254.401 107.783 254.549 108.274C254.697 108.765 254.946 109.14 255.297 109.397C255.659 109.654 256.15 109.784 256.768 109.787C257.291 109.789 257.718 109.647 258.05 109.36C258.392 109.073 258.644 108.685 258.805 108.195C258.978 107.694 259.065 107.124 259.067 106.484C259.07 105.503 258.88 104.718 258.498 104.13C258.127 103.541 257.547 103.246 256.757 103.243ZM266.861 102.099C267.917 102.103 268.763 102.474 269.401 103.213C270.049 103.951 270.371 105.062 270.366 106.545C270.363 107.515 270.211 108.336 269.911 109.007C269.62 109.667 269.208 110.167 268.674 110.506C268.15 110.835 267.531 110.997 266.816 110.995C266.379 110.993 265.99 110.933 265.649 110.814C265.308 110.695 265.015 110.545 264.77 110.362C264.536 110.17 264.334 109.961 264.164 109.736L264.068 109.736C264.089 109.917 264.11 110.147 264.13 110.424C264.15 110.701 264.16 110.941 264.16 111.144L264.148 114.664L262.74 114.658L262.78 102.243L263.932 102.247L264.12 103.416L264.184 103.416C264.356 103.171 264.559 102.948 264.795 102.746C265.041 102.545 265.329 102.386 265.66 102.27C266.002 102.154 266.402 102.097 266.861 102.099ZM266.601 103.282C266.025 103.279 265.561 103.39 265.208 103.612C264.855 103.824 264.598 104.148 264.437 104.585C264.275 105.022 264.188 105.576 264.175 106.248L264.174 106.52C264.172 107.224 264.245 107.822 264.393 108.313C264.541 108.804 264.79 109.179 265.141 109.436C265.503 109.693 265.993 109.823 266.612 109.826C267.135 109.828 267.562 109.686 267.893 109.399C268.236 109.112 268.487 108.724 268.649 108.234C268.821 107.733 268.908 107.163 268.911 106.523C268.914 105.541 268.724 104.757 268.342 104.169C267.971 103.58 267.39 103.285 266.601 103.282Z" fill="black" fill-opacity="0.85"/>
<path d="M57.54 92V77.1H63.82C64.7533 77.1 65.56 77.2667 66.24 77.6C66.92 77.92 67.44 78.3867 67.8 79C68.16 79.6 68.34 80.3133 68.34 81.14C68.34 81.86 68.1533 82.52 67.78 83.12C67.42 83.7067 66.8533 84.1733 66.08 84.52V83.52C66.76 83.7867 67.3133 84.1267 67.74 84.54C68.1667 84.94 68.4733 85.3933 68.66 85.9C68.86 86.4067 68.96 86.94 68.96 87.5C68.96 88.9 68.5 90 67.58 90.8C66.6733 91.6 65.4267 92 63.84 92H57.54ZM59.9 89.9H64.02C64.8067 89.9 65.4333 89.6867 65.9 89.26C66.3667 88.82 66.6 88.24 66.6 87.52C66.6 86.7867 66.3667 86.2067 65.9 85.78C65.4333 85.34 64.8067 85.12 64.02 85.12H59.9V89.9ZM59.9 83.04H63.88C64.52 83.04 65.0333 82.86 65.42 82.5C65.8067 82.1267 66 81.64 66 81.04C66 80.44 65.8067 79.9733 65.42 79.64C65.0333 79.3067 64.52 79.14 63.88 79.14H59.9V83.04ZM76.2477 92.24C75.1677 92.24 74.2077 91.9933 73.3677 91.5C72.541 90.9933 71.8943 90.3133 71.4277 89.46C70.961 88.5933 70.7277 87.6267 70.7277 86.56C70.7277 85.4667 70.961 84.5 71.4277 83.66C71.9077 82.82 72.5477 82.16 73.3477 81.68C74.1477 81.1867 75.0543 80.94 76.0677 80.94C76.881 80.94 77.6077 81.08 78.2477 81.36C78.8877 81.64 79.4277 82.0267 79.8677 82.52C80.3077 83 80.641 83.5533 80.8677 84.18C81.1077 84.8067 81.2277 85.4733 81.2277 86.18C81.2277 86.3533 81.221 86.5333 81.2077 86.72C81.1943 86.9067 81.1677 87.08 81.1277 87.24H72.5077V85.44H79.8477L78.7677 86.26C78.901 85.6067 78.8543 85.0267 78.6277 84.52C78.4143 84 78.081 83.5933 77.6277 83.3C77.1877 82.9933 76.6677 82.84 76.0677 82.84C75.4677 82.84 74.9343 82.9933 74.4677 83.3C74.001 83.5933 73.641 84.02 73.3877 84.58C73.1343 85.1267 73.0343 85.7933 73.0877 86.58C73.021 87.3133 73.121 87.9533 73.3877 88.5C73.6677 89.0467 74.0543 89.4733 74.5477 89.78C75.0543 90.0867 75.6277 90.24 76.2677 90.24C76.921 90.24 77.4743 90.0933 77.9277 89.8C78.3943 89.5067 78.761 89.1267 79.0277 88.66L80.8677 89.56C80.6543 90.0667 80.321 90.5267 79.8677 90.94C79.4277 91.34 78.8943 91.66 78.2677 91.9C77.6543 92.1267 76.981 92.24 76.2477 92.24ZM83.4333 92V76.86H85.6933V92H83.4333ZM88.3356 92V76.86H90.5956V92H88.3356ZM93.458 92V77.1H95.658L101.258 84.86H100.158L105.658 77.1H107.858V92H105.518V79.88L106.398 80.12L100.778 87.8H100.538L95.038 80.12L95.818 79.88V92H93.458ZM110.718 92V81.18H112.978V92H110.718ZM110.718 79.7V77.1H112.978V79.7H110.718Z" fill="black" fill-opacity="0.85"/>
<rect y="74" width="39" height="38" rx="15" fill="#EDC432"/>
<path d="M28.9344 85.0659L20.4076 81.7438C19.8239 81.5164 19.1761 81.5164 18.5924 81.7438L10.0656 85.0659L10.6101 86.4636L10.0656 85.0659C8.98788 85.4858 8.3389 86.5901 8.49645 87.7359L9.42524 94.4907C9.69634 96.4624 10.74 98.2455 12.3264 99.4473L17.9904 103.738C18.8832 104.415 20.1169 104.415 21.0096 103.738L26.6736 99.4473C28.26 98.2455 29.3037 96.4624 29.5748 94.4907L30.5036 87.7359C30.6611 86.5901 30.0121 85.4858 28.9344 85.0659Z" stroke="white" stroke-opacity="0.8" stroke-width="3" stroke-linecap="round"/>
<path d="M15.375 93L19.089 96.3763C19.3086 96.576 19.6529 96.5415 19.8285 96.302L25 89.25" stroke="white" stroke-opacity="0.8" stroke-width="3" stroke-linecap="round"/>
<defs>
<filter id="filter0_d_101_221" x="287" y="154" width="24" height="24" filterUnits="userSpaceOnUse" color-interpolation-filters="sRGB">
<feFlood flood-opacity="0" result="BackgroundImageFix"/>
<feColorMatrix in="SourceAlpha" type="matrix" values="0 0 0 0 0 0 0 0 0 0 0 0 0 0 0 0 0 0 127 0" result="hardAlpha"/>
<feOffset dy="2"/>
<feGaussianBlur stdDeviation="1"/>
<feComposite in2="hardAlpha" operator="out"/>
<feColorMatrix type="matrix" values="0 0 0 0 0 0 0 0 0 0 0 0 0 0 0 0 0 0 0.25 0"/>
<feBlend mode="normal" in2="BackgroundImageFix" result="effect1_dropShadow_101_221"/>
<feBlend mode="normal" in="SourceGraphic" in2="effect1_dropShadow_101_221" result="shape"/>
</filter>
</defs>
</svg>
