<svg width="1131" height="1075" viewBox="0 0 1131 1075" fill="none" xmlns="http://www.w3.org/2000/svg">
<path d="M1010.36 431C1003.23 431 996.918 433.176 992.484 436.502C988.052 439.828 985.683 444.118 985.683 448.52C985.683 452.922 988.052 457.211 992.484 460.537C996.918 463.864 1003.23 466.039 1010.36 466.039C1017.5 466.039 1023.81 463.864 1028.24 460.537C1032.68 457.211 1035.05 452.922 1035.05 448.52C1035.05 444.118 1032.68 439.828 1028.24 436.502C1023.81 433.176 1017.5 431 1010.36 431Z" stroke="#4E0754" stroke-width="8"/>
<path d="M199.865 43.4482L205.589 27.7001L226.953 31.9198L232.677 16.1717L254.041 20.3914L259.765 4.64324" stroke="#00A7E5" stroke-width="8" stroke-linecap="round" stroke-linejoin="round"/>
<path d="M1074.5 177.163C1079.85 174.41 1084.2 170.737 1087.19 166.464C1090.18 162.191 1091.71 157.446 1091.65 152.639C1091.59 147.832 1089.94 143.108 1086.85 138.876C1083.75 134.644 1079.31 131.031 1073.9 128.349" stroke="#E2A21F" stroke-width="8"/>
<rect width="30.7424" height="41.7049" transform="matrix(0 -1 -1 0 262.069 1031.76)" fill="#D9DBE9"/>
<path d="M1114.59 774.29L1077.05 758.316V790.265L1114.59 774.29Z" fill="#100DB1"/>
<path d="M870.96 1053.28L856.364 1034.64H827.17L812.573 1053.28L827.17 1071.91H856.364L870.96 1053.28Z" fill="#D9DBE9"/>
<path d="M527.938 69.5196L513.341 50.883L484.147 50.883L469.551 69.5196L484.147 88.1562L513.341 88.1562L527.938 69.5196Z" fill="#D9DBE9"/>
<path d="M51.9727 141.449C51.9727 131.075 60.5521 122.545 71.2851 122.545C82.018 122.545 90.5974 131.075 90.5974 141.449C90.5974 151.822 82.018 160.352 71.2851 160.352C60.5521 160.352 51.9727 151.822 51.9727 141.449Z" stroke="#4E0754" stroke-width="8"/>
<path d="M70.0681 559.071L53.0081 563.642L57.5793 580.702L40.5193 585.274L45.0905 602.334L28.0306 606.905" stroke="#00A7E5" stroke-width="8" stroke-linecap="round" stroke-linejoin="round"/>
<path d="M56.8317 848.681C53.8488 852.949 49.8708 856.427 45.2418 858.813C40.6128 861.198 35.4722 862.42 30.2648 862.373C25.0574 862.325 19.9399 861.01 15.3552 858.54C10.7704 856.071 6.85638 852.521 3.95172 848.199" stroke="#E2A21F" stroke-width="8"/>
<path d="M821.485 69.5282L804.18 39.5552H838.79L821.485 69.5282Z" fill="#100DB1"/>
<path d="M1107.02 664.175L1086.83 652.519V629.207L1107.02 617.551L1127.21 629.207V652.519L1107.02 664.175Z" fill="#D9DBE9"/>
<path d="M41.3121 390.255L21.123 378.599V355.286L41.3121 343.63L61.5012 355.286V378.599L41.3121 390.255Z" fill="#D9DBE9"/>
</svg>
