<?xml version="1.0" standalone="no"?>
<!DOCTYPE svg PUBLIC "-//W3C//DTD SVG 20010904//EN"
 "http://www.w3.org/TR/2001/REC-SVG-20010904/DTD/svg10.dtd">
<svg version="1.0" xmlns="http://www.w3.org/2000/svg"
 width="64.000000pt" height="64.000000pt" viewBox="0 0 64.000000 64.000000"
 preserveAspectRatio="xMidYMid meet">

<g transform="translate(0.000000,64.000000) scale(0.100000,-0.100000)"
fill="#ffffff" stroke="none">
<path d="M268 624 c-30 -16 -58 -61 -58 -94 0 -53 57 -110 110 -110 34 0 79
28 96 61 8 17 12 34 8 37 -4 4 -9 0 -12 -8 -3 -8 -18 -27 -33 -42 -37 -38 -81
-37 -120 1 -39 40 -39 82 0 122 42 41 84 40 127 -6 40 -43 49 -45 29 -5 -28
54 -93 74 -147 44z"/>
<path d="M333 538 c-22 -21 -23 -21 -43 -3 -31 28 -33 12 -2 -18 l28 -27 34
35 c21 22 29 35 19 35 -8 0 -24 -10 -36 -22z"/>
<path d="M457 472 c-20 -21 -37 -45 -37 -54 0 -27 -38 -47 -76 -41 -22 4 -42
0 -58 -10 -22 -15 -25 -14 -45 7 -11 12 -21 29 -21 37 0 17 -60 79 -76 79 -13
0 -134 -123 -134 -136 0 -16 64 -74 81 -74 8 0 27 -13 42 -28 l27 -28 -30 -29
c-16 -16 -30 -35 -30 -42 0 -18 83 -102 118 -120 14 -8 36 -12 48 -9 13 4 27
0 34 -9 7 -8 19 -15 28 -15 15 0 172 151 172 166 0 4 -10 18 -22 31 l-22 23
38 39 c21 22 44 37 51 35 17 -7 85 54 85 75 0 21 -33 54 -43 44 -4 -3 1 -15
10 -25 16 -18 15 -20 -13 -48 l-30 -30 -57 58 -57 58 30 29 30 29 30 -29 c42
-40 51 -22 10 20 -19 19 -37 35 -40 35 -3 0 -23 -17 -43 -38z m-282 -32 c28
-29 28 -30 9 -52 -19 -21 -19 -21 0 -14 13 4 27 0 42 -15 19 -18 21 -25 12
-45 -21 -46 32 -73 67 -34 10 11 25 20 34 20 19 0 141 -119 141 -137 0 -7 -11
-13 -25 -13 -20 0 -24 -5 -22 -23 2 -17 -3 -22 -20 -20 -19 2 -23 -2 -23 -23
0 -21 -4 -25 -20 -21 -16 4 -20 0 -20 -19 0 -14 -6 -24 -14 -24 -20 0 -37 25
-30 44 4 10 2 27 -4 39 -5 12 -18 39 -27 60 -9 21 -24 41 -33 44 -9 4 -21 12
-25 20 -4 7 -16 13 -26 13 -9 0 -30 13 -46 30 l-29 30 24 25 c32 34 13 32 -22
-2 l-28 -27 -32 32 -32 32 54 55 c30 30 57 55 60 55 4 0 19 -13 35 -30z m308
-88 l37 -38 -40 -39 -40 -39 -25 24 c-30 28 -32 40 -6 40 11 0 22 4 25 9 3 5
-21 9 -54 8 -45 0 -64 -5 -76 -19 -19 -20 -54 -24 -54 -6 0 7 12 25 27 40 23
24 35 28 79 28 34 0 56 5 64 15 17 21 21 20 63 -23z m-279 -140 c3 -5 -12 -26
-33 -46 -50 -48 -68 -30 -20 20 34 35 44 40 53 26z m46 -30 c0 -4 -18 -25 -39
-46 -53 -52 -77 -38 -25 15 35 36 64 50 64 31z m-10 -87 c-23 -23 -37 -32 -44
-25 -7 7 1 22 24 45 23 23 37 32 44 25 7 -7 -1 -22 -24 -45z m33 -36 c-30 -31
-51 -14 -22 17 16 17 26 21 33 14 7 -7 4 -17 -11 -31z"/>
</g>
</svg>
