<svg width="470" height="481" viewBox="0 0 470 481" fill="none" xmlns="http://www.w3.org/2000/svg">
<circle cx="235" cy="245.591" r="235" fill="#F2F2F2"/>
<path d="M203.945 324.603C194.02 340.73 174.362 364.969 141.535 372.699L149.074 347.887C149.074 347.887 119.968 367.259 92.0078 372.699C97.4474 344.643 116.82 315.633 116.82 315.633L92.0078 323.171C99.7369 290.344 123.976 270.686 140.103 260.761L208.821 246.332L203.945 324.603Z" fill="#F2C94C"/>
<path d="M312.511 390.593C276.656 426.448 219.248 427.584 182.034 394.015C196.724 392.458 212.56 380.773 214.776 360.211C215.699 351.671 214.262 341.592 209.416 330.071L134.633 255.287C123.111 250.441 113.033 249.005 104.492 249.928C83.9303 252.143 72.2455 267.979 70.6889 282.669C37.1208 245.456 38.255 188.048 74.111 152.191C95.3136 130.989 124.07 121.931 151.725 125.021C164.405 126.439 176.85 130.398 188.232 136.928L327.774 276.47C334.305 287.852 338.27 300.303 339.681 312.977C342.772 340.631 333.713 369.39 312.511 390.593Z" fill="#790096"/>
<path d="M339.682 312.979C302.541 337.784 260.064 353.427 214.776 360.21C215.699 351.67 214.262 341.592 209.416 330.07L134.632 255.287C123.111 250.44 113.033 249.004 104.492 249.927C111.276 204.638 126.92 162.161 151.724 125.021C164.404 126.439 176.849 130.398 188.231 136.928L327.773 276.47C334.305 287.854 338.27 300.303 339.682 312.979Z" fill="#4E0754"/>
<path d="M209.414 330.073C267.622 316.704 322.903 287.356 368.249 242.01C434.848 175.411 466.952 87.3849 464.581 0.122247C377.319 -2.24822 289.293 29.8548 222.693 96.4541C177.347 141.801 148 197.081 134.631 255.289L209.414 330.073Z" fill="#E3E8EC"/>
<path d="M260.517 134.279C215.174 179.623 179.083 228.171 154.066 274.721L134.633 255.288C147.994 197.083 177.35 141.8 222.694 96.4567C289.292 29.8566 377.318 -2.2448 464.582 0.127299C400.608 21.0456 327.117 67.681 260.517 134.279Z" fill="#D5D8DB"/>
<path d="M445.118 121.213C425.618 109.499 406.281 94.4701 388.259 76.4494C379.556 67.7471 371.558 58.7473 364.293 49.5743C356.5 39.7305 349.542 29.6824 343.471 19.5909C382.296 5.55855 423.235 -0.929375 464.009 0.109184C464.202 0.121441 464.395 0.121441 464.582 0.127161L464.577 0.13288C465.686 41.0885 459.211 82.2068 445.118 121.213Z" fill="#790096"/>
<path d="M451.795 281.065C451.789 281.059 451.795 281.052 451.789 281.045L451.795 281.065Z" fill="#790096"/>
<path d="M464.583 0.127161L464.577 0.13288C432.825 10.5078 398.726 27.2253 364.295 49.5743C356.502 39.7305 349.544 29.6824 343.473 19.5909C382.297 5.55855 423.236 -0.929375 464.01 0.109184C464.203 0.121441 464.396 0.121441 464.583 0.127161Z" fill="#4E0754"/>
<path d="M318.321 207.883C352.284 207.883 379.817 180.35 379.817 146.387C379.817 112.423 352.284 84.8901 318.321 84.8901C284.357 84.8901 256.824 112.423 256.824 146.387C256.824 180.35 284.357 207.883 318.321 207.883Z" fill="#790096"/>
<path d="M318.321 187.799C341.192 187.799 359.733 169.258 359.733 146.387C359.733 123.515 341.192 104.974 318.321 104.974C295.449 104.974 276.908 123.515 276.908 146.387C276.908 169.258 295.449 187.799 318.321 187.799Z" fill="#A0D9F2"/>
</svg>
