<svg width="24" height="24" viewBox="0 0 24 24" fill="none" xmlns="http://www.w3.org/2000/svg">
<circle cx="11.537" cy="11.537" r="11.037" stroke="#3F3F46"/>
<path d="M16.6521 9.05076C16.3068 9.20423 15.9423 9.30015 15.5586 9.3577C15.9423 9.1275 16.2493 8.76301 16.3835 8.32179C16.0191 8.53281 15.6162 8.68627 15.175 8.78219C14.8297 8.4177 14.3309 8.1875 13.7938 8.1875C12.7578 8.1875 11.9138 9.03158 11.9138 10.0675C11.9138 10.221 11.9329 10.3553 11.9713 10.4895C10.4174 10.4128 9.01703 9.66464 8.07703 8.51362C7.92356 8.80138 7.82764 9.10831 7.82764 9.45362C7.82764 10.1059 8.15376 10.6814 8.67172 11.0267C8.36478 11.0075 8.07703 10.9308 7.80846 10.7965V10.8157C7.80846 11.7365 8.4607 12.5038 9.32397 12.6765C9.1705 12.7148 8.99784 12.734 8.82519 12.734C8.71009 12.734 8.5758 12.7148 8.4607 12.6957C8.71009 13.4438 9.4007 14.0001 10.2256 14.0001C9.57335 14.4989 8.76764 14.8059 7.88519 14.8059C7.73172 14.8059 7.57826 14.8059 7.44397 14.7867C8.28805 15.3238 9.26641 15.6308 10.3407 15.6308C13.8129 15.6308 15.7121 12.7532 15.7121 10.2593C15.7121 10.1826 15.7121 10.0867 15.7121 10.0099C16.0766 9.76056 16.4027 9.43444 16.6521 9.05076Z" fill="black"/>
</svg>
