<svg width="40" height="15" viewBox="0 0 40 15" fill="none" xmlns="http://www.w3.org/2000/svg">
<g clip-path="url(#clip0_557_505)">
<path fill-rule="evenodd" clip-rule="evenodd" d="M13.8829 7.29045C13.8829 11.1115 10.7988 14.209 6.99431 14.209C3.18967 14.209 0.105469 11.1115 0.105469 7.29045C0.105469 3.46945 3.18967 0.371924 6.99431 0.371924C10.7988 0.371924 13.8829 3.46945 13.8829 7.29045Z" fill="#ED342B"/>
<path fill-rule="evenodd" clip-rule="evenodd" d="M6.99366 10.254C5.45282 6.7461 4.32304 3.4691 4.32304 3.4691H1.96094C1.96094 3.4691 3.39863 7.67515 6.06916 12.9351H7.91818C10.5887 7.67515 12.0263 3.4691 12.0263 3.4691H9.6642C9.6642 3.4691 8.53451 6.7461 6.99366 10.254Z" fill="#FEFEFE"/>
<path fill-rule="evenodd" clip-rule="evenodd" d="M36.6602 6.92968C35.3249 6.92968 35.2223 8.37388 35.2223 8.37388H38.0978C38.0978 8.37388 37.9953 6.92968 36.6602 6.92968ZM39.8439 9.81782H35.2223C35.2223 9.81782 35.3249 11.3653 37.3792 11.3653C38.4061 11.3653 39.4331 11.0555 39.4331 11.0555L39.6387 12.7059C39.6387 12.7059 38.6116 13.1187 37.1736 13.1187C35.1196 13.1187 33.271 12.0871 33.271 9.19897C33.271 6.92968 34.7089 5.48557 36.7629 5.48557C39.8439 5.48557 40.0492 8.58004 39.8439 9.81782ZM24.1288 7.38056L24.4469 5.67744C24.4469 5.67744 21.9913 4.92909 19.9954 6.31592V13.1284H22.115V7.59324C22.9629 6.95484 24.1288 7.38056 24.1288 7.38056ZM15.2936 6.92968C13.9586 6.92968 13.8559 8.37388 13.8559 8.37388H16.7315C16.7315 8.37388 16.6289 6.92968 15.2936 6.92968ZM18.4774 9.81782H13.8559C13.8559 9.81782 13.9586 11.3653 16.0126 11.3653C17.0394 11.3653 18.0665 11.0555 18.0665 11.0555L18.2721 12.7059C18.2721 12.7059 17.2449 13.1187 15.8071 13.1187C13.7531 13.1187 11.9043 12.0871 11.9043 9.19897C11.9043 6.92968 13.3422 5.48557 15.3963 5.48557C18.4774 5.48557 18.6826 8.58004 18.4774 9.81782ZM29.3016 10.5247C28.2253 7.9302 27.6874 5.48681 27.6874 5.48681L25.5352 5.48707C25.5352 5.48707 26.6114 9.65984 28.4411 13.1174H30.1622C31.9919 9.65984 33.0681 5.48768 33.0681 5.48768H30.9158C30.9158 5.48768 30.3779 7.9302 29.3016 10.5247Z" fill="white"/>
</g>
<defs>
<clipPath id="clip0_557_505">
<rect width="40" height="14" fill="white" transform="translate(0 0.285156)"/>
</clipPath>
</defs>
</svg>
