<svg width="33" height="12" viewBox="0 0 33 12" fill="none" xmlns="http://www.w3.org/2000/svg">
<g clip-path="url(#clip0_557_485)">
<path d="M21.501 0.285156C19.1609 0.285156 17.0599 1.54045 17.0599 3.84398C17.0599 6.49692 20.7713 6.6781 20.7713 7.9981C20.7713 8.55457 20.1422 9.05927 19.0854 9.05927C17.5757 9.05927 16.4434 8.36045 16.4434 8.36045L15.9653 10.6899C15.9653 10.6899 17.2612 11.2852 18.9973 11.2852C21.5639 11.2852 23.5768 9.9781 23.5768 7.6228C23.5768 4.82751 19.8528 4.64633 19.8528 3.41692C19.8528 2.97692 20.3687 2.4981 21.4255 2.4981C22.6207 2.4981 23.602 3.0028 23.602 3.0028L24.0801 0.751039C24.0675 0.751039 22.9981 0.285156 21.501 0.285156ZM0.0629051 0.453392L0 0.789862C0 0.789862 0.981319 0.971039 1.87457 1.34633C3.01944 1.77339 3.09493 2.01927 3.29623 2.7828L5.39726 11.104H8.2154L12.5307 0.453392H9.72512L6.94472 7.70045L5.81243 1.55339C5.71178 0.854568 5.18338 0.453392 4.52917 0.453392H0.0629051ZM13.663 0.453392L11.4613 11.104H14.1411L16.3302 0.453392H13.663ZM28.5841 0.453392C27.9424 0.453392 27.6027 0.802803 27.3511 1.42398L23.4258 11.104H26.2314L26.7724 9.48633H30.1944L30.5215 11.104H33L30.8486 0.453392H28.5841ZM28.9489 3.33927L29.7793 7.3381H27.5524L28.9489 3.33927Z" fill="white"/>
</g>
<defs>
<clipPath id="clip0_557_485">
<rect width="33" height="11" fill="white" transform="translate(0 0.285156)"/>
</clipPath>
</defs>
</svg>
